<?xml version="1.0" encoding="UTF-8"?>
<svg version="1.1" xmlns="http://www.w3.org/2000/svg" width="150" height="150">
<path d="M0 0 C0.58007812 0.27457031 1.16015625 0.54914062 1.7578125 0.83203125 C1.97818114 4.68848246 1.36136351 7.32426341 -0.2421875 10.83203125 C2.2328125 13.80203125 2.2328125 13.80203125 4.7578125 16.83203125 C7.20261329 16.64374353 7.20261329 16.64374353 9.7578125 15.83203125 C11.50092668 13.507879 11.76621335 12.17646629 11.6953125 9.26953125 C11.7578125 6.83203125 11.7578125 6.83203125 12.9453125 4.95703125 C14.7578125 3.83203125 14.7578125 3.83203125 17.3203125 3.95703125 C19.7578125 4.83203125 19.7578125 4.83203125 21.7578125 7.83203125 C21.65551849 10.42347953 21.24799462 12.89546985 20.8515625 15.45703125 C20.5143704 18.1028791 20.5143704 18.1028791 22.7578125 20.83203125 C25.84147121 21.08224695 25.84147121 21.08224695 28.7578125 20.83203125 C29.0259375 19.90390625 29.2940625 18.97578125 29.5703125 18.01953125 C31.25346467 13.50159647 31.25346467 13.50159647 33.7578125 11.83203125 C36.4453125 11.64453125 36.4453125 11.64453125 38.7578125 11.83203125 C36.10362473 20.35337092 32.63054791 28.32632203 28.4453125 36.20703125 C26.82894563 39.67922674 26.20023791 41.14030056 26.7578125 44.83203125 C28.58165549 46.52866318 28.58165549 46.52866318 31.0078125 47.76953125 C35.09697396 50.29784559 37.7315328 52.31895375 39.7578125 56.83203125 C39.67524068 61.62119656 38.75196363 64.1869777 35.7578125 67.83203125 C35.7578125 68.82203125 35.7578125 69.81203125 35.7578125 70.83203125 C37.7378125 71.82203125 37.7378125 71.82203125 39.7578125 72.83203125 C39.81914569 77.5001688 39.81037195 82.16379617 39.7578125 86.83203125 C39.75394531 87.85425781 39.75007813 88.87648438 39.74609375 89.9296875 C39.46161149 96.90440774 37.50368636 100.77514139 32.7578125 105.83203125 C31.9328125 106.76015625 31.1078125 107.68828125 30.2578125 108.64453125 C25.70870553 112.62499985 21.911784 114.24402247 15.79541016 113.9453125 C15.08175293 113.88730469 14.3680957 113.82929688 13.6328125 113.76953125 C12.51011963 113.68445313 12.51011963 113.68445313 11.36474609 113.59765625 C-1.90776322 112.39184011 -11.02261334 107.55255545 -20.15625 97.78515625 C-24.9192194 91.91943039 -27.69146142 85.65615246 -27.1171875 78.01953125 C-26.05652431 70.6064179 -24.30627945 63.27690037 -21.4921875 56.33203125 C-20.05826542 52.46159993 -20.05826542 52.46159993 -21.2421875 48.83203125 C-23.14312545 47.75127362 -23.14312545 47.75127362 -25.2421875 46.83203125 C-26.6640625 45.28125 -26.6640625 45.28125 -27.9921875 43.51953125 C-30.25769088 40.72810744 -32.37175344 38.98771373 -35.4921875 37.20703125 C-38.35698699 35.5614117 -39.12922404 35.04383774 -40.7421875 32.01953125 C-40.9071875 31.29765625 -41.0721875 30.57578125 -41.2421875 29.83203125 C-36.10715406 30.47391043 -31.2478421 31.51475372 -26.2421875 32.83203125 C-26.18819014 31.37410241 -26.14939573 29.91560413 -26.1171875 28.45703125 C-26.09398437 27.64492188 -26.07078125 26.8328125 -26.046875 25.99609375 C-26.02848699 23.61860882 -26.02848699 23.61860882 -28.2421875 21.83203125 C-28.3671875 18.20703125 -28.3671875 18.20703125 -28.2421875 14.83203125 C-25.85718596 13.98024499 -24.5756224 13.73396216 -22.1171875 14.45703125 C-19.67972795 16.24450159 -19.13800222 17.99528465 -18.2421875 20.83203125 C-16.2621875 20.83203125 -14.2821875 20.83203125 -12.2421875 20.83203125 C-9.93224874 16.36186323 -9.93224874 16.36186323 -9.3671875 11.51953125 C-10.25520138 9.47429204 -10.25520138 9.47429204 -13.2421875 7.83203125 C-13.8046875 5.51953125 -13.8046875 5.51953125 -13.2421875 2.83203125 C-8.79508412 -2.64132676 -6.35930984 -2.63397157 0 0 Z M-2.2421875 64.83203125 C-6.6886929 69.51888829 -6.68369422 73.78131324 -6.67578125 79.9296875 C-6.06797145 83.9981801 -4.43369363 86.68307891 -1.4921875 89.51953125 C3.72235654 92.56134861 8.81554563 93.07457276 14.7578125 92.83203125 C15.4178125 91.51203125 16.0778125 90.19203125 16.7578125 88.83203125 C14.4478125 88.50203125 12.1378125 88.17203125 9.7578125 87.83203125 C9.62291859 85.56281589 9.52587255 83.29132455 9.4453125 81.01953125 C9.35830078 79.12267578 9.35830078 79.12267578 9.26953125 77.1875 C9.7578125 73.83203125 9.7578125 73.83203125 12.27734375 71.8828125 C13.50517578 71.36267578 13.50517578 71.36267578 14.7578125 70.83203125 C13.19616802 66.61559115 10.34295385 64.41333302 6.7578125 61.83203125 C2.35854118 61.83203125 1.19384062 62.25501016 -2.2421875 64.83203125 Z " fill="#10D6CA" transform="translate(72.2421875,17.16796875)"/>
<path d="M0 0 C0.58007812 0.27457031 1.16015625 0.54914062 1.7578125 0.83203125 C1.97818114 4.68848246 1.36136351 7.32426341 -0.2421875 10.83203125 C2.2328125 13.80203125 2.2328125 13.80203125 4.7578125 16.83203125 C7.20261329 16.64374353 7.20261329 16.64374353 9.7578125 15.83203125 C11.50092668 13.507879 11.76621335 12.17646629 11.6953125 9.26953125 C11.7578125 6.83203125 11.7578125 6.83203125 12.9453125 4.95703125 C14.7578125 3.83203125 14.7578125 3.83203125 17.3203125 3.95703125 C19.7578125 4.83203125 19.7578125 4.83203125 21.7578125 7.83203125 C21.65551849 10.42347953 21.24799462 12.89546985 20.8515625 15.45703125 C20.5143704 18.1028791 20.5143704 18.1028791 22.7578125 20.83203125 C25.84147121 21.08224695 25.84147121 21.08224695 28.7578125 20.83203125 C29.0259375 19.90390625 29.2940625 18.97578125 29.5703125 18.01953125 C31.25346467 13.50159647 31.25346467 13.50159647 33.7578125 11.83203125 C36.4453125 11.64453125 36.4453125 11.64453125 38.7578125 11.83203125 C36.59497414 18.77588071 33.88448057 25.26893232 30.7578125 31.83203125 C30.39300781 32.60289063 30.02820313 33.37375 29.65234375 34.16796875 C27.78797871 38.0109894 27.78797871 38.0109894 26.7578125 39.83203125 C26.40203125 40.55390625 26.04625 41.27578125 25.6796875 42.01953125 C22.63821097 44.88791562 19.09840457 44.38051573 15.1328125 44.39453125 C8.50274629 44.59043893 2.8614728 45.03655483 -3.2421875 47.83203125 C-4.03109375 48.17878906 -4.82 48.52554688 -5.6328125 48.8828125 C-7.16202293 49.56109132 -8.68518566 50.25333093 -10.19921875 50.96484375 C-12.19905494 51.81372259 -14.12383199 52.365517 -16.2421875 52.83203125 C-16.2421875 53.49203125 -16.2421875 54.15203125 -16.2421875 54.83203125 C-17.2321875 54.83203125 -18.2221875 54.83203125 -19.2421875 54.83203125 C-19.4896875 53.88328125 -19.7371875 52.93453125 -19.9921875 51.95703125 C-21.45273435 48.30566412 -21.93050081 48.43226792 -25.2421875 46.83203125 C-26.6640625 45.28125 -26.6640625 45.28125 -27.9921875 43.51953125 C-30.25769088 40.72810744 -32.37175344 38.98771373 -35.4921875 37.20703125 C-38.35698699 35.5614117 -39.12922404 35.04383774 -40.7421875 32.01953125 C-40.9071875 31.29765625 -41.0721875 30.57578125 -41.2421875 29.83203125 C-36.10715406 30.47391043 -31.2478421 31.51475372 -26.2421875 32.83203125 C-26.18819014 31.37410241 -26.14939573 29.91560413 -26.1171875 28.45703125 C-26.09398437 27.64492188 -26.07078125 26.8328125 -26.046875 25.99609375 C-26.02848699 23.61860882 -26.02848699 23.61860882 -28.2421875 21.83203125 C-28.3671875 18.20703125 -28.3671875 18.20703125 -28.2421875 14.83203125 C-25.85718596 13.98024499 -24.5756224 13.73396216 -22.1171875 14.45703125 C-19.67972795 16.24450159 -19.13800222 17.99528465 -18.2421875 20.83203125 C-16.2621875 20.83203125 -14.2821875 20.83203125 -12.2421875 20.83203125 C-9.93224874 16.36186323 -9.93224874 16.36186323 -9.3671875 11.51953125 C-10.25520138 9.47429204 -10.25520138 9.47429204 -13.2421875 7.83203125 C-13.8046875 5.51953125 -13.8046875 5.51953125 -13.2421875 2.83203125 C-8.79508412 -2.64132676 -6.35930984 -2.63397157 0 0 Z " fill="#C46F21" transform="translate(72.2421875,17.16796875)"/>
<path d="M0 0 C0.23976562 0.60070313 0.47953125 1.20140625 0.7265625 1.8203125 C2.2687009 4.45992362 3.75580581 5.3348094 6.375 6.875 C10.36261962 9.44122618 13.00616335 11.55918201 15 16 C14.91742818 20.78916531 13.99415113 23.35494645 11 27 C11 27.99 11 28.98 11 30 C12.32 30.66 13.64 31.32 15 32 C15.06133319 36.66813755 15.05255945 41.33176492 15 46 C14.99613281 47.02222656 14.99226563 48.04445312 14.98828125 49.09765625 C14.70379899 56.07237649 12.74587386 59.94311014 8 65 C7.175 65.928125 6.35 66.85625 5.5 67.8125 C0.95089303 71.7929686 -2.8460285 73.41199122 -8.96240234 73.11328125 C-9.67605957 73.05527344 -10.3897168 72.99726563 -11.125 72.9375 C-12.24769287 72.85242188 -12.24769287 72.85242188 -13.39306641 72.765625 C-26.66557572 71.55980886 -35.78042584 66.7205242 -44.9140625 56.953125 C-49.6770319 51.08739914 -52.44927392 44.82412121 -51.875 37.1875 C-50.67393206 28.80613462 -48.65191299 20.65162722 -45 13 C-43.68 13.33 -42.36 13.66 -41 14 C-41 13.34 -41 12.68 -41 12 C-37.62643836 9.57525257 -34.02495651 8.1189424 -30.1328125 6.76171875 C-28.01905614 6.04021337 -28.01905614 6.04021337 -26.1171875 5.14453125 C-18.16455672 1.82313839 -9.44736512 2.75396024 -1 3 C-0.67 2.01 -0.34 1.02 0 0 Z M-18.015625 9.30078125 C-20.31139472 10.10972373 -22.59861524 10.61267988 -25 11 C-25 11.66 -25 12.32 -25 13 C-26.32 13.33 -27.64 13.66 -29 14 C-29 15.32 -29 16.64 -29 18 C-29.66 18 -30.32 18 -31 18 C-32.03789581 19.64333504 -33.03567924 21.31243867 -34 23 C-34.66 23.66 -35.32 24.32 -36 25 C-36.4640625 26.4540625 -36.4640625 26.4540625 -36.9375 27.9375 C-38 31 -38 31 -39.54150391 32.40405273 C-41.47748234 34.5224811 -41.38657746 35.76056461 -41.3984375 38.59765625 C-41.40230469 39.48130859 -41.40617187 40.36496094 -41.41015625 41.27539062 C-41.39855469 42.19513672 -41.38695312 43.11488281 -41.375 44.0625 C-41.38660156 44.98611328 -41.39820313 45.90972656 -41.41015625 46.86132812 C-41.40628906 47.74369141 -41.40242188 48.62605469 -41.3984375 49.53515625 C-41.39505371 50.343479 -41.39166992 51.15180176 -41.38818359 51.98461914 C-41.26008301 52.64969482 -41.13198242 53.31477051 -41 54 C-40.01 54.66 -39.02 55.32 -38 56 C-35.32854463 55.19838209 -35.32854463 55.19838209 -33 54 C-33.020625 55.134375 -33.04125 56.26875 -33.0625 57.4375 C-33.41577477 60.81575674 -33.41577477 60.81575674 -32 62 C-30.67274963 62.29922386 -29.33767714 62.56400789 -28 62.8125 C-22.98872682 63.86623481 -18.58827522 65.76552082 -14 68 C-14.99 68.66 -15.98 69.32 -17 70 C-7.51102327 70.55459781 -7.51102327 70.55459781 1 67 C1 66.34 1 65.68 1 65 C2.65 65 4.3 65 6 65 C6 64.34 6 63.68 6 63 C6.99 62.67 7.98 62.34 9 62 C11.7616334 59.72016236 12.89066919 57.91304637 13.31835938 54.34130859 C13.39407955 51.11450346 13.34804755 47.91364139 13.25 44.6875 C13.23195312 43.56537109 13.21390625 42.44324219 13.1953125 41.28710938 C13.14827856 38.52386553 13.08256317 35.76237302 13 33 C3.86533168 32.3111909 -4.88651147 31.69807307 -14 33 C-14.33 36.63 -14.66 40.26 -15 44 C-15.44041451 36.51295337 -15.44041451 36.51295337 -15 33 C-12.5 30.8125 -12.5 30.8125 -10 30 C-11.56812758 25.76605553 -14.34601998 23.52967848 -18 21 C-21.25276753 20.58009927 -21.25276753 20.58009927 -24 21 C-19.42297505 18.06400595 -15.27803638 19.15704102 -10.1484375 20.02734375 C-5.54029815 21.45095008 -3.35919417 23.90041669 -1 28 C-0.505 28.99 -0.505 28.99 0 30 C0.598125 29.690625 1.19625 29.38125 1.8125 29.0625 C4 28 4 28 7 27 C7.185625 26.0409375 7.185625 26.0409375 7.375 25.0625 C7.58125 24.381875 7.7875 23.70125 8 23 C9.66666667 22.33333333 11.33333333 21.66666667 13 21 C13.98498715 19.19262252 13.98498715 19.19262252 14 17 C11.15781522 12.40130971 6.96208827 8.20537256 2 6 C-5.04531048 6 -11.38711605 6.89148278 -18.015625 9.30078125 Z " fill="#0ABFBD" transform="translate(97,58)"/>
<path d="M0 0 C0.23976562 0.60070313 0.47953125 1.20140625 0.7265625 1.8203125 C2.2687009 4.45992362 3.75580581 5.3348094 6.375 6.875 C10.36261962 9.44122618 13.00616335 11.55918201 15 16 C14.91742818 20.78916531 13.99415113 23.35494645 11 27 C11 27.99 11 28.98 11 30 C12.32 30.66 13.64 31.32 15 32 C15.11039334 40.40215965 14.95458649 48.64736824 14 57 C13.67 57 13.34 57 13 57 C13 49.08 13 41.16 13 33 C4.09 33 -4.82 33 -14 33 C-13.505 35.97 -13.505 35.97 -13 39 C-13.14118143 41.72343527 -13.5806584 44.29757633 -14 47 C-16.93878955 42.59181567 -16.81841173 38.17267998 -16 33 C-13.5 30.8125 -13.5 30.8125 -11 30 C-12.50244436 26.17559618 -14.52010111 24.16527042 -18 22 C-21.70940775 21.66534111 -21.70940775 21.66534111 -25 22 C-23.68835292 19.37670584 -22.74239234 19.0014096 -20 18 C-14.4915672 17.92799434 -9.04609643 18.42556866 -4.59375 21.8515625 C0 27.02894467 0 27.02894467 0 30 C0.598125 29.505 1.19625 29.01 1.8125 28.5 C4 27 4 27 7 27 C6.67 25.35 6.34 23.7 6 22 C6.78375 21.855625 7.5675 21.71125 8.375 21.5625 C10.96421018 21.12201075 10.96421018 21.12201075 13 20 C12.3726201 14.56270754 8.3429236 11.07941388 4.3125 7.83984375 C0.47290346 5.70723765 -2.53669268 5.42261813 -6.8125 5.5625 C-7.87090088 5.58123169 -7.87090088 5.58123169 -8.95068359 5.6003418 C-16.95759818 5.87006196 -23.01795123 8.24043528 -30 12 C-30 12.66 -30 13.32 -30 14 C-30.99 14 -31.98 14 -33 14 C-33 14.66 -33 15.32 -33 16 C-36.96 16.495 -36.96 16.495 -41 17 C-41.99 19.475 -41.99 19.475 -43 22 C-44.65 22 -46.3 22 -48 22 C-47.01 19.03 -46.02 16.06 -45 13 C-43.68 13.33 -42.36 13.66 -41 14 C-41 13.34 -41 12.68 -41 12 C-37.62643836 9.57525257 -34.02495651 8.1189424 -30.1328125 6.76171875 C-28.01905614 6.04021337 -28.01905614 6.04021337 -26.1171875 5.14453125 C-18.16455672 1.82313839 -9.44736512 2.75396024 -1 3 C-0.67 2.01 -0.34 1.02 0 0 Z " fill="#0C8791" transform="translate(97,58)"/>
<path d="M0 0 C0.66 0 1.32 0 2 0 C2 0.66 2 1.32 2 2 C2.99 2.33 3.98 2.66 5 3 C5 3.66 5 4.32 5 5 C4.34 5 3.68 5 3 5 C3.11458693 6.43836751 3.24209116 7.87570966 3.375 9.3125 C3.44460937 10.11300781 3.51421875 10.91351563 3.5859375 11.73828125 C3.89564426 14.27224441 3.89564426 14.27224441 6 17 C9.96 16.505 9.96 16.505 14 16 C14.226875 15.2575 14.45375 14.515 14.6875 13.75 C16.24407532 10.48860409 18.08518854 9.07105025 21 7 C19.53967505 12.31027254 17.01679014 16.46330032 14 21 C13.505 20.01 13.505 20.01 13 19 C11.35 19.66 9.7 20.32 8 21 C8.66 21.33 9.32 21.66 10 22 C9.34 24.64 8.68 27.28 8 30 C6.88238281 29.83371094 5.76476562 29.66742188 4.61328125 29.49609375 C-1.05194505 28.78591226 -6.67687056 28.98357111 -12.37304688 29.12695312 C-13.18451172 29.13791016 -13.99597656 29.14886719 -14.83203125 29.16015625 C-15.56139893 29.17699463 -16.2907666 29.19383301 -17.04223633 29.21118164 C-19 29 -19 29 -22 27 C-22 26.34 -22 25.68 -22 25 C-22.66 24.67 -23.32 24.34 -24 24 C-22.68 19.71 -21.36 15.42 -20 11 C-19.01 11.33 -18.02 11.66 -17 12 C-16.67 11.34 -16.34 10.68 -16 10 C-15.01 11.485 -15.01 11.485 -14 13 C-8.43492191 13.63266883 -8.43492191 13.63266883 -3.5 11.4375 C-1.49521219 8.17971981 -1.71137141 5.75217167 -2 2 C-1.34 2 -0.68 2 0 2 C0 1.34 0 0.68 0 0 Z " fill="#C88216" transform="translate(88,23)"/>
<path d="M0 0 C0.67417969 0.60585937 1.34835938 1.21171875 2.04296875 1.8359375 C3.8125 3.625 3.8125 3.625 5.8125 6.625 C5.75 8.6875 5.75 8.6875 4.8125 10.625 C3.14583333 11.29166667 1.47916667 11.95833333 -0.1875 12.625 C-0.53092449 13.95576989 -0.86369874 15.28931979 -1.1875 16.625 C-5.36607143 19.625 -5.36607143 19.625 -8.1875 19.625 C-8.785625 18.7175 -9.38375 17.81 -10 16.875 C-12.13519518 13.70271001 -14.20544652 11.94437493 -17.1875 9.625 C-17.1875 8.965 -17.1875 8.305 -17.1875 7.625 C-19.4975 7.295 -21.8075 6.965 -24.1875 6.625 C-24.1875 5.965 -24.1875 5.305 -24.1875 4.625 C-28.4775 5.615 -32.7675 6.605 -37.1875 7.625 C-36.8575 5.975 -36.5275 4.325 -36.1875 2.625 C-35.1975 2.625 -34.2075 2.625 -33.1875 2.625 C-33.1875 1.965 -33.1875 1.305 -33.1875 0.625 C-32.26066406 0.42003906 -31.33382812 0.21507813 -30.37890625 0.00390625 C-29.18136719 -0.26550781 -27.98382813 -0.53492187 -26.75 -0.8125 C-25.55503906 -1.07933594 -24.36007813 -1.34617187 -23.12890625 -1.62109375 C-20.3170314 -2.07566748 -20.3170314 -2.07566748 -19.1875 -3.375 C-17.61224798 -3.637542 -16.02598696 -3.83551171 -14.4375 -4 C-13.57640625 -4.09539062 -12.7153125 -4.19078125 -11.828125 -4.2890625 C-6.66778343 -4.45700261 -3.81093892 -3.49397495 0 0 Z " fill="#15DFD5" transform="translate(105.1875,68.375)"/>
<path d="M0 0 C0.66 0.33 1.32 0.66 2 1 C1.67 2.32 1.34 3.64 1 5 C1.99 5.33 2.98 5.66 4 6 C3.01 6.33 2.02 6.66 1 7 C1 7.99 1 8.98 1 10 C1.99 10.33 2.98 10.66 4 11 C4.12117188 11.72445312 4.24234375 12.44890625 4.3671875 13.1953125 C5.59047519 23.50093666 5.59047519 23.50093666 11.16015625 31.53125 C14.2696115 33.13944144 17.00924381 33.82161715 20.4375 34.5 C25.04560633 35.49339538 28.90587775 36.58551765 33 39 C34.175625 39.5878125 34.175625 39.5878125 35.375 40.1875 C35.91125 40.455625 36.4475 40.72375 37 41 C36.67 41.33 36.34 41.66 36 42 C41.4389165 42.21755666 45.87080814 42.10428384 51 40 C51 39.34 51 38.68 51 38 C50.01 37.505 50.01 37.505 49 37 C51.31 37.33 53.62 37.66 56 38 C55.67 37.01 55.34 36.02 55 35 C56.32 35 57.64 35 59 35 C59.28875 34.360625 59.5775 33.72125 59.875 33.0625 C61 31 61 31 63 30 C60.7729093 36.88373489 56.2822956 41.85066922 49.91015625 45.1484375 C40.10192397 48.01849741 26.92231872 45.56141013 18 41 C9.12308016 35.06647989 1.48569523 27.81568331 -1.60546875 17.3671875 C-2.56634821 11.60191075 -1.31490977 5.63532758 0 0 Z " fill="#14B9B3" transform="translate(47,85)"/>
<path d="M0 0 C1.32 0 2.64 0 4 0 C5.55944339 3.11888678 5.28316275 5.5454145 5 9 C3.87302723 11.53937969 2.52802548 13.66021098 1 16 C-5.625 16.125 -5.625 16.125 -9 15 C-9 13.02 -9 11.04 -9 9 C-10.32 8.67 -11.64 8.34 -13 8 C-13.66 9.65 -14.32 11.3 -15 13 C-13.68 13.66 -12.36 14.32 -11 15 C-10.37354988 23.14385151 -10.37354988 23.14385151 -12.875 26.5625 C-15 28 -15 28 -17 28 C-16.65213292 29.97536745 -16.65213292 29.97536745 -16 32 C-15.34 32.33 -14.68 32.66 -14 33 C-14 32.34 -14 31.68 -14 31 C-13.01 31 -12.02 31 -11 31 C-11.33 32.32 -11.66 33.64 -12 35 C-10.68 35 -9.36 35 -8 35 C-7.34 35.33 -6.68 35.66 -6 36 C-6.66 36.66 -7.32 37.32 -8 38 C-7.34 38.33 -6.68 38.66 -6 39 C-6 40.65 -6 42.3 -6 44 C-4.58847656 43.16855469 -4.58847656 43.16855469 -3.1484375 42.3203125 C-1.89079396 41.58825133 -0.63297192 40.85649675 0.625 40.125 C1.24246094 39.76019531 1.85992187 39.39539063 2.49609375 39.01953125 C8.68160005 35.43844865 13.80574576 33.72564005 21.0625 33.8125 C22.84333984 33.82216797 22.84333984 33.82216797 24.66015625 33.83203125 C27.56119407 33.9779314 30.18008735 34.33366903 33 35 C33 35.33 33 35.66 33 36 C31.53240234 36.05607422 31.53240234 36.05607422 30.03515625 36.11328125 C19.5700553 36.63807982 11.50262043 38.68729313 2.04296875 43.1328125 C0.04313256 43.98169134 -1.88164449 44.53348575 -4 45 C-4 45.66 -4 46.32 -4 47 C-4.99 47 -5.98 47 -7 47 C-7.2475 46.05125 -7.495 45.1025 -7.75 44.125 C-9.21054685 40.47363287 -9.68831331 40.60023667 -13 39 C-14.421875 37.44921875 -14.421875 37.44921875 -15.75 35.6875 C-18.01550338 32.89607619 -20.12956594 31.15568248 -23.25 29.375 C-26.11479949 27.72938045 -26.88703654 27.21180649 -28.5 24.1875 C-28.665 23.465625 -28.83 22.74375 -29 22 C-23.86496656 22.64187918 -19.0056546 23.68272247 -14 25 C-13.94600264 23.54207116 -13.90720823 22.08357288 -13.875 20.625 C-13.85179687 19.81289063 -13.82859375 19.00078125 -13.8046875 18.1640625 C-13.78629949 15.78657757 -13.78629949 15.78657757 -16 14 C-16.125 10.375 -16.125 10.375 -16 7 C-13.61499846 6.14821374 -12.3334349 5.90193091 -9.875 6.625 C-7.43754045 8.41247034 -6.89581472 10.1632534 -6 13 C-4.02 13 -2.04 13 0 13 C2.33106329 8.5297422 2.33106329 8.5297422 2.8125 3.6875 C2.01622257 1.79598895 2.01622257 1.79598895 0 0 Z " fill="#224337" transform="translate(60,25)"/>
<path d="M0 0 C3.3 0.33 6.6 0.66 10 1 C9.67 1.66 9.34 2.32 9 3 C8.34 3 7.68 3 7 3 C7.33 3.53625 7.66 4.0725 8 4.625 C9.22699204 7.5391061 9.14233286 9.86867708 9 13 C10.32 13.33 11.64 13.66 13 14 C13.33 15.32 13.66 16.64 14 18 C13.34 18 12.68 18 12 18 C12 18.66 12 19.32 12 20 C6.82421875 23.22265625 6.82421875 23.22265625 5 24 C4.01 23.67 3.02 23.34 2 23 C2.33 22.34 2.66 21.68 3 21 C2.01 20.67 1.02 20.34 0 20 C0.33 19.34 0.66 18.68 1 18 C-0.32 18.33 -1.64 18.66 -3 19 C-3.33 18.01 -3.66 17.02 -4 16 C-3.34 16 -2.68 16 -2 16 C-2 15.01 -2 14.02 -2 13 C-2.99 13 -3.98 13 -5 13 C-5 13.66 -5 14.32 -5 15 C-5.99 14.67 -6.98 14.34 -8 14 C-8 13.34 -8 12.68 -8 12 C-7.05125 11.690625 -6.1025 11.38125 -5.125 11.0625 C-1.60238644 8.73757505 -1.46162802 8.22496633 -0.625 4.3125 C-0.41875 2.889375 -0.2125 1.46625 0 0 Z " fill="#844F17" transform="translate(51,43)"/>
<path d="M0 0 C0.58007812 0.27457031 1.16015625 0.54914062 1.7578125 0.83203125 C1.97818114 4.68848246 1.36136351 7.32426341 -0.2421875 10.83203125 C1.4078125 12.81203125 3.0578125 14.79203125 4.7578125 16.83203125 C7.20261329 16.64374353 7.20261329 16.64374353 9.7578125 15.83203125 C11.50092668 13.507879 11.76621335 12.17646629 11.6953125 9.26953125 C11.7578125 6.83203125 11.7578125 6.83203125 12.9453125 4.95703125 C14.7578125 3.83203125 14.7578125 3.83203125 17.3203125 3.95703125 C19.7578125 4.83203125 19.7578125 4.83203125 21.7578125 7.83203125 C21.4278125 8.82203125 21.0978125 9.81203125 20.7578125 10.83203125 C19.2578125 9.45703125 19.2578125 9.45703125 17.7578125 7.83203125 C17.7578125 7.17203125 17.7578125 6.51203125 17.7578125 5.83203125 C17.0978125 5.83203125 16.4378125 5.83203125 15.7578125 5.83203125 C15.7578125 6.49203125 15.7578125 7.15203125 15.7578125 7.83203125 C15.0978125 7.83203125 14.4378125 7.83203125 13.7578125 7.83203125 C14.0259375 8.88390625 14.2940625 9.93578125 14.5703125 11.01953125 C14.7578125 14.83203125 14.7578125 14.83203125 12.8203125 17.76953125 C8.74109049 20.5167624 6.58603842 20.24120294 1.7578125 19.83203125 C1.0978125 18.51203125 0.4378125 17.19203125 -0.2421875 15.83203125 C-0.9021875 15.83203125 -1.5621875 15.83203125 -2.2421875 15.83203125 C-5.2421875 11.44741587 -5.2421875 11.44741587 -5.2421875 8.83203125 C-7.8821875 8.50203125 -10.5221875 8.17203125 -13.2421875 7.83203125 C-13.6171875 5.64453125 -13.6171875 5.64453125 -13.2421875 2.83203125 C-8.79508412 -2.64132676 -6.35930984 -2.63397157 0 0 Z " fill="#B48D3E" transform="translate(72.2421875,17.16796875)"/>
<path d="M0 0 C0 7.59 0 15.18 0 23 C-0.66 22.67 -1.32 22.34 -2 22 C-2.31241455 19.28553021 -2.51336592 16.66090639 -2.625 13.9375 C-2.66367188 13.17888672 -2.70234375 12.42027344 -2.7421875 11.63867188 C-2.83673562 9.75952805 -2.91946756 7.87979664 -3 6 C-5.475 5.505 -5.475 5.505 -8 5 C-8 4.01 -8 3.02 -8 2 C-9.91789713 2.28346278 -11.83429183 2.5771028 -13.75 2.875 C-14.81734375 3.03742188 -15.8846875 3.19984375 -16.984375 3.3671875 C-19.67708871 3.93223882 -21.63572439 4.63422914 -24 6 C-23.36020151 8.03241727 -23.36020151 8.03241727 -22 10 C-19.44480079 10.81171228 -19.44480079 10.81171228 -17 11 C-16.67 12.98 -16.34 14.96 -16 17 C-16.66 17 -17.32 17 -18 17 C-18 16.01 -18 15.02 -18 14 C-20.97 14 -23.94 14 -27 14 C-27 9.38 -27 4.76 -27 0 C-17.81958602 -1.31148771 -9.2273011 -0.65909294 0 0 Z " fill="#34D9D3" transform="translate(110,91)"/>
<path d="M0 0 C4.9201867 1.19277253 7.46641559 4.32496778 10.7421875 7.9296875 C12 10 12 10 11.8515625 12.1953125 C10.60631135 14.83433099 8.63294069 14.94682373 6 16 C5.65657551 17.33076989 5.32380126 18.66431979 5 20 C0.82142857 23 0.82142857 23 -2 23 C-2.598125 22.0925 -3.19625 21.185 -3.8125 20.25 C-5.94224941 17.08580088 -7.93373561 15.21452428 -11 13 C-10.67 12.34 -10.34 11.68 -10 11 C-5.545 13.97 -5.545 13.97 -1 17 C1.96554248 8.54190965 1.96554248 8.54190965 0 0 Z " fill="#4EDEDE" transform="translate(99,65)"/>
<path d="M0 0 C2.97 0.495 2.97 0.495 6 1 C6.66 2.98 7.32 4.96 8 7 C13.08303686 7.11320856 13.08303686 7.11320856 18 6 C18 6.66 18 7.32 18 8 C18.66 8 19.32 8 20 8 C20 9.65 20 11.3 20 13 C18.88238281 12.83371094 17.76476562 12.66742188 16.61328125 12.49609375 C10.94805495 11.78591226 5.32312944 11.98357111 -0.37304688 12.12695312 C-1.18451172 12.13791016 -1.99597656 12.14886719 -2.83203125 12.16015625 C-3.56139893 12.17699463 -4.2907666 12.19383301 -5.04223633 12.21118164 C-7 12 -7 12 -10 10 C-10 9.34 -10 8.68 -10 8 C-10.66 7.67 -11.32 7.34 -12 7 C-11.34 5.68 -10.68 4.36 -10 3 C-9.34 4.65 -8.68 6.3 -8 8 C-5.36 8 -2.72 8 0 8 C0 5.36 0 2.72 0 0 Z " fill="#DA8C23" transform="translate(76,40)"/>
<path d="M0 0 C0 0.33 0 0.66 0 1 C-1.35931641 1.05607422 -1.35931641 1.05607422 -2.74609375 1.11328125 C-12.66719979 1.64870602 -20.25281 3.28997461 -29 8 C-29 8.66 -29 9.32 -29 10 C-29.99 10 -30.98 10 -32 10 C-32 10.66 -32 11.32 -32 12 C-34.64 12.33 -37.28 12.66 -40 13 C-40.66 14.65 -41.32 16.3 -42 18 C-43.65 18 -45.3 18 -47 18 C-46.01 15.03 -45.02 12.06 -44 9 C-42.68 9.33 -41.36 9.66 -40 10 C-40 9.34 -40 8.68 -40 8 C-36.07015253 4.88322442 -31.51317947 3.89755185 -26.7421875 2.6953125 C-24.57746179 2.14642194 -22.43822398 1.49705518 -20.3125 0.8125 C-13.79763813 -0.84707534 -6.66703214 -0.14563905 0 0 Z " fill="#0AABAD" transform="translate(96,62)"/>
<path d="M0 0 C0.66 0 1.32 0 2 0 C1.46274105 3.37705625 0.88935377 6.696686 0 10 C2.97 10.495 2.97 10.495 6 11 C5.01 11.495 5.01 11.495 4 12 C3.45393974 14.51458164 3.45393974 14.51458164 3.25 17.4375 C3.15203125 18.42621094 3.0540625 19.41492188 2.953125 20.43359375 C2.70610437 23.16882159 2.70610437 23.16882159 5 25 C7.1519437 28.22791555 7.20086443 29.28400809 7 33 C9.6666419 34.33332095 11.16680303 33.67102033 14 33 C14 35.31 14 37.62 14 40 C10.50335208 39.35247261 7.92867039 38.00382711 5 36 C2.72119956 32.58179934 2.19615938 29.94790972 1.375 25.9375 C1.11460938 24.68839844 0.85421875 23.43929687 0.5859375 22.15234375 C0 19 0 19 0 17 C-0.66 16.67 -1.32 16.34 -2 16 C-2 17.98 -2 19.96 -2 22 C-2.33 22 -2.66 22 -3 22 C-3.0270043 20.54176788 -3.04639787 19.08339325 -3.0625 17.625 C-3.07410156 16.81289062 -3.08570313 16.00078125 -3.09765625 15.1640625 C-3 13 -3 13 -2 11 C-1.96984727 8.69116277 -2.06653176 6.40065744 -2.16015625 4.09375 C-2 2 -2 2 0 0 Z " fill="#12B7B1" transform="translate(50,79)"/>
<path d="M0 0 C1.32 0 2.64 0 4 0 C5.55944339 3.11888678 5.28316275 5.5454145 5 9 C3.87302723 11.53937969 2.52802548 13.66021098 1 16 C-5.625 16.125 -5.625 16.125 -9 15 C-9 13.02 -9 11.04 -9 9 C-10.32 8.67 -11.64 8.34 -13 8 C-13.66 9.65 -14.32 11.3 -15 13 C-13.68 13.66 -12.36 14.32 -11 15 C-10.38258575 23.02638522 -10.38258575 23.02638522 -12.625 26.5625 C-15.79516453 28.4812838 -17.35589151 28.74369561 -21 28 C-23.04108807 26.15609276 -24.39231317 24.26967552 -26 22 C-22.04 22.99 -18.08 23.98 -14 25 C-13.95875 23.55625 -13.9175 22.1125 -13.875 20.625 C-13.85179687 19.81289063 -13.82859375 19.00078125 -13.8046875 18.1640625 C-13.78629949 15.78657757 -13.78629949 15.78657757 -16 14 C-16.125 10.375 -16.125 10.375 -16 7 C-13.61499846 6.14821374 -12.3334349 5.90193091 -9.875 6.625 C-7.43754045 8.41247034 -6.89581472 10.1632534 -6 13 C-4.02 13 -2.04 13 0 13 C2.33106329 8.5297422 2.33106329 8.5297422 2.8125 3.6875 C2.01622257 1.79598895 2.01622257 1.79598895 0 0 Z " fill="#2C3133" transform="translate(60,25)"/>
<path d="M0 0 C0.66 0 1.32 0 2 0 C2 0.66 2 1.32 2 2 C2.99 2.33 3.98 2.66 5 3 C5 3.66 5 4.32 5 5 C4.34 5 3.68 5 3 5 C3.11458693 6.43836751 3.24209116 7.87570966 3.375 9.3125 C3.44460937 10.11300781 3.51421875 10.91351563 3.5859375 11.73828125 C3.89564426 14.27224441 3.89564426 14.27224441 6 17 C9.96 16.505 9.96 16.505 14 16 C14.226875 15.2575 14.45375 14.515 14.6875 13.75 C16.24407532 10.48860409 18.08518854 9.07105025 21 7 C19.53967505 12.31027254 17.01679014 16.46330032 14 21 C13.67 20.34 13.34 19.68 13 19 C12.34 19.33 11.68 19.66 11 20 C8.125 20.4375 8.125 20.4375 5 20 C1 15.15789474 1 15.15789474 1 12 C-0.03125 12.680625 -1.0625 13.36125 -2.125 14.0625 C-5.07399705 15.77423963 -5.86316837 16.00995139 -9.4375 15.75 C-10.283125 15.5025 -11.12875 15.255 -12 15 C-12 14.67 -12 14.34 -12 14 C-9.98177083 13.57682292 -7.96354167 13.15364583 -5.9453125 12.73046875 C-3.62953451 12.07691162 -3.62953451 12.07691162 -2 9 C-1.92094936 6.66800612 -1.91201231 4.33167378 -2 2 C-1.34 2 -0.68 2 0 2 C0 1.34 0 0.68 0 0 Z " fill="#CAA24F" transform="translate(88,23)"/>
<path d="M0 0 C0.99 0 1.98 0 3 0 C3 0.99 3 1.98 3 3 C2.34 3 1.68 3 1 3 C0.8453125 3.8971875 0.8453125 3.8971875 0.6875 4.8125 C0 7 0 7 -1.4375 8.375 C-3.24648642 10.02347055 -3.24648642 10.02347055 -4 13 C-5 16 -5 16 -6.625 17.4375 C-8.84286164 19.95779732 -8.05517979 22.74439251 -8 26 C-9 29.4375 -9 29.4375 -10 32 C-11.5 30.875 -11.5 30.875 -13 29 C-13.38640931 25.5223162 -13.06621757 23.19475754 -11.9375 19.875 C-10.93236661 16.79259095 -11.20527839 15.98020605 -12 13 C-11.0625 10.75 -11.0625 10.75 -10 9 C-9.67 9.66 -9.34 10.32 -9 11 C-8.54625 10.34 -8.0925 9.68 -7.625 9 C-7.08875 8.34 -6.5525 7.68 -6 7 C-5.34 7 -4.68 7 -4 7 C-3.71125 6.401875 -3.4225 5.80375 -3.125 5.1875 C-2 3 -2 3 0 0 Z " fill="#0DCDC4" transform="translate(65,73)"/>
<path d="M0 0 C0.66 0.33 1.32 0.66 2 1 C1.95875 1.928125 1.9175 2.85625 1.875 3.8125 C1.72863661 7.15809719 1.72863661 7.15809719 4 10 C7.08365871 10.2502157 7.08365871 10.2502157 10 10 C10.268125 9.071875 10.53625 8.14375 10.8125 7.1875 C12.49565217 2.66956522 12.49565217 2.66956522 15 1 C17.6875 0.8125 17.6875 0.8125 20 1 C17.83675863 7.94514335 15.11947219 14.43269012 12 21 C11.63519531 21.7940625 11.27039063 22.588125 10.89453125 23.40625 C9.23695285 26.91193306 8.2891126 28.80725826 5 31 C5.33 29.35 5.66 27.7 6 26 C6.66 26 7.32 26 8 26 C7.79375 25.46375 7.5875 24.9275 7.375 24.375 C6.85048633 21.05308011 7.66089999 19.06080003 9 16 C9.928125 15.1028125 9.928125 15.1028125 10.875 14.1875 C13.99554911 10.97517003 15.3467752 7.1154745 17 3 C13.91910327 5.77280706 12.31224548 8.06326356 11 12 C8.36 12.33 5.72 12.66 3 13 C-1.06153846 6.84615385 -1.06153846 6.84615385 -0.75 2.5625 C-0.5025 1.716875 -0.255 0.87125 0 0 Z " fill="#34403A" transform="translate(91,28)"/>
<path d="M0 0 C8.56674915 -0.33328851 15.95073076 -0.11584616 24 3 C24 3.99 24 4.98 24 6 C22.96875 5.835 21.9375 5.67 20.875 5.5 C6.54177617 3.82863468 -4.14659295 5.57784236 -16 14 C-16.66 14 -17.32 14 -18 14 C-18 13.34 -18 12.68 -18 12 C-11.25 8 -11.25 8 -9 8 C-8.34 6.35 -7.68 4.7 -7 3 C-3.535 2.505 -3.535 2.505 0 2 C0 1.34 0 0.68 0 0 Z " fill="#C47221" transform="translate(72,55)"/>
<path d="M0 0 C0 0.66 0 1.32 0 2 C-1.65361801 3.29118119 -3.40215408 4.36907417 -5.17578125 5.48828125 C-8.37388522 8.13853015 -9.82135037 10.80417407 -10.43359375 14.90234375 C-10.44671842 23.18771755 -10.44671842 23.18771755 -6 30 C-2.51565576 32.66885942 0.86589749 34.540905 5 36 C5 36.33 5 36.66 5 37 C1.7 36.67 -1.6 36.34 -5 36 C-5 35.34 -5 34.68 -5 34 C-5.99 33.67 -6.98 33.34 -8 33 C-9.3515625 31.51171875 -9.3515625 31.51171875 -10.625 29.6875 C-11.26308594 28.79611328 -11.26308594 28.79611328 -11.9140625 27.88671875 C-14.49505416 23.40247785 -14.87077531 18.03292149 -14 13 C-12.37606043 9.69216001 -10.48754218 6.72598534 -8 4 C-7.34 4 -6.68 4 -6 4 C-5.67 3.01 -5.34 2.02 -5 1 C-3 0 -3 0 0 0 Z " fill="#47D9D6" transform="translate(75,76)"/>
<path d="M0 0 C0.66 0.33 1.32 0.66 2 1 C1.360625 1.78375 0.72125 2.5675 0.0625 3.375 C-2.89434732 7.13826022 -3.17980176 9.06826887 -3.25 13.8125 C-3.27578125 14.85019531 -3.3015625 15.88789062 -3.328125 16.95703125 C-2.95441568 20.42274031 -2.08036035 22.22781021 0 25 C5.68903225 28.3892107 10.3812497 29.4902778 17 29 C17.66 28.01 18.32 27.02 19 26 C17.35 26 15.7 26 14 26 C14 25.67 14 25.34 14 25 C16.64 25 19.28 25 22 25 C22 25.99 22 26.98 22 28 C16.89272554 31.66391429 13.60723874 32.55686476 7.36328125 31.609375 C1.67992242 30.14391388 -1.68885633 26.66012813 -5 22 C-7.11827263 17.76345473 -6.63478026 12.58643037 -6 8 C-4.39022148 4.91185344 -2.44200585 2.47107735 0 0 Z " fill="#057E89" transform="translate(70,80)"/>
<path d="M0 0 C2.64 0 5.28 0 8 0 C8.08131463 1.43655854 8.13933559 2.8744483 8.1875 4.3125 C8.23970703 5.51326172 8.23970703 5.51326172 8.29296875 6.73828125 C8 9 8 9 6.94921875 10.71484375 C4.04957747 12.62663129 1.00015978 12.87208636 -2.375 13.25 C-4.33566406 13.50523438 -4.33566406 13.50523438 -6.3359375 13.765625 C-11.75691354 14.11238253 -15.91279938 12.77460487 -21 11 C-21 10.34 -21 9.68 -21 9 C-21.99 8.67 -22.98 8.34 -24 8 C-23.67 6.68 -23.34 5.36 -23 4 C-21.29115995 5.62339805 -19.62553283 7.29319053 -18 9 C-18 9.66 -18 10.32 -18 11 C-11.80391194 11.34925757 -6.80701698 10.92302766 -0.984375 8.734375 C1.30866425 7.88576992 3.58859251 7.38893669 6 7 C5.67 5.02 5.34 3.04 5 1 C3.35 1 1.7 1 0 1 C0 0.67 0 0.34 0 0 Z " fill="#20D6CB" transform="translate(88,101)"/>
<path d="M0 0 C0.66 0.33 1.32 0.66 2 1 C1.67 2.32 1.34 3.64 1 5 C1.99 5.33 2.98 5.66 4 6 C3.01 6.33 2.02 6.66 1 7 C1 7.99 1 8.98 1 10 C1.99 10.33 2.98 10.66 4 11 C5.28134207 17.65551466 6.33644956 24.25390382 7 31 C1.69823158 26.72913099 -0.52392119 21.60258007 -2 15 C-2.07300575 11.55899578 -1.66671296 8.36993096 -1 5 C-0.814375 3.96875 -0.62875 2.9375 -0.4375 1.875 C-0.293125 1.25625 -0.14875 0.6375 0 0 Z " fill="#27ADAF" transform="translate(47,85)"/>
<path d="M0 0 C-0.55312735 4.02992782 -1.1558062 8.02022924 -2 12 C-2.66 12 -3.32 12 -4 12 C-4.33 13.32 -4.66 14.64 -5 16 C-9.68738665 15.09276387 -14.34193744 14.0452733 -19 13 C-18.34 11.68 -17.68 10.36 -17 9 C-15.3745692 9.14095064 -13.74965949 9.28792087 -12.125 9.4375 C-11.22007813 9.51871094 -10.31515625 9.59992187 -9.3828125 9.68359375 C-7 10 -7 10 -5 11 C-5.061875 9.8553125 -5.061875 9.8553125 -5.125 8.6875 C-5 6 -5 6 -3 3 C-4.65 3 -6.3 3 -8 3 C-5.22569089 1.15046059 -3.35957737 0 0 0 Z " fill="#CD750F" transform="translate(101,42)"/>
<path d="M0 0 C3.3 0 6.6 0 10 0 C8.38405168 2.04119788 6.7143618 4.04072937 5 6 C4.34 6 3.68 6 3 6 C3.63979849 8.03241727 3.63979849 8.03241727 5 10 C7.55519921 10.81171228 7.55519921 10.81171228 10 11 C10.33 12.98 10.66 14.96 11 17 C10.34 17 9.68 17 9 17 C9 16.01 9 15.02 9 14 C6.03 14 3.06 14 0 14 C0 9.38 0 4.76 0 0 Z " fill="#4DD3DA" transform="translate(83,91)"/>
<path d="M0 0 C0 0.66 0 1.32 0 2 C2.31 2.33 4.62 2.66 7 3 C6.67 3.66 6.34 4.32 6 5 C4.95199219 4.87431641 4.95199219 4.87431641 3.8828125 4.74609375 C2.97273438 4.64425781 2.06265625 4.54242188 1.125 4.4375 C0.22007813 4.33308594 -0.68484375 4.22867188 -1.6171875 4.12109375 C-4.01653057 3.80325148 -4.01653057 3.80325148 -6 5 C-6 4.34 -6 3.68 -6 3 C-10.89915908 4.39975974 -13.00163658 6.97588068 -16 11 C-16.5775 11.763125 -17.155 12.52625 -17.75 13.3125 C-19.51590809 17.1092024 -19.73812941 20.85522062 -20 25 C-22 23 -22 23 -22.3125 19.8125 C-21.84999864 14.16998342 -20.21133132 9.82848302 -16 6 C-15.67 5.01 -15.34 4.02 -15 3 C-12.890625 2.05078125 -12.890625 2.05078125 -10.25 1.3125 C-9.38890625 1.06113281 -8.5278125 0.80976562 -7.640625 0.55078125 C-5.01182147 0.00246572 -2.67647662 -0.10108994 0 0 Z " fill="#20D3CB" transform="translate(81,73)"/>
<path d="M0 0 C0 4.81217522 -2.81713948 7.57076743 -6 11 C-10.75990893 15.39930977 -15.25150164 16.27804079 -21.5534668 16.07397461 C-31.24350167 15.50433222 -31.24350167 15.50433222 -35 13 C-34.10539062 13.03480469 -33.21078125 13.06960937 -32.2890625 13.10546875 C-24.60716788 13.27745147 -18.18699699 12.78206335 -11 10 C-11 9.34 -11 8.68 -11 8 C-11.66 7.67 -12.32 7.34 -13 7 C-10.69 7.33 -8.38 7.66 -6 8 C-6.33 7.01 -6.66 6.02 -7 5 C-5.68 5 -4.36 5 -3 5 C-2.690625 4.360625 -2.38125 3.72125 -2.0625 3.0625 C-1 1 -1 1 0 0 Z " fill="#0A8595" transform="translate(109,115)"/>
<path d="M0 0 C2.625 0.9375 2.625 0.9375 5 2 C5.33 1.34 5.66 0.68 6 0 C6.268125 0.639375 6.53625 1.27875 6.8125 1.9375 C7.88667752 4.33131686 7.88667752 4.33131686 11 5 C11.66 5.33 12.32 5.66 13 6 C12.67 6.99 12.34 7.98 12 9 C11.01 9 10.02 9 9 9 C8.67 8.67 8.34 8.34 8 8 C8 8.33 8 8.66 8 9 C5.03 9 2.06 9 -1 9 C-3 5 -3 5 -2.75 2.8125 C-2 1 -2 1 0 0 Z " fill="#C3A12A" transform="translate(85,39)"/>
<path d="M0 0 C3.85500559 0.55071508 5.31393777 2.31393777 8 5 C10.1381966 5.7872678 10.1381966 5.7872678 12 6 C12.12375 6.639375 12.2475 7.27875 12.375 7.9375 C12.58125 8.618125 12.7875 9.29875 13 10 C13.66 10.33 14.32 10.66 15 11 C15 10.34 15 9.68 15 9 C15.99 9 16.98 9 18 9 C17.67 10.32 17.34 11.64 17 13 C18.32 13 19.64 13 21 13 C21.66 13.33 22.32 13.66 23 14 C22.34 14.66 21.68 15.32 21 16 C21.66 16.33 22.32 16.66 23 17 C23 17.66 23 18.32 23 19 C17.25791977 17.96642556 15.12653442 16.37463915 11.61328125 11.80078125 C9.82293864 9.80236008 8.07618778 8.69526874 5.75 7.375 C2.88520051 5.72938045 2.11296346 5.21180649 0.5 2.1875 C0.335 1.465625 0.17 0.74375 0 0 Z " fill="#3E503E" transform="translate(31,47)"/>
<path d="M0 0 C2.475 0.99 2.475 0.99 5 2 C5 3.98 5 5.96 5 8 C7.97 8.33 10.94 8.66 14 9 C14 9.33 14 9.66 14 10 C9.545 10.495 9.545 10.495 5 11 C5.103125 12.051875 5.20625 13.10375 5.3125 14.1875 C5 18 5 18 2.6875 20.9375 C0 23 0 23 -3 23 C-3 22.34 -3 21.68 -3 21 C-2.360625 20.71125 -1.72125 20.4225 -1.0625 20.125 C1.15206079 19.17176549 1.15206079 19.17176549 2 17 C2.23502905 14.85753682 2.23502905 14.85753682 2.25 12.5 C2.27578125 11.7059375 2.3015625 10.911875 2.328125 10.09375 C2.21984375 9.4028125 2.1115625 8.711875 2 8 C1.01 7.34 0.02 6.68 -1 6 C-0.67 4.02 -0.34 2.04 0 0 Z " fill="#8F5735" transform="translate(46,32)"/>
<path d="M0 0 C0.23976563 0.60070313 0.47953125 1.20140625 0.7265625 1.8203125 C2.2687009 4.45992362 3.75580581 5.3348094 6.375 6.875 C10.36261962 9.44122618 13.00616335 11.55918201 15 16 C14.75 19.875 14.75 19.875 14 23 C13 20 13 20 12.75 18.1875 C10.94652094 12.92735275 6.34413595 8.69874054 1.63671875 5.91015625 C-6.71711892 3.02653525 -16.73261265 4.56841548 -25 7 C-25.99 6.67 -26.98 6.34 -28 6 C-19.17773464 2.07899317 -10.45834243 2.7245143 -1 3 C-0.67 2.01 -0.34 1.02 0 0 Z " fill="#116163" transform="translate(97,58)"/>
<path d="M0 0 C3.3 0.33 6.6 0.66 10 1 C8.60624928 3.78750144 6.83755139 3.89266287 4 5 C1.46800028 7.53199972 0.88053503 9.54559335 0 13 C0.28639786 15.77747682 0.28639786 15.77747682 1 18 C-0.32 18.33 -1.64 18.66 -3 19 C-3.33 18.01 -3.66 17.02 -4 16 C-3.34 16 -2.68 16 -2 16 C-2 15.01 -2 14.02 -2 13 C-2.99 13 -3.98 13 -5 13 C-5 13.66 -5 14.32 -5 15 C-5.99 14.67 -6.98 14.34 -8 14 C-8 13.34 -8 12.68 -8 12 C-7.05125 11.690625 -6.1025 11.38125 -5.125 11.0625 C-1.60238644 8.73757505 -1.46162802 8.22496633 -0.625 4.3125 C-0.41875 2.889375 -0.2125 1.46625 0 0 Z " fill="#4F330E" transform="translate(51,43)"/>
<path d="M0 0 C2.4375 0.875 2.4375 0.875 4.4375 3.875 C4.1075 4.865 3.7775 5.855 3.4375 6.875 C1.9375 5.5 1.9375 5.5 0.4375 3.875 C0.4375 3.215 0.4375 2.555 0.4375 1.875 C-0.2225 1.875 -0.8825 1.875 -1.5625 1.875 C-1.5625 2.535 -1.5625 3.195 -1.5625 3.875 C-2.2225 3.875 -2.8825 3.875 -3.5625 3.875 C-3.294375 4.926875 -3.02625 5.97875 -2.75 7.0625 C-2.5625 10.875 -2.5625 10.875 -4.6875 13.8125 C-7.5625 15.875 -7.5625 15.875 -10.0625 16.5 C-13.60296644 15.61488339 -15.20419625 13.57020428 -17.5625 10.875 C-17.2325 10.215 -16.9025 9.555 -16.5625 8.875 C-16.005625 9.555625 -15.44875 10.23625 -14.875 10.9375 C-12.72996056 13.15597119 -12.72996056 13.15597119 -9.9375 12.875 C-7.4841812 12.07711302 -7.4841812 12.07711302 -6.25 10.125 C-5.42810028 7.85843535 -5.42810028 7.85843535 -5.625 5.3125 C-5.5625 2.875 -5.5625 2.875 -4.375 1 C-2.5625 -0.125 -2.5625 -0.125 0 0 Z " fill="#453D23" transform="translate(89.5625,21.125)"/>
<path d="M0 0 C0.66 0 1.32 0 2 0 C1.46274105 3.37705625 0.88935377 6.696686 0 10 C2.97 10.495 2.97 10.495 6 11 C5.01 11.495 5.01 11.495 4 12 C3.34444881 14.52733235 3.34444881 14.52733235 3 17 C1.35 16.67 -0.3 16.34 -2 16 C-2 17.98 -2 19.96 -2 22 C-2.33 22 -2.66 22 -3 22 C-3.0270043 20.54176788 -3.04639787 19.08339325 -3.0625 17.625 C-3.07410156 16.81289062 -3.08570313 16.00078125 -3.09765625 15.1640625 C-3 13 -3 13 -2 11 C-1.96984727 8.69116277 -2.06653176 6.40065744 -2.16015625 4.09375 C-2 2 -2 2 0 0 Z " fill="#28B9B9" transform="translate(50,79)"/>
<path d="M0 0 C0.66 0 1.32 0 2 0 C2.33 0.99 2.66 1.98 3 3 C5.00016466 4.20882096 5.00016466 4.20882096 7 5 C7.11039334 13.40215965 6.95458649 21.64736824 6 30 C5.67 30 5.34 30 5 30 C5 22.08 5 14.16 5 6 C2.36 6 -0.28 6 -3 6 C-3 5.01 -3 4.02 -3 3 C-2.34 3 -1.68 3 -1 3 C-0.67 2.01 -0.34 1.02 0 0 Z " fill="#0A7E8C" transform="translate(105,85)"/>
<path d="M0 0 C0.58007812 0.27457031 1.16015625 0.54914062 1.7578125 0.83203125 C2.1214323 5.07426227 1.2971353 7.4137121 -1.2421875 10.83203125 C-1.9021875 10.83203125 -2.5621875 10.83203125 -3.2421875 10.83203125 C-3.2421875 8.85203125 -3.2421875 6.87203125 -3.2421875 4.83203125 C-2.2521875 4.83203125 -1.2621875 4.83203125 -0.2421875 4.83203125 C-0.2421875 4.17203125 -0.2421875 3.51203125 -0.2421875 2.83203125 C-1.386875 2.64640625 -1.386875 2.64640625 -2.5546875 2.45703125 C-5.2421875 1.83203125 -5.2421875 1.83203125 -8.2421875 -0.16796875 C-8.2421875 1.15203125 -8.2421875 2.47203125 -8.2421875 3.83203125 C-9.5621875 3.83203125 -10.8821875 3.83203125 -12.2421875 3.83203125 C-12.5721875 5.15203125 -12.9021875 6.47203125 -13.2421875 7.83203125 C-13.6171875 5.64453125 -13.6171875 5.64453125 -13.2421875 2.83203125 C-8.79508412 -2.64132676 -6.35930984 -2.63397157 0 0 Z " fill="#2D4346" transform="translate(72.2421875,17.16796875)"/>
<path d="M0 0 C4.9201867 1.19277253 7.46641559 4.32496778 10.7421875 7.9296875 C12 10 12 10 11.85546875 12.1796875 C11 14 11 14 8.4375 15.25 C7.633125 15.4975 6.82875 15.745 6 16 C6 14.68 6 13.36 6 12 C5.46642164 8.82919525 4.37652061 6.85919088 2.4375 4.3125 C0 1.0878187 0 1.0878187 0 0 Z " fill="#72DEE7" transform="translate(99,65)"/>
<path d="M0 0 C2.96175123 0.61277612 4.38058783 1.25372522 7 3 C7 3.99 7 4.98 7 6 C3.7 6 0.4 6 -3 6 C-2.814375 6.825 -2.62875 7.65 -2.4375 8.5 C-1.9225916 12.61926719 -2.36507072 15.90823355 -3 20 C-5.93741265 15.59388103 -5.82194317 11.17105995 -5 6 C-2.5 4 -2.5 4 0 3 C0 2.01 0 1.02 0 0 Z " fill="#157A87" transform="translate(86,85)"/>
<path d="M0 0 C-0.33 0.99 -0.66 1.98 -1 3 C-1.99 3.33 -2.98 3.66 -4 4 C-5.20882096 6.00016466 -5.20882096 6.00016466 -6 8 C-6.66 8 -7.32 8 -8 8 C-8.66 9.65 -9.32 11.3 -10 13 C-11.65 13 -13.3 13 -15 13 C-14.01 10.03 -13.02 7.06 -12 4 C-10.68 4.33 -9.36 4.66 -8 5 C-8 4.34 -8 3.68 -8 3 C-5.09451118 0.95830515 -3.59857954 0 0 0 Z " fill="#0F969B" transform="translate(64,67)"/>
<path d="M0 0 C0.99 0 1.98 0 3 0 C6.0399274 6.20145191 6.0399274 6.20145191 5.875 9.5 C4.73766188 12.74953749 3.41570241 15.86083378 2 19 C0.4972763 18.02501855 -1.00211963 17.04490611 -2.5 16.0625 C-3.75296875 15.24458984 -3.75296875 15.24458984 -5.03125 14.41015625 C-5.6809375 13.94480469 -6.330625 13.47945312 -7 13 C-7 12.67 -7 12.34 -7 12 C-4.69 12.33 -2.38 12.66 0 13 C0 13.66 0 14.32 0 15 C0.66 15 1.32 15 2 15 C2.2165625 13.824375 2.2165625 13.824375 2.4375 12.625 C3 10 3 10 4 8 C3.34 7.4225 2.68 6.845 2 6.25 C0 4 0 4 0 0 Z " fill="#2FDBD4" transform="translate(96,64)"/>
<path d="M0 0 C2.97 0.495 2.97 0.495 6 1 C6.66 2.98 7.32 4.96 8 7 C13.08303686 7.11320856 13.08303686 7.11320856 18 6 C18 6.66 18 7.32 18 8 C18.66 8 19.32 8 20 8 C20 8.99 20 9.98 20 11 C15.71 10.34 11.42 9.68 7 9 C6.67 7.68 6.34 6.36 6 5 C4.68 4.67 3.36 4.34 2 4 C1.34 5.32 0.68 6.64 0 8 C0 5.36 0 2.72 0 0 Z " fill="#C5911A" transform="translate(76,40)"/>
<path d="M0 0 C0.33 0.66 0.66 1.32 1 2 C2.60875 1.690625 2.60875 1.690625 4.25 1.375 C7.87619096 1.0123809 9.08291076 1.01637931 12 3 C12 3.66 12 4.32 12 5 C16.29 5.33 20.58 5.66 25 6 C25 6.33 25 6.66 25 7 C16.27208308 7.34078634 6.26028647 7.50780353 -1 2 C-0.67 1.34 -0.34 0.68 0 0 Z " fill="#27979E" transform="translate(63,122)"/>
<path d="M0 0 C0.75410156 0.00451172 1.50820312 0.00902344 2.28515625 0.01367188 C4.14847127 0.02546501 6.01174555 0.04340058 7.875 0.0625 C5.44061863 2.49688137 4.65602886 2.3273295 1.3125 2.5 C-3.19365345 2.85265549 -7.00009059 3.84270678 -11.21484375 5.44140625 C-13.125 6.0625 -13.125 6.0625 -16.125 6.0625 C-16.125 5.4025 -16.125 4.7425 -16.125 4.0625 C-14.145 3.7325 -12.165 3.4025 -10.125 3.0625 C-10.125 2.4025 -10.125 1.7425 -10.125 1.0625 C-6.93675432 -0.53162284 -3.49603338 -0.03924735 0 0 Z " fill="#16C6C7" transform="translate(90.125,62.9375)"/>
<path d="M0 0 C1.4783226 2.95664519 1.06032783 5.74229737 1 9 C-0.98 9 -2.96 9 -5 9 C-5.75 6.75 -5.75 6.75 -6 4 C-2.86486486 0 -2.86486486 0 0 0 Z " fill="#745C26" transform="translate(58,46)"/>
<path d="M0 0 C1.32 0 2.64 0 4 0 C5.55944339 3.11888678 5.28316275 5.5454145 5 9 C3.87302723 11.53937969 2.52802548 13.66021098 1 16 C-5.625 16.125 -5.625 16.125 -9 15 C-8.67 13.68 -8.34 12.36 -8 11 C-8 11.66 -8 12.32 -8 13 C-5.36 13 -2.72 13 0 13 C2.33106329 8.5297422 2.33106329 8.5297422 2.8125 3.6875 C2.01622257 1.79598895 2.01622257 1.79598895 0 0 Z " fill="#382B22" transform="translate(60,25)"/>
<path d="M0 0 C1.4540625 0.0309375 1.4540625 0.0309375 2.9375 0.0625 C2.9375 0.7225 2.9375 1.3825 2.9375 2.0625 C-2.78705159 5.87886773 -8.35999495 5.35532789 -15.0625 5.0625 C-11.43562405 2.06812559 -8.73396782 1.59134541 -4.0625 1.0625 C-3.0625 0.0625 -3.0625 0.0625 0 0 Z " fill="#34BEC1" transform="translate(95.0625,122.9375)"/>
<path d="M0 0 C2.64 0 5.28 0 8 0 C8 2.31 8 4.62 8 7 C5.03 6.01 2.06 5.02 -1 4 C-0.67 2.68 -0.34 1.36 0 0 Z " fill="#AFA13E" transform="translate(68,41)"/>
<path d="M0 0 C1.2870655 3.57887246 0.7233248 5.58526266 -0.6875 9.0625 C-1.18830078 10.34833984 -1.18830078 10.34833984 -1.69921875 11.66015625 C-3.13161427 14.23674758 -4.54123418 15.42121352 -7 17 C-6.67 15.35 -6.34 13.7 -6 12 C-5.34 12 -4.68 12 -4 12 C-4.20625 11.46375 -4.4125 10.9275 -4.625 10.375 C-5.14375462 7.08955409 -4.31320703 5.02037618 -3 2 C-2.01 1.34 -1.02 0.68 0 0 Z " fill="#4D3C27" transform="translate(103,42)"/>
<path d="M0 0 C-0.25 2.375 -0.25 2.375 -1 5 C-2.875 6.125 -2.875 6.125 -5 7 C-5.7425 7.8353125 -5.7425 7.8353125 -6.5 8.6875 C-6.995 9.120625 -7.49 9.55375 -8 10 C-10.1875 9.6875 -10.1875 9.6875 -12 9 C-10.6875 7.5 -10.6875 7.5 -9 6 C-8.01 6 -7.02 6 -6 6 C-6.33 4.35 -6.66 2.7 -7 1 C-2.25 0 -2.25 0 0 0 Z " fill="#23A5AD" transform="translate(110,79)"/>
<path d="M0 0 C0.66 0 1.32 0 2 0 C3.0070238 5.03511899 2.97387813 8.23947038 1 13 C-0.5 11.875 -0.5 11.875 -2 10 C-2.42098999 6.04269405 -2.09065618 3.39731629 0 0 Z " fill="#09C3BB" transform="translate(54,92)"/>
<path d="M0 0 C0 0.66 0 1.32 0 2 C-1.42578125 3.11328125 -1.42578125 3.11328125 -3.3125 4.3125 C-8.14910722 7.63766746 -9.98389341 11.57202071 -12 17 C-12.33 17 -12.66 17 -13 17 C-12.56744475 11.59305933 -11.41778487 8.24633878 -8 4 C-7.34 4 -6.68 4 -6 4 C-5.67 3.01 -5.34 2.02 -5 1 C-3 0 -3 0 0 0 Z " fill="#54D4DA" transform="translate(75,76)"/>
<path d="M0 0 C0 0.33 0 0.66 0 1 C-1.28970703 1.05607422 -1.28970703 1.05607422 -2.60546875 1.11328125 C-11.03980558 1.5823665 -18.82623842 2.93126254 -27 5 C-28.66445364 5.34421354 -30.33045284 5.68140751 -32 6 C-25.24073272 -2.23569426 -9.6981194 -0.33613508 0 0 Z " fill="#1A979E" transform="translate(96,62)"/>
<path d="M0 0 C0.66 0 1.32 0 2 0 C1.67 1.65 1.34 3.3 1 5 C0.34 5 -0.32 5 -1 5 C-1.04898438 5.62648438 -1.09796875 6.25296875 -1.1484375 6.8984375 C-1.22320312 7.71570313 -1.29796875 8.53296875 -1.375 9.375 C-1.44460937 10.18710938 -1.51421875 10.99921875 -1.5859375 11.8359375 C-2 14 -2 14 -4 16 C-4 15.34 -4 14.68 -4 14 C-4.66 14 -5.32 14 -6 14 C-5.51421457 10.87709365 -5.0013988 8.00419641 -4 5 C-3.34 5 -2.68 5 -2 5 C-1.34 3.35 -0.68 1.7 0 0 Z " fill="#11BAB4" transform="translate(56,75)"/>
<path d="M0 0 C0.66 0.33 1.32 0.66 2 1 C1.95875 1.928125 1.9175 2.85625 1.875 3.8125 C1.72863661 7.15809719 1.72863661 7.15809719 4 10 C7.08365871 10.2502157 7.08365871 10.2502157 10 10 C10.33 9.01 10.66 8.02 11 7 C11.33 8.32 11.66 9.64 12 11 C8.86501708 12.85776765 6.62528568 13.20140476 3 13 C-1.06153846 6.84615385 -1.06153846 6.84615385 -0.75 2.5625 C-0.5025 1.716875 -0.255 0.87125 0 0 Z " fill="#393820" transform="translate(91,28)"/>
<path d="M0 0 C-0.33 0.33 -0.66 0.66 -1 1 C-0.34 1.66 0.32 2.32 1 3 C-0.65 3 -2.3 3 -4 3 C-4 3.66 -4 4.32 -4 5 C-6.31 5.66 -8.62 6.32 -11 7 C-10.67 5.35 -10.34 3.7 -10 2 C-9.01 2 -8.02 2 -7 2 C-7 1.34 -7 0.68 -7 0 C-2.25 -1.125 -2.25 -1.125 0 0 Z " fill="#11D8CF" transform="translate(79,69)"/>
<path d="M0 0 C5.22588808 0.31672049 8.5609835 3.30110819 12 7 C14.44063309 10.8972649 13.85833206 13.53667326 13 18 C12 15 12 15 11.75 13.1875 C9.73983428 7.32451664 5.00115662 4.14026114 0 1 C0 0.67 0 0.34 0 0 Z " fill="#0A6C8A" transform="translate(98,63)"/>
<path d="M0 0 C2.64 0 5.28 0 8 0 C8.3125 3.25 8.3125 3.25 8 7 C5.28086874 10.1190035 3.82626618 10.93764029 -0.3125 11.25 C-1.199375 11.1675 -2.08625 11.085 -3 11 C1.5 7 1.5 7 6 7 C5.67 5.02 5.34 3.04 5 1 C3.35 1 1.7 1 0 1 C0 0.67 0 0.34 0 0 Z " fill="#28D8D2" transform="translate(88,101)"/>
<path d="M0 0 C3.3 0.33 6.6 0.66 10 1 C9 3 9 3 6.6875 3.875 C3.71091157 5.12101376 2.13992716 6.62230316 0 9 C0 6.03 0 3.06 0 0 Z " fill="#6D2E06" transform="translate(51,43)"/>
<path d="M0 0 C-2.22949696 2.22949696 -3.81448879 2.79864589 -6.75 3.875 C-10.96955316 5.49696697 -14.31453829 7.4201768 -18 10 C-18.66 10 -19.32 10 -20 10 C-20 9.34 -20 8.68 -20 8 C-13.25 4 -13.25 4 -11 4 C-11 3.34 -11 2.68 -11 2 C-7.17010894 0.19769832 -4.21878192 -0.19622241 0 0 Z " fill="#856D47" transform="translate(74,59)"/>
<path d="M0 0 C-0.55312735 4.02992782 -1.1558062 8.02022924 -2 12 C-2.99 12 -3.98 12 -5 12 C-5.25 6.375 -5.25 6.375 -3 3 C-4.65 3 -6.3 3 -8 3 C-5.22569089 1.15046059 -3.35957737 0 0 0 Z " fill="#B1792D" transform="translate(101,42)"/>
<path d="M0 0 C0.66 0 1.32 0 2 0 C2 0.66 2 1.32 2 2 C2.99 2.33 3.98 2.66 5 3 C5 3.66 5 4.32 5 5 C4.34 5 3.68 5 3 5 C2.67 6.65 2.34 8.3 2 10 C1.01 9.67 0.02 9.34 -1 9 C-1.33 6.69 -1.66 4.38 -2 2 C-1.34 2 -0.68 2 0 2 C0 1.34 0 0.68 0 0 Z " fill="#B1AA6E" transform="translate(88,23)"/>
<path d="M0 0 C-0.33 0.99 -0.66 1.98 -1 3 C-3.77170395 2.88613541 -6.54178046 2.75939222 -9.3125 2.625 C-10.09818359 2.5940625 -10.88386719 2.563125 -11.69335938 2.53125 C-12.45068359 2.49257812 -13.20800781 2.45390625 -13.98828125 2.4140625 C-14.68477783 2.3826416 -15.38127441 2.3512207 -16.09887695 2.31884766 C-18 2 -18 2 -21 0 C-20.03578125 0.01160156 -19.0715625 0.02320313 -18.078125 0.03515625 C-16.18320313 0.04869141 -16.18320313 0.04869141 -14.25 0.0625 C-12.37054688 0.07990234 -12.37054688 0.07990234 -10.453125 0.09765625 C-7.16949054 0.128637 -7.16949054 0.128637 -4.734375 -0.56640625 C-3 -1 -3 -1 0 0 Z " fill="#065E6E" transform="translate(95,128)"/>
<path d="M0 0 C0 0.99 0 1.98 0 3 C-4.91704669 4.26438344 -8.24964998 3.58345001 -13 2 C-8.3683343 -1.61848883 -5.49434694 -1.02436977 0 0 Z " fill="#046D83" transform="translate(85,77)"/>
<path d="M0 0 C0.90492187 0.02320313 1.80984375 0.04640625 2.7421875 0.0703125 C4.10730469 0.09738281 4.10730469 0.09738281 5.5 0.125 C6.19867188 0.14820313 6.89734375 0.17140625 7.6171875 0.1953125 C7.6171875 1.86197917 7.6171875 3.52864583 7.6171875 5.1953125 C5.3071875 5.1953125 2.9971875 5.1953125 0.6171875 5.1953125 C0.6171875 4.5353125 0.6171875 3.8753125 0.6171875 3.1953125 C-1.0328125 2.8653125 -2.6828125 2.5353125 -4.3828125 2.1953125 C-2.3828125 0.1953125 -2.3828125 0.1953125 0 0 Z " fill="#CC6707" transform="translate(76.3828125,50.8046875)"/>
<path d="M0 0 C0.70576172 0.52400391 0.70576172 0.52400391 1.42578125 1.05859375 C2.35970703 1.74115234 2.35970703 1.74115234 3.3125 2.4375 C4.23482422 3.11619141 4.23482422 3.11619141 5.17578125 3.80859375 C7.09677101 5.17336308 7.09677101 5.17336308 10 6 C9.67 7.32 9.34 8.64 9 10 C5.55261628 8.46782946 2.74690118 6.59429556 0 4 C0 2.68 0 1.36 0 0 Z " fill="#2CACAF" transform="translate(54,113)"/>
<path d="M0 0 C0.51949219 0.33773437 1.03898437 0.67546875 1.57421875 1.0234375 C5.28848007 3.39891701 8.80400915 5.55762815 13 7 C13 7.33 13 7.66 13 8 C9.7 7.67 6.4 7.34 3 7 C3 6.34 3 5.68 3 5 C2.01 4.67 1.02 4.34 0 4 C-0.33 3.01 -0.66 2.02 -1 1 C-0.67 0.67 -0.34 0.34 0 0 Z " fill="#3ACFCC" transform="translate(67,105)"/>
<path d="M0 0 C-0.33 0.99 -0.66 1.98 -1 3 C-2.85625 2.938125 -2.85625 2.938125 -4.75 2.875 C-8.01426921 2.88076726 -10.28683393 3.01730171 -13 5 C-13.66 5.99 -14.32 6.98 -15 8 C-15.33 6.68 -15.66 5.36 -16 4 C-10.45834744 0.22695996 -6.65545792 -0.54330269 0 0 Z " fill="#25D8CD" transform="translate(102,93)"/>
<path d="M0 0 C3.3 0 6.6 0 10 0 C7.97082548 3.04376178 7.27417715 3.74810874 4 5 C2.68 5 1.36 5 0 5 C0 3.35 0 1.7 0 0 Z " fill="#6ADEDC" transform="translate(83,91)"/>
<path d="M0 0 C1.70840281 1.63412443 2.93453047 2.86906094 4 5 C6.01669827 6.13350534 6.01669827 6.13350534 8 7 C4.93109813 8.53445094 2.29905734 7.54984289 -1 7 C-1 6.34 -1 5.68 -1 5 C-1.66 5 -2.32 5 -3 5 C-2.625 3.0625 -2.625 3.0625 -2 1 C-1.34 0.67 -0.68 0.34 0 0 Z " fill="#149099" transform="translate(94,83)"/>
<path d="M0 0 C3.85500559 0.55071508 5.31393777 2.31393777 8 5 C10.1381966 5.7872678 10.1381966 5.7872678 12 6 C12 6.66 12 7.32 12 8 C7.6305794 7.74297526 5.48177009 7.39976667 2.0625 4.5625 C0 2 0 2 0 0 Z " fill="#41504D" transform="translate(31,47)"/>
<path d="M0 0 C0.33 0.66 0.66 1.32 1 2 C-0.14453125 4.56640625 -0.14453125 4.56640625 -1.8125 7.5625 C-2.35519531 8.55378906 -2.89789063 9.54507813 -3.45703125 10.56640625 C-5 13 -5 13 -7 14 C-7 13.01 -7 12.02 -7 11 C-7.66 10.67 -8.32 10.34 -9 10 C-8.01 9.67 -7.02 9.34 -6 9 C-5.32558869 7.3364521 -4.6599679 5.66933058 -4 4 C-1.875 1.6875 -1.875 1.6875 0 0 Z " fill="#907645" transform="translate(108,30)"/>
<path d="M0 0 C2.64 0 5.28 0 8 0 C8 3.3 8 6.6 8 10 C7.34 9.01 6.68 8.02 6 7 C5.29875 6.319375 4.5975 5.63875 3.875 4.9375 C2 3 2 3 2 1 C1.34 0.67 0.68 0.34 0 0 Z " fill="#68E3E9" transform="translate(102,91)"/>
<path d="M0 0 C0.66 0 1.32 0 2 0 C1.46274105 3.37705625 0.88935377 6.696686 0 10 C0.66 10 1.32 10 2 10 C2 10.99 2 11.98 2 13 C0.68 12.67 -0.64 12.34 -2 12 C-2.05395478 10.37536158 -2.09277195 8.75021459 -2.125 7.125 C-2.14820313 6.22007813 -2.17140625 5.31515625 -2.1953125 4.3828125 C-2 2 -2 2 0 0 Z " fill="#1FA4A8" transform="translate(50,79)"/>
<path d="M0 0 C0 0.66 0 1.32 0 2 C-0.99 2 -1.98 2 -3 2 C-3 2.66 -3 3.32 -3 4 C-1.68 4.33 -0.36 4.66 1 5 C-0.8125 6.5625 -0.8125 6.5625 -3 8 C-3.99 7.67 -4.98 7.34 -6 7 C-5.67 6.34 -5.34 5.68 -5 5 C-5.99 4.67 -6.98 4.34 -8 4 C-3.375 0 -3.375 0 0 0 Z " fill="#552A0B" transform="translate(59,59)"/>
<path d="M0 0 C1.67542976 0.28604898 3.34385343 0.61781233 5 1 C4.360625 1.268125 3.72125 1.53625 3.0625 1.8125 C0.66868314 2.88667752 0.66868314 2.88667752 0 6 C0.78375 6.144375 1.5675 6.28875 2.375 6.4375 C5 7 5 7 7 8 C7 8.66 7 9.32 7 10 C4.125 10.125 4.125 10.125 1 10 C-1 8 -1 8 -1.1875 4.4375 C-1 1 -1 1 0 0 Z " fill="#9D822E" transform="translate(67,39)"/>
<path d="M0 0 C0 0.66 0 1.32 0 2 C2.31 2.33 4.62 2.66 7 3 C6.67 3.66 6.34 4.32 6 5 C5.30132812 4.91621094 4.60265625 4.83242187 3.8828125 4.74609375 C2.97273438 4.64425781 2.06265625 4.54242188 1.125 4.4375 C0.22007813 4.33308594 -0.68484375 4.22867188 -1.6171875 4.12109375 C-4.01653057 3.80325148 -4.01653057 3.80325148 -6 5 C-6 4.34 -6 3.68 -6 3 C-6.66 2.67 -7.32 2.34 -8 2 C-4.77208445 -0.1519437 -3.71599191 -0.20086443 0 0 Z " fill="#3DC5CB" transform="translate(81,73)"/>
<path d="M0 0 C0 0.99 0 1.98 0 3 C-0.33 3.33 -0.66 3.66 -1 4 C-1.28221172 6.58022142 -1.44820197 9.16030185 -1.62109375 11.75 C-1.74613281 12.4925 -1.87117188 13.235 -2 14 C-2.99 14.495 -2.99 14.495 -4 15 C-4.38909985 13.54536519 -4.76088029 12.08608793 -5.125 10.625 C-5.33382812 9.81289063 -5.54265625 9.00078125 -5.7578125 8.1640625 C-5.83773437 7.44992188 -5.91765625 6.73578125 -6 6 C-4 4 -2 2 0 0 Z " fill="#A34E09" transform="translate(64,40)"/>
<path d="M0 0 C0.66 0.66 1.32 1.32 2 2 C-1.625 6.875 -1.625 6.875 -5 8 C-5 8.66 -5 9.32 -5 10 C-7.97 9.505 -7.97 9.505 -11 9 C-9.68 8.67 -8.36 8.34 -7 8 C-7.33 7.01 -7.66 6.02 -8 5 C-6.865625 4.54625 -5.73125 4.0925 -4.5625 3.625 C-0.95278308 2.42904194 -0.95278308 2.42904194 0 0 Z " fill="#23C2C3" transform="translate(108,113)"/>
<path d="M0 0 C6.93 0 13.86 0 21 0 C21 0.99 21 1.98 21 3 C14.07 2.34 7.14 1.68 0 1 C0 0.67 0 0.34 0 0 Z " fill="#987946" transform="translate(75,58)"/>
<path d="M0 0 C2.4375 0.875 2.4375 0.875 4.4375 3.875 C4.1075 4.865 3.7775 5.855 3.4375 6.875 C1.9375 5.5 1.9375 5.5 0.4375 3.875 C0.4375 3.215 0.4375 2.555 0.4375 1.875 C-0.2225 1.875 -0.8825 1.875 -1.5625 1.875 C-1.5625 2.535 -1.5625 3.195 -1.5625 3.875 C-2.5525 4.37 -2.5525 4.37 -3.5625 4.875 C-4.2225 5.865 -4.8825 6.855 -5.5625 7.875 C-5.78982116 5.07137237 -5.90331872 3.41313483 -4.375 1 C-2.5625 -0.125 -2.5625 -0.125 0 0 Z " fill="#1D394A" transform="translate(89.5625,21.125)"/>
<path d="M0 0 C3.63 0.33 7.26 0.66 11 1 C10.01 1.33 9.02 1.66 8 2 C8 2.66 8 3.32 8 4 C6.35 3.67 4.7 3.34 3 3 C3 3.66 3 4.32 3 5 C1.35 4.67 -0.3 4.34 -2 4 C-1.01 3.34 -0.02 2.68 1 2 C0.67 1.34 0.34 0.68 0 0 Z " fill="#DA7213" transform="translate(69,52)"/>
<path d="M0 0 C0.66 0.33 1.32 0.66 2 1 C1.67 2.32 1.34 3.64 1 5 C1.99 5.33 2.98 5.66 4 6 C3.01 6.33 2.02 6.66 1 7 C0.67 10.63 0.34 14.26 0 18 C-2.25676604 14.61485094 -2.17329248 13.97622233 -1.6875 10.125 C-1.57921875 9.24328125 -1.4709375 8.3615625 -1.359375 7.453125 C-0.99210268 4.94609222 -0.57591762 2.46821837 0 0 Z " fill="#126A76" transform="translate(47,85)"/>
<path d="M0 0 C-0.99 0.66 -1.98 1.32 -3 2 C-2.67 2.66 -2.34 3.32 -2 4 C-3.65 4.33 -5.3 4.66 -7 5 C-7.33 4.34 -7.66 3.68 -8 3 C-8.99 2.34 -9.98 1.68 -11 1 C-9.66666667 0.66666667 -8.33333333 0.33333333 -7 0 C-6.319375 -0.20625 -5.63875 -0.4125 -4.9375 -0.625 C-3 -1 -3 -1 0 0 Z " fill="#C7590A" transform="translate(71,54)"/>
<path d="M0 0 C2.97 0.495 2.97 0.495 6 1 C6 2.32 6 3.64 6 5 C4.68 4.67 3.36 4.34 2 4 C1.34 5.32 0.68 6.64 0 8 C0 5.36 0 2.72 0 0 Z " fill="#D49317" transform="translate(76,40)"/>
<path d="M0 0 C1.32 0.33 2.64 0.66 4 1 C4.33 2.32 4.66 3.64 5 5 C2.69 5.33 0.38 5.66 -2 6 C-1.34 4.02 -0.68 2.04 0 0 Z " fill="#DB860D" transform="translate(78,44)"/>
<path d="M0 0 C0.99 0.33 1.98 0.66 3 1 C3.6875 3.0625 3.6875 3.0625 4 5 C3.34 5 2.68 5 2 5 C1.34 6.65 0.68 8.3 0 10 C-0.66 10 -1.32 10 -2 10 C-1.34 6.7 -0.68 3.4 0 0 Z " fill="#9F4D07" transform="translate(67,30)"/>
<path d="M0 0 C0.66 0 1.32 0 2 0 C3.13016601 5.02296004 2.77916092 8.97874074 2 14 C-0.28062828 10.57905758 -0.21925007 9.31812778 -0.125 5.3125 C-0.10695313 4.31863281 -0.08890625 3.32476562 -0.0703125 2.30078125 C-0.04710938 1.54152344 -0.02390625 0.78226562 0 0 Z " fill="#168496" transform="translate(81,91)"/>
<path d="M0 0 C2.64 0 5.28 0 8 0 C8 3 8 3 6.4375 4.6875 C3.19368832 6.43416783 0.62656715 6.20922503 -3 6 C-3 5.67 -3 5.34 -3 5 C-1.865625 4.71125 -0.73125 4.4225 0.4375 4.125 C1.613125 3.75375 2.78875 3.3825 4 3 C4.33 2.34 4.66 1.68 5 1 C3.35 1 1.7 1 0 1 C0 0.67 0 0.34 0 0 Z " fill="#026A83" transform="translate(84,105)"/>
<path d="M0 0 C1.45823212 -0.0270043 2.91660675 -0.04639787 4.375 -0.0625 C5.18710938 -0.07410156 5.99921875 -0.08570312 6.8359375 -0.09765625 C9 0 9 0 11 1 C11 1.66 11 2.32 11 3 C11.66 3.33 12.32 3.66 13 4 C10.69 3.67 8.38 3.34 6 3 C6 2.34 6 1.68 6 1 C4.02 1.33 2.04 1.66 0 2 C0 1.34 0 0.68 0 0 Z " fill="#2FDAD8" transform="translate(75,72)"/>
<path d="M0 0 C2.625 0.9375 2.625 0.9375 5 2 C4.34 3.65 3.68 5.3 3 7 C2.01 6.67 1.02 6.34 0 6 C-1.1875 3.4375 -1.1875 3.4375 -2 1 C-1.34 0.67 -0.68 0.34 0 0 Z " fill="#763B12" transform="translate(52,54)"/>
<path d="M0 0 C1.48901182 4.46703546 -0.06526815 8.06595482 -2.07421875 12.22265625 C-2.37972656 12.80917969 -2.68523438 13.39570312 -3 14 C-3.08153933 12.41753293 -3.13943557 10.83383727 -3.1875 9.25 C-3.22230469 8.36828125 -3.25710937 7.4865625 -3.29296875 6.578125 C-2.94923684 3.55328417 -1.99772541 2.24416398 0 0 Z " fill="#C96612" transform="translate(65,40)"/>
<path d="M0 0 C0.99 0.33 1.98 0.66 3 1 C3.6875 3.0625 3.6875 3.0625 4 5 C1.69 5 -0.62 5 -3 5 C-2.625 3.0625 -2.625 3.0625 -2 1 C-1.34 0.67 -0.68 0.34 0 0 Z " fill="#C0B640" transform="translate(85,39)"/>
<path d="M0 0 C0.33 1.98 0.66 3.96 1 6 C-1.64 5.34 -4.28 4.68 -7 4 C-2.25 0 -2.25 0 0 0 Z " fill="#BB8E19" transform="translate(89,35)"/>
<path d="M0 0 C1.65 0.33 3.3 0.66 5 1 C4.67 2.32 4.34 3.64 4 5 C2.35 4.67 0.7 4.34 -1 4 C-0.67 2.68 -0.34 1.36 0 0 Z " fill="#AD5F10" transform="translate(92,53)"/>
<path d="M0 0 C5.445 1.485 5.445 1.485 11 3 C10.67 3.66 10.34 4.32 10 5 C7.25 5.3125 7.25 5.3125 4 5 C1.625 2.5 1.625 2.5 0 0 Z " fill="#213138" transform="translate(34,47)"/>
<path d="M0 0 C2.97 0.495 2.97 0.495 6 1 C5.67 2.32 5.34 3.64 5 5 C3.35 4.67 1.7 4.34 0 4 C0 2.68 0 1.36 0 0 Z " fill="#95A439" transform="translate(83,43)"/>
<path d="M0 0 C0.33 0 0.66 0 1 0 C1.25 2.3125 1.25 2.3125 1 5 C-0.6875 6.875 -0.6875 6.875 -3 8 C-5.75 7.6875 -5.75 7.6875 -8 7 C-8 6.67 -8 6.34 -8 6 C-7.05125 5.7525 -6.1025 5.505 -5.125 5.25 C-1.91306809 4.3142923 -1.91306809 4.3142923 -0.625 1.875 C-0.41875 1.25625 -0.2125 0.6375 0 0 Z " fill="#A36338" transform="translate(63,36)"/>
<path d="M0 0 C2.475 0.99 2.475 0.99 5 2 C5 2.99 5 3.98 5 5 C3.02 5.33 1.04 5.66 -1 6 C-0.67 4.02 -0.34 2.04 0 0 Z " fill="#8A7648" transform="translate(46,32)"/>
<path d="M0 0 C0 2.31 0 4.62 0 7 C-0.99 6.34 -1.98 5.68 -3 5 C-3 4.34 -3 3.68 -3 3 C-3.66 3 -4.32 3 -5 3 C-5 2.34 -5 1.68 -5 1 C-3 0 -3 0 0 0 Z " fill="#08C1B2" transform="translate(64,112)"/>
<path d="M0 0 C0.99 0.66 1.98 1.32 3 2 C1.6875 4.9375 1.6875 4.9375 0 8 C-0.99 8.33 -1.98 8.66 -3 9 C-2.01 6.03 -1.02 3.06 0 0 Z " fill="#0C6D7F" transform="translate(52,71)"/>
<path d="M0 0 C-1.4096347 0.70180531 -2.82807641 1.38593958 -4.25 2.0625 C-5.03890625 2.44535156 -5.8278125 2.82820313 -6.640625 3.22265625 C-9.25993522 4.08564091 -10.44855176 3.93045933 -13 3 C-11.5903653 2.29819469 -10.17192359 1.61406042 -8.75 0.9375 C-7.96109375 0.55464844 -7.1721875 0.17179687 -6.359375 -0.22265625 C-3.74006478 -1.08564091 -2.55144824 -0.93045933 0 0 Z " fill="#16A5AE" transform="translate(73,67)"/>
<path d="M0 0 C0.66 0 1.32 0 2 0 C2.625 2.375 2.625 2.375 3 5 C2.34 5.66 1.68 6.32 1 7 C-1.125 6.625 -1.125 6.625 -3 6 C-3 5.34 -3 4.68 -3 4 C-2.01 4 -1.02 4 0 4 C-0.33 3.01 -0.66 2.02 -1 1 C-0.67 0.67 -0.34 0.34 0 0 Z " fill="#80390C" transform="translate(59,57)"/>
<path d="M0 0 C0.66 0 1.32 0 2 0 C2.268125 0.7425 2.53625 1.485 2.8125 2.25 C3.94229421 4.86636554 5.20893202 6.80187111 7 9 C5.0625 8.6875 5.0625 8.6875 3 8 C2.67 7.01 2.34 6.02 2 5 C1.34 5 0.68 5 0 5 C0 3.35 0 1.7 0 0 Z " fill="#AB8859" transform="translate(70,28)"/>
<path d="M0 0 C1.98 0 3.96 0 6 0 C6 0.66 6 1.32 6 2 C3.35261084 3.4606285 2.10551666 4 -1 4 C-0.67 2.68 -0.34 1.36 0 0 Z " fill="#3FD5D7" transform="translate(92,123)"/>
<path d="M0 0 C0.99 0 1.98 0 3 0 C4.75 2.25 4.75 2.25 6 5 C5.578125 7.171875 5.578125 7.171875 5 9 C4.16094435 7.87926138 3.32892169 6.75325453 2.5 5.625 C2.0359375 4.99851562 1.571875 4.37203125 1.09375 3.7265625 C0 2 0 2 0 0 Z " fill="#238E9A" transform="translate(48,107)"/>
<path d="M0 0 C0.99 0.33 1.98 0.66 3 1 C1.515 6.445 1.515 6.445 0 12 C-0.33 12 -0.66 12 -1 12 C-0.67 8.04 -0.34 4.08 0 0 Z " fill="#269EA3" transform="translate(48,95)"/>
<path d="M0 0 C0.66 0.33 1.32 0.66 2 1 C1.34 1.66 0.68 2.32 0 3 C0.66 3.33 1.32 3.66 2 4 C2 4.66 2 5.32 2 6 C-0.97 5.505 -0.97 5.505 -4 5 C-3.6875 3.0625 -3.6875 3.0625 -3 1 C-2.01 0.67 -1.02 0.34 0 0 Z " fill="#58553B" transform="translate(52,60)"/>
<path d="M0 0 C0.78375 0.04125 1.5675 0.0825 2.375 0.125 C2.375 0.785 2.375 1.445 2.375 2.125 C1.4778125 2.2796875 1.4778125 2.2796875 0.5625 2.4375 C-1.92361534 3.21885053 -2.85443442 4.27395416 -4.625 6.125 C-5.285 6.125 -5.945 6.125 -6.625 6.125 C-3.85227273 0.18344156 -3.85227273 0.18344156 0 0 Z " fill="#264454" transform="translate(108.625,28.875)"/>
<path d="M0 0 C1.65 0.33 3.3 0.66 5 1 C5 1.66 5 2.32 5 3 C2.69 3.66 0.38 4.32 -2 5 C-2.33 4.34 -2.66 3.68 -3 3 C-2.01 3 -1.02 3 0 3 C0 2.01 0 1.02 0 0 Z " fill="#20D8D0" transform="translate(96,118)"/>
<path d="M0 0 C1.65 0 3.3 0 5 0 C5 1.32 5 2.64 5 4 C3.35 4 1.7 4 0 4 C0 2.68 0 1.36 0 0 Z " fill="#788B4E" transform="translate(53,49)"/>
<path d="M0 0 C1.65 0 3.3 0 5 0 C5 1.65 5 3.3 5 5 C3.68 4.67 2.36 4.34 1 4 C0.67 2.68 0.34 1.36 0 0 Z " fill="#85BC65" transform="translate(69,42)"/>
<path d="M0 0 C0.66 0.33 1.32 0.66 2 1 C1.67 2.32 1.34 3.64 1 5 C-0.32 5 -1.64 5 -3 5 C-3.33 6.32 -3.66 7.64 -4 9 C-4.25 6.75 -4.25 6.75 -4 4 C-2 1.6875 -2 1.6875 0 0 Z " fill="#202E38" transform="translate(63,16)"/>
<path d="M0 0 C0.86625 0.4640625 0.86625 0.4640625 1.75 0.9375 C3.84294184 1.92583364 5.74535275 2.5168613 8 3 C8 3.66 8 4.32 8 5 C5.36 4.67 2.72 4.34 0 4 C0 2.68 0 1.36 0 0 Z " fill="#BFAA76" transform="translate(64,17)"/>
<path d="M0 0 C-1.625 2 -1.625 2 -4 4 C-7.25 4.25 -7.25 4.25 -10 4 C-6.58908673 0.88145073 -4.68377325 -0.53528837 0 0 Z " fill="#39CECE" transform="translate(95,108)"/>
<path d="M0 0 C1 3 1 3 0.0625 5.1875 C-0.4634375 6.0846875 -0.4634375 6.0846875 -1 7 C-1.66 7 -2.32 7 -3 7 C-3 5.02 -3 3.04 -3 1 C-2.01 0.67 -1.02 0.34 0 0 Z " fill="#645C33" transform="translate(72,21)"/>
<path d="M0 0 C-0.33 1.32 -0.66 2.64 -1 4 C-3.31 4 -5.62 4 -8 4 C-6.27302455 0.54604909 -3.70696841 0 0 0 Z " fill="#06596E" transform="translate(80,76)"/>
<path d="M0 0 C1.32 0.33 2.64 0.66 4 1 C4.33 2.32 4.66 3.64 5 5 C4.34 5 3.68 5 3 5 C3 5.66 3 6.32 3 7 C2.34 6.67 1.68 6.34 1 6 C0.375 2.9375 0.375 2.9375 0 0 Z " fill="#A74C13" transform="translate(60,56)"/>
<path d="M0 0 C2.31 0 4.62 0 7 0 C5.02579865 2.52259061 4.03254358 2.9929808 0.8125 3.6875 C-0.5796875 3.8421875 -0.5796875 3.8421875 -2 4 C-1.34 2.68 -0.68 1.36 0 0 Z " fill="#3ACDC7" transform="translate(93,90)"/>
<path d="M0 0 C2.64 0 5.28 0 8 0 C4.93882432 2.62386487 4.26826873 3 0 3 C0 2.01 0 1.02 0 0 Z " fill="#94EDEF" transform="translate(83,91)"/>
<path d="M0 0 C1.875 0.25 1.875 0.25 4 1 C5.25 3.0625 5.25 3.0625 6 5 C4.68 5 3.36 5 2 5 C1.34 3.35 0.68 1.7 0 0 Z " fill="#046383" transform="translate(86,85)"/>
<path d="M0 0 C0.66 0 1.32 0 2 0 C1.67 1.98 1.34 3.96 1 6 C0.01 5.67 -0.98 5.34 -2 5 C-1.125 1.125 -1.125 1.125 0 0 Z " fill="#2BAAB0" transform="translate(50,79)"/>
<path d="M0 0 C2 1.8125 2 1.8125 4 4 C4 4.99 4 5.98 4 7 C2.68 7 1.36 7 0 7 C0 4.69 0 2.38 0 0 Z " fill="#48DED3" transform="translate(101,69)"/>
<path d="M0 0 C-0.33 0.99 -0.66 1.98 -1 3 C-4.5625 4.1875 -4.5625 4.1875 -8 5 C-8 4.34 -8 3.68 -8 3 C-5.09451118 0.95830515 -3.59857954 0 0 0 Z " fill="#0E6C70" transform="translate(64,67)"/>
<path d="M0 0 C0.66 0.99 1.32 1.98 2 3 C-1.625 6 -1.625 6 -5 6 C-5 5.34 -5 4.68 -5 4 C-4.360625 3.71125 -3.72125 3.4225 -3.0625 3.125 C-0.84793921 2.17176549 -0.84793921 2.17176549 0 0 Z " fill="#734E33" transform="translate(48,49)"/>
<path d="M0 0 C1.32 1.32 2.64 2.64 4 4 C3.67 4.66 3.34 5.32 3 6 C1.35 5.01 -0.3 4.02 -2 3 C-2 3.66 -2 4.32 -2 5 C-2.66 4.67 -3.32 4.34 -4 4 C-3.34 3.01 -2.68 2.02 -2 1 C-1.34 1.33 -0.68 1.66 0 2 C0 1.34 0 0.68 0 0 Z " fill="#B96616" transform="translate(71,33)"/>
<path d="M0 0 C0.33 0.66 0.66 1.32 1 2 C-0.98 4.97 -0.98 4.97 -3 8 C-3.75 6.25 -3.75 6.25 -4 4 C-2.0625 1.75 -2.0625 1.75 0 0 Z " fill="#AEAC9D" transform="translate(108,30)"/>
<path d="M0 0 C0.66 0.66 1.32 1.32 2 2 C1.625 4.625 1.625 4.625 1 7 C-0.32 7.33 -1.64 7.66 -3 8 C-2.34 7.01 -1.68 6.02 -1 5 C-0.61500109 3.34450469 -0.27206865 1.6777567 0 0 Z " fill="#363F27" transform="translate(85,26)"/>
<path d="" fill="#00FFFF" transform="translate(0,0)"/>
<path d="" fill="#00FFFF" transform="translate(0,0)"/>
<path d="" fill="#00FFFF" transform="translate(0,0)"/>
<path d="" fill="#00FFFF" transform="translate(0,0)"/>
<path d="" fill="#00FFFF" transform="translate(0,0)"/>
<path d="" fill="#00FFFF" transform="translate(0,0)"/>
<path d="" fill="#00FFFF" transform="translate(0,0)"/>
<path d="" fill="#00FFFF" transform="translate(0,0)"/>
<path d="" fill="#00FFFF" transform="translate(0,0)"/>
<path d="" fill="#00FFFF" transform="translate(0,0)"/>
<path d="" fill="#000000" transform="translate(0,0)"/>
<path d="" fill="#000000" transform="translate(0,0)"/>
<path d="" fill="#00FFFF" transform="translate(0,0)"/>
<path d="" fill="#00FFFF" transform="translate(0,0)"/>
<path d="" fill="#00FFFF" transform="translate(0,0)"/>
<path d="" fill="#00FFFF" transform="translate(0,0)"/>
<path d="" fill="#00FFFF" transform="translate(0,0)"/>
<path d="" fill="#00FFFF" transform="translate(0,0)"/>
<path d="" fill="#000000" transform="translate(0,0)"/>
<path d="" fill="#00FFFF" transform="translate(0,0)"/>
<path d="" fill="#00FFFF" transform="translate(0,0)"/>
<path d="" fill="#00FFFF" transform="translate(0,0)"/>
<path d="" fill="#00FFFF" transform="translate(0,0)"/>
<path d="" fill="#00FFFF" transform="translate(0,0)"/>
<path d="" fill="#FFFFFF" transform="translate(0,0)"/>
<path d="" fill="#00FFFF" transform="translate(0,0)"/>
<path d="" fill="#00FFFF" transform="translate(0,0)"/>
<path d="" fill="#00FFFF" transform="translate(0,0)"/>
<path d="" fill="#00FFFF" transform="translate(0,0)"/>
<path d="" fill="#0000FF" transform="translate(0,0)"/>
<path d="" fill="#0000FF" transform="translate(0,0)"/>
<path d="" fill="#0100FF" transform="translate(0,0)"/>
<path d="" fill="#0000FF" transform="translate(0,0)"/>
<path d="" fill="#0000FF" transform="translate(0,0)"/>
<path d="" fill="#0000FF" transform="translate(0,0)"/>
<path d="" fill="#0000FF" transform="translate(0,0)"/>
<path d="" fill="#0000FF" transform="translate(0,0)"/>
<path d="" fill="#0000FF" transform="translate(0,0)"/>
<path d="" fill="#0000FF" transform="translate(0,0)"/>
<path d="" fill="#0000FF" transform="translate(0,0)"/>
<path d="" fill="#0000FF" transform="translate(0,0)"/>
<path d="" fill="#0000FF" transform="translate(0,0)"/>
<path d="" fill="#0000FF" transform="translate(0,0)"/>
<path d="" fill="#0000FF" transform="translate(0,0)"/>
<path d="" fill="#0000FF" transform="translate(0,0)"/>
<path d="" fill="#0000FF" transform="translate(0,0)"/>
<path d="" fill="#0000FF" transform="translate(0,0)"/>
<path d="" fill="#0000FF" transform="translate(0,0)"/>
<path d="" fill="#0000FF" transform="translate(0,0)"/>
<path d="" fill="#FF00FF" transform="translate(0,0)"/>
<path d="" fill="#0000FF" transform="translate(0,0)"/>
<path d="" fill="#0000FF" transform="translate(0,0)"/>
<path d="" fill="#000000" transform="translate(0,0)"/>
</svg>
