<?xml version="1.0" encoding="UTF-8"?>
<svg version="1.1" xmlns="http://www.w3.org/2000/svg" width="150" height="150">
<path d="M0 0 C49.5 0 99 0 150 0 C150 49.5 150 99 150 150 C100.5 150 51 150 0 150 C0 100.5 0 51 0 0 Z " fill="#028FC3" transform="translate(0,0)"/>
<path d="M0 0 C1.98737633 0.20195724 3.96662667 0.48675518 5.9375 0.8125 C7.55978516 1.06966797 7.55978516 1.06966797 9.21484375 1.33203125 C12 2 12 2 14 4 C14.35290099 8.05836135 13.89856415 10.45601359 12 14 C12.495 14.99 12.495 14.99 13 16 C15.02463255 16.65213292 15.02463255 16.65213292 17 17 C16.505 14.03 16.505 14.03 16 11 C16.66 11 17.32 11 18 11 C18.33 9.35 18.66 7.7 19 6 C24.33790195 4.3373748 24.33790195 4.3373748 27 4 C28.875 5.3125 28.875 5.3125 30 7 C30.99 7.495 30.99 7.495 32 8 C32 8.99 32 9.98 32 11 C33.65 11 35.3 11 37 11 C37.33 9.68 37.66 8.36 38 7 C38.99 7.495 38.99 7.495 40 8 C40 8.66 40 9.32 40 10 C42.64 10 45.28 10 48 10 C49.41685179 17.36762931 49.48122769 25.46836872 45.78515625 32.21875 C44.5856401 33.85982717 43.29804259 35.43569226 42 37 C41.67 37.99 41.34 38.98 41 40 C39.33333333 41 37.66666667 42 36 43 C35.67 43.99 35.34 44.98 35 46 C34.34 46 33.68 46 33 46 C33 46.66 33 47.32 33 48 C32.42145264 47.98428955 31.84290527 47.9685791 31.24682617 47.95239258 C15.76249744 47.12863795 15.76249744 47.12863795 1 51 C0.505 51.99 0.505 51.99 0 53 C-4.12326044 56.09244533 -4.12326044 56.09244533 -7.296875 55.7578125 C-10.41720833 54.88303697 -13.1060043 53.64557181 -16 52.1875 C-17.010625 51.68605469 -18.02125 51.18460938 -19.0625 50.66796875 C-23.12715479 48.35997992 -26.93002071 45.55471286 -30 42 C-30 41.34 -30 40.68 -30 40 C-31.134375 39.731875 -32.26875 39.46375 -33.4375 39.1875 C-34.613125 38.795625 -35.78875 38.40375 -37 38 C-37.495 36.515 -37.495 36.515 -38 35 C-38.66 34.67 -39.32 34.34 -40 34 C-39.67 32.35 -39.34 30.7 -39 29 C-36.03 28.01 -33.06 27.02 -30 26 C-30 26.99 -30 27.98 -30 29 C-29.01 28.67 -28.02 28.34 -27 28 C-26.67 28.99 -26.34 29.98 -26 31 C-23.49552484 32.21869929 -23.49552484 32.21869929 -21 33 C-21.96776098 29.20452079 -21.96776098 29.20452079 -24 26 C-24.203125 23.78515625 -24.203125 23.78515625 -24.25 21.0625 C-24.27578125 20.16660156 -24.3015625 19.27070312 -24.328125 18.34765625 C-24.21984375 17.57292969 -24.1115625 16.79820313 -24 16 C-21 14 -21 14 -18 14 C-17.67 13.34 -17.34 12.68 -17 12 C-16.46375 12.598125 -15.9275 13.19625 -15.375 13.8125 C-12.76857355 16.21315594 -10.2115927 17.54018514 -7 19 C-7.495 17.515 -7.495 17.515 -8 16 C-8.06937062 13.77181559 -8.08457084 11.54165476 -8.0625 9.3125 C-8.05347656 8.13300781 -8.04445313 6.95351563 -8.03515625 5.73828125 C-8.02355469 4.83464844 -8.01195313 3.93101563 -8 3 C-6.865625 2.690625 -5.73125 2.38125 -4.5625 2.0625 C-1.21224901 1.37075469 -1.21224901 1.37075469 0 0 Z " fill="#0E497C" transform="translate(64,14)"/>
<path d="M0 0 C1.9296875 1.9375 1.9296875 1.9375 3.5 3.8125 C4.36625 4.699375 5.2325 5.58625 6.125 6.5 C7.5 8.8125 7.5 8.8125 7.375 11 C6.5 12.8125 6.5 12.8125 4.5 14.8125 C3.18 14.8125 1.86 14.8125 0.5 14.8125 C0.5 15.8025 0.5 16.7925 0.5 17.8125 C-0.16 17.8125 -0.82 17.8125 -1.5 17.8125 C-1.5 18.4725 -1.5 19.1325 -1.5 19.8125 C-3.15 20.4725 -4.8 21.1325 -6.5 21.8125 C-7.03625 20.905 -7.5725 19.9975 -8.125 19.0625 C-10.91644261 14.96256867 -13.95467885 12.56265428 -18.79296875 11.13671875 C-23.88859826 10.22819566 -27.03019763 10.65242944 -31.4375 13.4375 C-34.75077703 15.80670354 -36.7356523 18.12685343 -38.5 21.8125 C-39.32118478 27.30925939 -39.22530457 32.25030554 -36.875 37.3125 C-32.21756815 42.21505984 -28.30129028 44.36479954 -21.61328125 44.859375 C-18.87866134 44.798718 -16.905858 44.08618953 -14.5 42.8125 C-13.51 42.4825 -12.52 42.1525 -11.5 41.8125 C-11.5 40.8225 -11.5 39.8325 -11.5 38.8125 C-14.47 38.8125 -17.44 38.8125 -20.5 38.8125 C-20.5 34.1925 -20.5 29.5725 -20.5 24.8125 C-17.87542856 24.61459148 -15.2508744 24.42903689 -12.625 24.25 C-11.89796875 24.19392578 -11.1709375 24.13785156 -10.421875 24.08007812 C-4.68521683 23.7026664 0.80050465 24.09764046 6.5 24.8125 C6.61643304 28.70808088 6.68732909 32.60321258 6.75 36.5 C6.80027344 38.15418945 6.80027344 38.15418945 6.8515625 39.84179688 C6.94990194 47.97938513 6.94990194 47.97938513 4.734375 52.08203125 C2.5 53.8125 2.5 53.8125 -1.5 53.8125 C-1.5 54.4725 -1.5 55.1325 -1.5 55.8125 C-3.48 56.3075 -3.48 56.3075 -5.5 56.8125 C-5.5 57.4725 -5.5 58.1325 -5.5 58.8125 C-6.74891614 59.29448463 -7.99918808 59.77295677 -9.25 60.25 C-9.94609375 60.51683594 -10.6421875 60.78367188 -11.359375 61.05859375 C-20.42997268 64.25316556 -29.56846838 63.15139033 -38.5 59.8125 C-46.67839455 55.24781467 -52.4594669 47.86947333 -55.9375 39.25 C-56.62316055 35.05985222 -56.67280415 31.04620172 -56.5 26.8125 C-56.17 27.4725 -55.84 28.1325 -55.5 28.8125 C-54.18 28.8125 -52.86 28.8125 -51.5 28.8125 C-51.5 26.5025 -51.5 24.1925 -51.5 21.8125 C-52.16 21.4825 -52.82 21.1525 -53.5 20.8125 C-52.51 18.1725 -51.52 15.5325 -50.5 12.8125 C-49.84 12.8125 -49.18 12.8125 -48.5 12.8125 C-48.396875 12.19375 -48.29375 11.575 -48.1875 10.9375 C-47.5 8.8125 -47.5 8.8125 -44.5 6.8125 C-43.46875 6.503125 -42.4375 6.19375 -41.375 5.875 C-40.42625 5.524375 -39.4775 5.17375 -38.5 4.8125 C-38.17 3.8225 -37.84 2.8325 -37.5 1.8125 C-28.88057964 -5.00285563 -9.11473263 -7.03834463 0 0 Z " fill="#0ED6C9" transform="translate(103.5,66.1875)"/>
<path d="M0 0 C0.556875 0.28875 1.11375 0.5775 1.6875 0.875 C4.08494645 2.0413253 6.51596939 3.0339881 9 4 C9 4.66 9 5.32 9 6 C8.01 6 7.02 6 6 6 C7.88176591 13.5632808 7.88176591 13.5632808 13 19 C16.62649951 19.08916154 16.62649951 19.08916154 20 18 C22.4294516 14.3558226 22.16179575 12.28758728 22 8 C22.66 8 23.32 8 24 8 C24 7.34 24 6.68 24 6 C24.66 6 25.32 6 26 6 C26 6.66 26 7.32 26 8 C26.99 8.33 27.98 8.66 29 9 C29 9.66 29 10.32 29 11 C28.34 11 27.68 11 27 11 C27.14168137 12.43791516 27.28851043 13.8753237 27.4375 15.3125 C27.51871094 16.11300781 27.59992188 16.91351563 27.68359375 17.73828125 C27.95265693 20.16087179 27.95265693 20.16087179 29 23 C31.97 22.67 34.94 22.34 38 22 C38.61875 20.329375 38.61875 20.329375 39.25 18.625 C40.35546516 16.00679305 40.74880787 15.16506911 43.1875 13.5625 C43.785625 13.376875 44.38375 13.19125 45 13 C43.68938409 17.23429756 42.05643741 21.07407404 40 25 C39.34 25 38.68 25 38 25 C36.82923301 28.98060777 35.74250597 32.91621717 35 37 C34.01 37 33.02 37 32 37 C32 39.31 32 41.62 32 44 C30.96875 43.835 29.9375 43.67 28.875 43.5 C19.41961948 42.37675444 10.71551183 41.90072705 1.98828125 46.125 C0 47 0 47 -3 47 C-3.91657981 41.61509359 -4.11138159 36.45769811 -4 31 C-4.66 31 -5.32 31 -6 31 C-6 30.34 -6 29.68 -6 29 C-5.34 28.67 -4.68 28.34 -4 28 C-8.455 27.01 -8.455 27.01 -13 26 C-12.938125 27.0725 -12.87625 28.145 -12.8125 29.25 C-13.00543309 33.10866187 -13.39665076 34.28817788 -16 37 C-16.99 36.67 -17.98 36.34 -19 36 C-18.505 35.525625 -18.01 35.05125 -17.5 34.5625 C-15.29546331 30.79641649 -15.75391887 27.26540621 -16 23 C-16.99 22.67 -17.98 22.34 -19 22 C-18.67 19.69 -18.34 17.38 -18 15 C-15.525 15.99 -15.525 15.99 -13 17 C-13 18.98 -13 20.96 -13 23 C-10.03 23.33 -7.06 23.66 -4 24 C-0.69356688 18.21374204 0.4749634 14.64948761 0 8 C-1.32 8 -2.64 8 -4 8 C-4 6.68 -4 5.36 -4 4 C-2.68 4 -1.36 4 0 4 C0 2.68 0 1.36 0 0 Z " fill="#D36E0F" transform="translate(64,17)"/>
<path d="M0 0 C2.5990804 1.71848848 4.56396887 3.07039502 5.5234375 6.11328125 C5.62785156 6.71785156 5.73226562 7.32242188 5.83984375 7.9453125 C4.84984375 8.4403125 4.84984375 8.4403125 3.83984375 8.9453125 C3.17984375 8.6153125 2.51984375 8.2853125 1.83984375 7.9453125 C1.83984375 8.6053125 1.83984375 9.2653125 1.83984375 9.9453125 C2.49984375 9.9453125 3.15984375 9.9453125 3.83984375 9.9453125 C3.83984375 10.9353125 3.83984375 11.9253125 3.83984375 12.9453125 C0.53984375 12.9453125 -2.76015625 12.9453125 -6.16015625 12.9453125 C-6.16015625 17.5653125 -6.16015625 22.1853125 -6.16015625 26.9453125 C-3.19015625 26.9453125 -0.22015625 26.9453125 2.83984375 26.9453125 C2.83984375 29.9453125 2.83984375 29.9453125 1.40234375 31.5703125 C-2.95845182 33.91025159 -7.43497881 34.4102248 -12.3125 33.578125 C-17.79331613 31.8739173 -20.92894451 28.58528783 -24.16015625 23.9453125 C-26.28510811 19.69540877 -25.76007466 14.5485326 -25.16015625 9.9453125 C-22.92950967 4.99009044 -19.02997195 0.92891585 -14.14453125 -1.4921875 C-9.31125378 -2.8622504 -4.47929988 -2.18699994 0 0 Z " fill="#14899E" transform="translate(89.16015625,78.0546875)"/>
<path d="M0 0 C0.66 0 1.32 0 2 0 C1.67 2.31 1.34 4.62 1 7 C2.32 7.33 3.64 7.66 5 8 C5.4726477 16.19256018 5.4726477 16.19256018 3.5 19.5625 C3.005 20.036875 2.51 20.51125 2 21 C2.66 21.33 3.32 21.66 4 22 C6.12046792 18.46588679 6.53199289 15.05606165 7 11 C10.3 11.33 13.6 11.66 17 12 C16.67 12.66 16.34 13.32 16 14 C15.34 14 14.68 14 14 14 C14 14.66 14 15.32 14 16 C14.66 16 15.32 16 16 16 C16.36181089 18.29047223 16.71423224 20.58242945 17.0625 22.875 C17.35833984 24.78925781 17.35833984 24.78925781 17.66015625 26.7421875 C18 30 18 30 17 32 C17.77601562 31.6390625 18.55203125 31.278125 19.3515625 30.90625 C30.31249156 26.19749766 40.5791177 25.34531766 52 29 C52 26.69 52 24.38 52 22 C52.99 22 53.98 22 55 22 C54.79503906 21.42765625 54.59007813 20.8553125 54.37890625 20.265625 C53.89980546 17.40089864 54.55411105 16.26525264 55.9375 13.75 C56.31777344 13.04359375 56.69804688 12.3371875 57.08984375 11.609375 C57.39019531 11.07828125 57.69054687 10.5471875 58 10 C58.66 10 59.32 10 60 10 C60.66 8.02 61.32 6.04 62 4 C62.66 4 63.32 4 64 4 C63.25 11.75 63.25 11.75 61 14 C60.71125 15.051875 60.4225 16.10375 60.125 17.1875 C58.89912863 21.34184186 57.24990787 24.32515048 55 28 C54.34 28 53.68 28 53 28 C53 28.66 53 29.32 53 30 C52.13217896 29.97643433 52.13217896 29.97643433 51.24682617 29.95239258 C35.76249744 29.12863795 35.76249744 29.12863795 21 33 C20.505 33.99 20.505 33.99 20 35 C17.39874731 36.95093952 15.86006954 38.04410613 12.5625 37.875 C6.75180142 35.89085902 3.30145598 33.31401497 -1 29 C-3.88958476 26.61735994 -6.82508948 24.3026047 -9.76953125 21.98828125 C-10.50558594 21.33214844 -11.24164063 20.67601563 -12 20 C-12 19.34 -12 18.68 -12 18 C-12.99 18 -13.98 18 -15 18 C-15.33 16.35 -15.66 14.7 -16 13 C-10.73628638 12.49869394 -8.0909066 13.68831371 -4 17 C-4 17.66 -4 18.32 -4 19 C-0.535 18.505 -0.535 18.505 3 18 C3.33 15.03 3.66 12.06 4 9 C2.68 8.67 1.36 8.34 0 8 C0 5.36 0 2.72 0 0 Z " fill="#4E5743" transform="translate(44,32)"/>
<path d="M0 0 C0.556875 0.28875 1.11375 0.5775 1.6875 0.875 C4.08494645 2.0413253 6.51596939 3.0339881 9 4 C9 4.66 9 5.32 9 6 C8.01 6 7.02 6 6 6 C7.88176591 13.5632808 7.88176591 13.5632808 13 19 C16.62649951 19.08916154 16.62649951 19.08916154 20 18 C22.4294516 14.3558226 22.16179575 12.28758728 22 8 C22.66 8 23.32 8 24 8 C24 7.34 24 6.68 24 6 C24.66 6 25.32 6 26 6 C26 6.66 26 7.32 26 8 C26.99 8.33 27.98 8.66 29 9 C29 9.66 29 10.32 29 11 C28.34 11 27.68 11 27 11 C27.14168137 12.43791516 27.28851043 13.8753237 27.4375 15.3125 C27.51871094 16.11300781 27.59992188 16.91351563 27.68359375 17.73828125 C27.95265693 20.16087179 27.95265693 20.16087179 29 23 C31.97 22.67 34.94 22.34 38 22 C38.61875 20.329375 38.61875 20.329375 39.25 18.625 C40.35546516 16.00679305 40.74880787 15.16506911 43.1875 13.5625 C43.785625 13.376875 44.38375 13.19125 45 13 C43.68938409 17.23429756 42.05643741 21.07407404 40 25 C39.34 25 38.68 25 38 25 C36.82827534 28.98386386 35.781658 32.92270288 35 37 C34.43796875 36.855625 33.8759375 36.71125 33.296875 36.5625 C25.73751056 34.89294712 18.51294662 34.89124511 10.81933594 35.25 C4.49949043 35.42507844 4.49949043 35.42507844 1.90234375 33.21484375 C0.517423 29.81549282 1.04853975 27.48868759 2 24 C3.75 22 3.75 22 6 21 C8.4375 21.25 8.4375 21.25 11 22 C15.81879912 23.33855531 20.12402874 22.69049702 25 22 C25 20.68 25 19.36 25 18 C23.453125 19.0209375 23.453125 19.0209375 21.875 20.0625 C19.21041469 21.56367482 18.08488089 21.99826774 14.9375 22.0625 C8.59129201 19.76706307 5.33116096 15.44108956 1.78515625 9.96484375 C0.82483162 7.5616433 1.14116891 6.39512522 2 4 C1.34 4 0.68 4 0 4 C0 2.68 0 1.36 0 0 Z " fill="#D8901F" transform="translate(64,17)"/>
<path d="M0 0 C5.27278173 2.63639087 10.1027991 5.67288867 13 11 C12.68847543 13.98173518 12.15929487 14.84070513 10 17 C8.68 17 7.36 17 6 17 C6 17.99 6 18.98 6 20 C5.34 20 4.68 20 4 20 C4 20.66 4 21.32 4 22 C2.35 22.66 0.7 23.32 -1 24 C-1.53625 23.0925 -2.0725 22.185 -2.625 21.25 C-5.41644261 17.15006867 -8.45467885 14.75015428 -13.29296875 13.32421875 C-18.38859826 12.41569566 -21.53019763 12.83992944 -25.9375 15.625 C-29.25077703 17.99420354 -31.2356523 20.31435343 -33 24 C-33.82118478 29.49675939 -33.72530457 34.43780554 -31.375 39.5 C-26.71756815 44.40255984 -22.80129028 46.55229954 -16.11328125 47.046875 C-13.37866134 46.986218 -11.405858 46.27368953 -9 45 C-7.515 44.505 -7.515 44.505 -6 44 C-6 43.01 -6 42.02 -6 41 C-8.97 41 -11.94 41 -15 41 C-15 36.38 -15 31.76 -15 27 C-5.86533168 26.3111909 2.88651147 25.69807307 12 27 C12 30.3 12 33.6 12 37 C11.67 37 11.34 37 11 37 C10.67 35.35 10.34 33.7 10 32 C3.34230047 29.19675809 -4.04045299 29.1441208 -11 31 C-10.67 32.98 -10.34 34.96 -10 37 C-8.865625 37.144375 -7.73125 37.28875 -6.5625 37.4375 C-3 38 -3 38 -2 39 C-1.70613847 42.72224599 -1.85190829 43.77786243 -4 47 C-8.3727457 48.90036477 -12.2610343 49.2969113 -17 49.3125 C-18.175625 49.32925781 -19.35125 49.34601563 -20.5625 49.36328125 C-25.63656706 48.82704462 -28.87565151 47.18352473 -32.375 43.5 C-34 41 -34 41 -34 38 C-34.99 38 -35.98 38 -37 38 C-37.68467077 29.79662988 -37.50603956 24.23638655 -32.5078125 17.51171875 C-32.01023437 17.01285156 -31.51265625 16.51398438 -31 16 C-30.34 16 -29.68 16 -29 16 C-28.67 15.01 -28.34 14.02 -28 13 C-24.90131575 9.81278192 -23.18504338 9.04908464 -18.69921875 8.86328125 C-12.41203607 9.20187293 -7.4925787 9.72243444 -2 13 C-1.505 13.99 -1.505 13.99 -1 15 C0.73361924 12.28441679 0.73361924 12.28441679 2 9 C1.26145768 6.36186139 1.26145768 6.36186139 0 4 C0 2.68 0 1.36 0 0 Z " fill="#48D9D6" transform="translate(98,64)"/>
<path d="M0 0 C0.7425 0.350625 1.485 0.70125 2.25 1.0625 C5.22700644 2.07738856 6.12367895 2.02063005 9 1 C10.33333333 0.66666667 11.66666667 0.33333333 13 0 C12.01 0.495 12.01 0.495 11 1 C11 1.66 11 2.32 11 3 C7.91190305 4.76462683 6.76687864 5 3 5 C2.731875 5.53625 2.46375 6.0725 2.1875 6.625 C1.32483898 8.35032203 0.42369076 10.05656694 -0.5 11.75 C-2.22634697 15.49041844 -3.10031089 18.98600245 -4 23 C-2.68 23.33 -1.36 23.66 0 24 C-1.65 24.33 -3.3 24.66 -5 25 C-2.71191036 37.25051721 -0.16233049 47.00063896 9.6875 55.4375 C18.19513048 61.22923306 29.03752067 61.53401306 39 62 C39 62.66 39 63.32 39 64 C38.34 64 37.68 64 37 64 C36.505 65.98 36.505 65.98 36 68 C27.40836353 70.29110306 18.13539254 69.4948628 10 66 C1.41666653 60.42264407 -5.93490164 52.94940659 -9 43 C-10.31830268 33.10310722 -9.82263419 21.29702391 -6 12 C-5.01 11.67 -4.02 11.34 -3 11 C-2.28272222 9.35448038 -1.61674772 7.68577711 -1 6 C-0.34 5.34 0.32 4.68 1 4 C0.6814823 1.89179203 0.6814823 1.89179203 0 0 Z " fill="#095F74" transform="translate(51,67)"/>
<path d="M0 0 C-0.763125 0.268125 -1.52625 0.53625 -2.3125 0.8125 C-4.99106782 1.79264168 -4.99106782 1.79264168 -6.5 3.5625 C-8.50706089 5.48593335 -10.29667526 5.63468585 -13 6 C-13 6.66 -13 7.32 -13 8 C-13.99 8 -14.98 8 -16 8 C-16.2475 8.5775 -16.495 9.155 -16.75 9.75 C-18 12 -18 12 -19.9375 13.875 C-22.34108849 16.3514245 -23.57946706 18.87482753 -25 22 C-25.33 21.34 -25.66 20.68 -26 20 C-26.99 20 -27.98 20 -29 20 C-28.855625 21.18078125 -28.71125 22.3615625 -28.5625 23.578125 C-28.37487629 25.13540177 -28.18738313 26.69269427 -28 28.25 C-27.90460937 29.02730469 -27.80921875 29.80460937 -27.7109375 30.60546875 C-27.62070312 31.35957031 -27.53046875 32.11367187 -27.4375 32.890625 C-27.35371094 33.58188477 -27.26992188 34.27314453 -27.18359375 34.98535156 C-27.00155914 36.98289097 -27 38.99418339 -27 41 C-26.68848712 43.33634657 -26.35840222 45.67038557 -26 48 C-25.34 48 -24.68 48 -24 48 C-23.34 49.32 -22.68 50.64 -22 52 C-21.34 52 -20.68 52 -20 52 C-19.29875 52.763125 -18.5975 53.52625 -17.875 54.3125 C-12.18871088 59.62794418 -5.56069974 60.49245303 2 61 C2 61.99 2 62.98 2 64 C2.99 64.495 2.99 64.495 4 65 C-6.38710706 65.51935535 -15.88048243 64.03903511 -23.9609375 57.08984375 C-30.80642005 50.07387983 -35.04751127 43.01205282 -35.125 33.0625 C-35.09334369 31.70806235 -35.05525226 30.35368041 -35 29 C-34.67 29.66 -34.34 30.32 -34 31 C-32.68 31 -31.36 31 -30 31 C-30 28.69 -30 26.38 -30 24 C-30.66 23.67 -31.32 23.34 -32 23 C-31.01 20.36 -30.02 17.72 -29 15 C-28.34 15 -27.68 15 -27 15 C-26.896875 14.38125 -26.79375 13.7625 -26.6875 13.125 C-26 11 -26 11 -23 9 C-21.96875 8.690625 -20.9375 8.38125 -19.875 8.0625 C-18.92625 7.711875 -17.9775 7.36125 -17 7 C-16.67 6.01 -16.34 5.02 -16 4 C-11.02421663 0.06565966 -6.25073236 -2.16371505 0 0 Z " fill="#0BBDB8" transform="translate(82,64)"/>
<path d="M0 0 C2.4294516 3.6441774 2.16179575 5.71241272 2 10 C3.32 10.66 4.64 11.32 6 12 C5.67 14.31 5.34 16.62 5 19 C5.66 19 6.32 19 7 19 C7 19.66 7 20.32 7 21 C6.2575 21.66 5.515 22.32 4.75 23 C2.20218498 25.39211521 1.33352558 27.57426003 0.25 30.875 C-2.38521213 38.1110333 -8.25326999 41.80552556 -15 45 C-15.8559375 45.42539063 -16.711875 45.85078125 -17.59375 46.2890625 C-29.08459243 51.5711433 -38.85432821 50.41190646 -51 48 C-51.495 46.515 -51.495 46.515 -52 45 C-52.721875 44.938125 -53.44375 44.87625 -54.1875 44.8125 C-57.84362105 43.75628725 -59.37471773 41.6925972 -62 39 C-64.17346568 38.13880866 -64.17346568 38.13880866 -66 38 C-66 36.35 -66 34.7 -66 33 C-65.67 33.66 -65.34 34.32 -65 35 C-64.13375 35.268125 -63.2675 35.53625 -62.375 35.8125 C-59.41509557 36.85394785 -58.14638719 37.5591426 -55.8125 39.4375 C-47.90141273 45.32725219 -37.89872596 45.85052786 -28.43359375 44.68359375 C-19.81351631 43.22278673 -11.80453392 39.74501537 -6 33 C-4.38503276 30.08924784 -3.1204929 27.13181246 -2 24 C-1.34 24 -0.68 24 0 24 C0 16.08 0 8.16 0 0 Z " fill="#13C1D1" transform="translate(113,90)"/>
<path d="M0 0 C0.70125 0.598125 1.4025 1.19625 2.125 1.8125 C4.97030977 3.97740961 7.76632767 5.49596636 11 7 C10.505 5.02 10.505 5.02 10 3 C11.32 3 12.64 3 14 3 C14.79953138 6.28696233 15.09658936 7.71023192 14 11 C11.69 10.67 9.38 10.34 7 10 C7 9.01 7 8.02 7 7 C4.03 6.67 1.06 6.34 -2 6 C-2 8.64 -2 11.28 -2 14 C-0.68 14.33 0.64 14.66 2 15 C2.36272727 21.40818182 2.36272727 21.40818182 0.8125 23.9375 C-1.66049093 25.38718434 -3.17884512 25.42317323 -6 25 C-7.625 23.625 -7.625 23.625 -9 22 C-12.18762365 19.87491756 -14.26512223 19.4979837 -18 19 C-17.67 20.65 -17.34 22.3 -17 24 C-16.01 24 -15.02 24 -14 24 C-12.28793048 25.61999183 -10.62820171 27.29573631 -9 29 C-7.08232976 30.62781995 -5.14477957 32.23252733 -3.1875 33.8125 C-2.21167969 34.60269531 -1.23585938 35.39289062 -0.23046875 36.20703125 C0.50558594 36.79871094 1.24164063 37.39039063 2 38 C1.67 38.66 1.34 39.32 1 40 C-3.61766625 37.07172384 -8.18584346 33.94957039 -12 30 C-12 29.34 -12 28.68 -12 28 C-13.134375 27.731875 -14.26875 27.46375 -15.4375 27.1875 C-16.613125 26.795625 -17.78875 26.40375 -19 26 C-19.33 25.01 -19.66 24.02 -20 23 C-20.66 22.67 -21.32 22.34 -22 22 C-21.67 20.35 -21.34 18.7 -21 17 C-18.03 16.01 -15.06 15.02 -12 14 C-12 14.99 -12 15.98 -12 17 C-11.01 16.67 -10.02 16.34 -9 16 C-8.67 16.99 -8.34 17.98 -8 19 C-5.49552484 20.21869929 -5.49552484 20.21869929 -3 21 C-3.96776098 17.20452079 -3.96776098 17.20452079 -6 14 C-6.203125 11.78515625 -6.203125 11.78515625 -6.25 9.0625 C-6.27578125 8.16660156 -6.3015625 7.27070312 -6.328125 6.34765625 C-6.21984375 5.57292969 -6.1115625 4.79820313 -6 4 C-3 2 -3 2 0 2 C0 1.34 0 0.68 0 0 Z " fill="#0E60A1" transform="translate(46,26)"/>
<path d="M0 0 C1.32 0.33 2.64 0.66 4 1 C4 1.99 4 2.98 4 4 C5.65 4 7.3 4 9 4 C9.33 2.68 9.66 1.36 10 0 C10.66 0.33 11.32 0.66 12 1 C12 1.66 12 2.32 12 3 C14.64 3 17.28 3 20 3 C21.41685179 10.36762931 21.48122769 18.46836872 17.78515625 25.21875 C16.5856401 26.85982717 15.29804259 28.43569226 14 30 C13.67 30.99 13.34 31.98 13 33 C10.9375 34.1875 10.9375 34.1875 9 35 C9.433125 34.2265625 9.433125 34.2265625 9.875 33.4375 C11.29269987 30.36581694 12.11477261 27.26427601 13 24 C13.5259375 22.2675 13.5259375 22.2675 14.0625 20.5 C14.99912136 17.00328027 15.56040856 13.58999677 16 10 C12.90424596 10.63908091 12.90424596 10.63908091 12.0625 12.875 C10.76062547 15.47874905 9.49764362 16.53079787 7 18 C5.68 18 4.36 18 3 18 C0.70381333 14.55572 0.88552806 14.01271671 1.5 10.125 C2.00499048 6.15473005 2.03427485 3.58989679 0 0 Z " fill="#1E486D" transform="translate(92,21)"/>
<path d="M0 0 C1.63001953 0.01353516 1.63001953 0.01353516 3.29296875 0.02734375 C4.12441406 0.03894531 4.95585938 0.05054687 5.8125 0.0625 C5.8125 0.7225 5.8125 1.3825 5.8125 2.0625 C6.8025 2.3925 7.7925 2.7225 8.8125 3.0625 C7.69875 3.31 6.585 3.5575 5.4375 3.8125 C1.87244805 4.65586559 1.87244805 4.65586559 0.625 6.6875 C-0.47534751 9.9039004 -0.62420533 12.92319586 -0.8125 16.3125 C-0.88726562 17.57578125 -0.96203125 18.8390625 -1.0390625 20.140625 C-1.08804688 21.10484375 -1.13703125 22.0690625 -1.1875 23.0625 C-2.9921875 23.69921875 -2.9921875 23.69921875 -5.1875 24.0625 C-8.95420516 21.42580639 -11.50022401 19.40567338 -13.1875 15.0625 C-13.5234375 12.37109375 -13.5234375 12.37109375 -13.5625 9.5 C-13.59085937 8.54996094 -13.61921875 7.59992188 -13.6484375 6.62109375 C-13.1875 4.0625 -13.1875 4.0625 -11.3515625 2.28515625 C-7.45439519 0.08332706 -4.39962173 -0.04730776 0 0 Z " fill="#0AC9E7" transform="translate(79.1875,84.9375)"/>
<path d="M0 0 C0.33 0 0.66 0 1 0 C1.495 3.96 1.495 3.96 2 8 C3.65 8 5.3 8 7 8 C7.2475 8.721875 7.495 9.44375 7.75 10.1875 C8.86296357 13.11215847 8.86296357 13.11215847 11.1875 15.3125 C13.20576898 18.30510573 13.18852632 18.90040478 12.75 22.3125 C12.37875 24.1378125 12.37875 24.1378125 12 26 C11.34 26 10.68 26 10 26 C10.185625 24.4840625 10.185625 24.4840625 10.375 22.9375 C9.77052864 16.59055077 6.10729782 13.7767413 1.41015625 9.81640625 C-3.17200672 7.37573525 -6.83405392 7.48166596 -11.9375 7.625 C-12.80568359 7.62628906 -13.67386719 7.62757812 -14.56835938 7.62890625 C-19.75139372 7.69942372 -24.0919676 8.34094679 -29 10 C-29.94875 10.28875 -30.8975 10.5775 -31.875 10.875 C-32.57625 11.24625 -33.2775 11.6175 -34 12 C-34.11601563 12.65226562 -34.23203125 13.30453125 -34.3515625 13.9765625 C-34.56554687 14.64429687 -34.77953125 15.31203125 -35 16 C-37.28597611 17.01989703 -39.5382593 17.5092016 -41.96875 18.09375 C-42.6390625 18.3928125 -43.309375 18.691875 -44 19 C-44.69745868 20.99773844 -44.69745868 20.99773844 -45 23 C-45.66 23.33 -46.32 23.66 -47 24 C-48.89103225 28.7840116 -48.89103225 28.7840116 -48.0625 33.6875 C-47.711875 34.450625 -47.36125 35.21375 -47 36 C-47.375 38.3125 -47.375 38.3125 -48 40 C-49.32 39.67 -50.64 39.34 -52 39 C-52.66 39.99 -53.32 40.98 -54 42 C-54 40.02 -54 38.04 -54 36 C-53.01 35.505 -53.01 35.505 -52 35 C-52.18949219 34.43023437 -52.37898438 33.86046875 -52.57421875 33.2734375 C-53.52886096 28.17617357 -50.51174964 23.04245297 -48.3125 18.5625 C-45.10880193 15.0124562 -42.65900929 14.77650155 -38 14 C-38 13.34 -38 12.68 -38 12 C-37.34 12 -36.68 12 -36 12 C-35.67 10.68 -35.34 9.36 -35 8 C-24.49309468 4.39763246 -13.90853874 3.9221831 -3 6 C-3 5.34 -3 4.68 -3 4 C-2.34 4 -1.68 4 -1 4 C-0.67 2.68 -0.34 1.36 0 0 Z " fill="#24A8AB" transform="translate(100,56)"/>
<path d="M0 0 C3.24271329 1.1747392 5.0143889 2.013687 7.5625 4.4375 C14.92062963 10.80078047 26.78636808 10.5690398 36 11 C36 11.66 36 12.32 36 13 C35.34 13 34.68 13 34 13 C33.67 14.32 33.34 15.64 33 17 C23.11733865 19.63537636 13.01437275 17.94581522 3.9375 13.5 C0.84614853 9.51115939 0.56862683 4.92244124 0 0 Z " fill="#054C62" transform="translate(54,118)"/>
<path d="M0 0 C3.3 0.33 6.6 0.66 10 1 C9.67 1.66 9.34 2.32 9 3 C8.34 3 7.68 3 7 3 C7 3.66 7 4.32 7 5 C7.66 5 8.32 5 9 5 C9.41629694 7.26717113 9.80742754 9.53897565 10.1875 11.8125 C10.40792969 13.07707031 10.62835938 14.34164062 10.85546875 15.64453125 C11 19 11 19 9.71875 20.875 C7.58086407 22.27434352 5.40573635 23.15474128 3 24 C3 23.01 3 22.02 3 21 C2.01 21 1.02 21 0 21 C0 20.34 0 19.68 0 19 C-0.99 19 -1.98 19 -3 19 C-3.33 18.01 -3.66 17.02 -4 16 C-3.34 16 -2.68 16 -2 16 C-2 15.01 -2 14.02 -2 13 C-2.99 13 -3.98 13 -5 13 C-5 13.66 -5 14.32 -5 15 C-6.32 14.34 -7.64 13.68 -9 13 C-5.25 11 -5.25 11 -3 11 C-0.87953208 7.46588679 -0.46800711 4.05606165 0 0 Z " fill="#795720" transform="translate(51,43)"/>
<path d="M0 0 C0.66 0.33 1.32 0.66 2 1 C1.34 2.32 0.68 3.64 0 5 C2.475 5.495 2.475 5.495 5 6 C5.14714061 9.79124747 5.23467827 13.58174654 5.3125 17.375 C5.35439453 18.43589844 5.39628906 19.49679688 5.43945312 20.58984375 C5.56955781 29.07266927 3.85412507 35.68014527 -1.88500977 42.11279297 C-6.42741247 46.55367916 -11.83609478 49.44183809 -18 51 C-18.66 50.67 -19.32 50.34 -20 50 C-19.67 49.01 -19.34 48.02 -19 47 C-18.34 47 -17.68 47 -17 47 C-17 46.34 -17 45.68 -17 45 C-18.32 44.67 -19.64 44.34 -21 44 C-17.04 43.01 -13.08 42.02 -9 41 C-9 40.34 -9 39.68 -9 39 C-9.66 38.67 -10.32 38.34 -11 38 C-9.02 38 -7.04 38 -5 38 C-5 37.34 -5 36.68 -5 36 C-3.68 36 -2.36 36 -1 36 C-0.690625 35.360625 -0.38125 34.72125 -0.0625 34.0625 C1 32 1 32 2 31 C2.15764405 29.22130274 2.25100677 27.43681524 2.31640625 25.65234375 C2.35830078 24.57275391 2.40019531 23.49316406 2.44335938 22.38085938 C2.48267578 21.24455078 2.52199219 20.10824219 2.5625 18.9375 C2.62727539 17.22723633 2.62727539 17.22723633 2.69335938 15.48242188 C2.79982839 12.65507805 2.90184207 9.82764262 3 7 C0.03 6.67 -2.94 6.34 -6 6 C-5.67 5.34 -5.34 4.68 -5 4 C-4.34 4 -3.68 4 -3 4 C-2.67 3.01 -2.34 2.02 -2 1 C-1.34 0.67 -0.68 0.34 0 0 Z " fill="#017B8F" transform="translate(107,84)"/>
<path d="M0 0 C0.556875 0.28875 1.11375 0.5775 1.6875 0.875 C4.08494645 2.0413253 6.51596939 3.0339881 9 4 C9 4.66 9 5.32 9 6 C8.01 6 7.02 6 6 6 C7.88176591 13.5632808 7.88176591 13.5632808 13 19 C16.62649951 19.08916154 16.62649951 19.08916154 20 18 C22.4294516 14.3558226 22.16179575 12.28758728 22 8 C22.66 8 23.32 8 24 8 C24 7.34 24 6.68 24 6 C24.66 6 25.32 6 26 6 C26 6.66 26 7.32 26 8 C26.99 8.33 27.98 8.66 29 9 C29 9.66 29 10.32 29 11 C28.34 11 27.68 11 27 11 C27.14168137 12.43791516 27.28851043 13.8753237 27.4375 15.3125 C27.51871094 16.11300781 27.59992188 16.91351563 27.68359375 17.73828125 C27.95265693 20.16087179 27.95265693 20.16087179 29 23 C31.97 22.67 34.94 22.34 38 22 C38.61875 20.329375 38.61875 20.329375 39.25 18.625 C40.35546516 16.00679305 40.74880787 15.16506911 43.1875 13.5625 C43.785625 13.376875 44.38375 13.19125 45 13 C43.69045524 17.23083691 42.16145284 21.127397 40 25 C37.67313547 26.16343227 36.15278587 26.19895988 33.5625 26.25 C32.78003906 26.27578125 31.99757813 26.3015625 31.19140625 26.328125 C28.47233789 25.92099177 27.64617109 25.16251669 26 23 C25.3125 20.3125 25.3125 20.3125 25 18 C23.453125 19.0209375 23.453125 19.0209375 21.875 20.0625 C19.21041469 21.56367482 18.08488089 21.99826774 14.9375 22.0625 C8.59129201 19.76706307 5.33116096 15.44108956 1.78515625 9.96484375 C0.82483162 7.5616433 1.14116891 6.39512522 2 4 C1.34 4 0.68 4 0 4 C0 2.68 0 1.36 0 0 Z " fill="#B08A45" transform="translate(64,17)"/>
<path d="M0 0 C1.98 0 3.96 0 6 0 C6.12375 1.0209375 6.12375 1.0209375 6.25 2.0625 C6.92791968 4.71768543 7.68912448 6.36780566 9.0625 8.6875 C11 12 11 12 11 14 C10.34 14 9.68 14 9 14 C4.26324829 19.20163186 2.33239338 24.05075746 2.203125 31.03125 C2.13609375 31.6809375 2.0690625 32.330625 2 33 C1.01 33.495 1.01 33.495 0 34 C0 31.69 0 29.38 0 27 C-0.66 27 -1.32 27 -2 27 C-2 26.34 -2 25.68 -2 25 C-1.34 24.67 -0.68 24.34 0 24 C-4.455 23.01 -4.455 23.01 -9 22 C-8.938125 23.0725 -8.87625 24.145 -8.8125 25.25 C-9.00543309 29.10866187 -9.39665076 30.28817788 -12 33 C-12.99 32.67 -13.98 32.34 -15 32 C-14.505 31.525625 -14.01 31.05125 -13.5 30.5625 C-11.29546331 26.79641649 -11.75391887 23.26540621 -12 19 C-12.99 18.67 -13.98 18.34 -15 18 C-14.67 15.69 -14.34 13.38 -14 11 C-11.525 11.99 -11.525 11.99 -9 13 C-9 14.98 -9 16.96 -9 19 C-6.03 19.33 -3.06 19.66 0 20 C3.30643312 14.21374204 4.4749634 10.64948761 4 4 C2.68 4 1.36 4 0 4 C0 2.68 0 1.36 0 0 Z " fill="#A26232" transform="translate(60,21)"/>
<path d="M0 0 C0.33 0.66 0.66 1.32 1 2 C1.66 2 2.32 2 3 2 C3.03738281 2.75925781 3.07476562 3.51851563 3.11328125 4.30078125 C3.17902344 5.29464844 3.24476562 6.28851563 3.3125 7.3125 C3.37050781 8.29863281 3.42851563 9.28476563 3.48828125 10.30078125 C4.056823 13.29973047 4.71544408 14.09130933 7 16 C7.33 16.66 7.66 17.32 8 18 C8.99 18.33 9.98 18.66 11 19 C12.1875 21.0625 12.1875 21.0625 13 23 C13.66 23 14.32 23 15 23 C15.70125 23.763125 16.4025 24.52625 17.125 25.3125 C22.81128912 30.62794418 29.43930026 31.49245303 37 32 C37 32.99 37 33.98 37 35 C37.99 35.495 37.99 35.495 39 36 C28.61289294 36.51935535 19.11951757 35.03903511 11.0390625 28.08984375 C4.19357995 21.07387983 -0.04751127 14.01205282 -0.125 4.0625 C-0.09334369 2.70806235 -0.05525226 1.35368041 0 0 Z " fill="#23A5A7" transform="translate(47,93)"/>
<path d="M0 0 C0.33 1.32 0.66 2.64 1 4 C1.99 4 2.98 4 4 4 C4.75 6.125 4.75 6.125 5 9 C3.0625 12.3125 3.0625 12.3125 1 15 C0.34 14.01 -0.32 13.02 -1 12 C-3.37732485 11.02260454 -3.37732485 11.02260454 -6.0625 10.375 C-10.92172211 9.07827789 -10.92172211 9.07827789 -12 8 C-14.01964199 7.92755947 -16.04167124 7.91622812 -18.0625 7.9375 C-19.16722656 7.94652344 -20.27195312 7.95554687 -21.41015625 7.96484375 C-22.26480469 7.97644531 -23.11945313 7.98804687 -24 8 C-24.33 8.66 -24.66 9.32 -25 10 C-25 9.01 -25 8.02 -25 7 C-24.195625 6.71125 -23.39125 6.4225 -22.5625 6.125 C-19.8673532 5.26737432 -19.8673532 5.26737432 -19 3 C-12.84056601 -0.05867109 -6.7540791 -0.3807101 0 0 Z " fill="#14DFD5" transform="translate(96,65)"/>
<path d="M0 0 C2.9375 1.8125 2.9375 1.8125 3.6015625 3.98828125 C3.99271538 7.27669444 4.18219276 10.50065145 4.25 13.8125 C4.28738281 15.00875 4.32476562 16.205 4.36328125 17.4375 C3.85745397 21.4469933 2.88775263 23.08442051 -0.0625 25.8125 C-1.3825 25.8125 -2.7025 25.8125 -4.0625 25.8125 C-4.0625 26.4725 -4.0625 27.1325 -4.0625 27.8125 C-5.3825 28.1425 -6.7025 28.4725 -8.0625 28.8125 C-8.0625 29.4725 -8.0625 30.1325 -8.0625 30.8125 C-12.99234325 32.85243514 -16.64210425 34.21902968 -22.0625 33.8125 C-22.0625 32.8225 -22.0625 31.8325 -22.0625 30.8125 C-21.38703125 30.64234375 -20.7115625 30.4721875 -20.015625 30.296875 C-14.76909249 28.87151646 -11.86848899 27.74535529 -8.0625 23.8125 C-5.4094332 22.88857207 -2.8286935 22.3657387 -0.0625 21.8125 C0.77773188 17.45917264 1.04520995 13.36807481 1 8.9375 C0.99097656 7.78507812 0.98195313 6.63265625 0.97265625 5.4453125 C0.96105469 4.57648438 0.94945313 3.70765625 0.9375 2.8125 C-0.79064161 2.61577635 -2.52009197 2.43053201 -4.25 2.25 C-5.21292969 2.14558594 -6.17585938 2.04117188 -7.16796875 1.93359375 C-10.04050092 1.81342034 -12.3090224 1.99809113 -15.0625 2.8125 C-16.42270151 4.78008273 -16.42270151 4.78008273 -17.0625 6.8125 C-15.7425 7.1425 -14.4225 7.4725 -13.0625 7.8125 C-14.72861905 7.855221 -16.39632885 7.85313832 -18.0625 7.8125 C-19.0625 6.8125 -19.0625 6.8125 -19.125 3.75 C-19.104375 2.780625 -19.08375 1.81125 -19.0625 0.8125 C-13.26045629 -2.28192331 -6.1184827 -2.22031537 0 0 Z " fill="#24D5CF" transform="translate(106.0625,94.1875)"/>
<path d="M0 0 C0.66 0 1.32 0 2 0 C1.25 7.75 1.25 7.75 -1 10 C-1.28875 11.051875 -1.5775 12.10375 -1.875 13.1875 C-3.10087137 17.34184186 -4.75009213 20.32515048 -7 24 C-7.66 24 -8.32 24 -9 24 C-9 24.66 -9 25.32 -9 26 C-9.86782104 25.97643433 -9.86782104 25.97643433 -10.75317383 25.95239258 C-26.23750256 25.12863795 -26.23750256 25.12863795 -41 29 C-41.33 29.66 -41.66 30.32 -42 31 C-44.93704456 33.0095568 -46.39222485 34 -50 34 C-50 33.34 -50 32.68 -50 32 C-47.5859375 30.34375 -47.5859375 30.34375 -44.375 28.5 C-43.33085938 27.8915625 -42.28671875 27.283125 -41.2109375 26.65625 C-32.40743408 22.11527013 -22.74077535 21.59605616 -13.125 24 C-12.09375 24.33 -11.0625 24.66 -10 25 C-10 22.69 -10 20.38 -10 18 C-9.01 18 -8.02 18 -7 18 C-7.20496094 17.42765625 -7.40992188 16.8553125 -7.62109375 16.265625 C-8.10019454 13.40089864 -7.44588895 12.26525264 -6.0625 9.75 C-5.49208984 8.69039062 -5.49208984 8.69039062 -4.91015625 7.609375 C-4.60980469 7.07828125 -4.30945313 6.5471875 -4 6 C-3.34 6 -2.68 6 -2 6 C-1.34 4.02 -0.68 2.04 0 0 Z " fill="#604421" transform="translate(106,36)"/>
<path d="M0 0 C0 3.3 0 6.6 0 10 C-0.33 10 -0.66 10 -1 10 C-1.33 8.35 -1.66 6.7 -2 5 C-8.65769953 2.19675809 -16.04045299 2.1441208 -23 4 C-22.67 5.98 -22.34 7.96 -22 10 C-19.69 10.33 -17.38 10.66 -15 11 C-14.67 12.32 -14.34 13.64 -14 15 C-15.98 15.99 -15.98 15.99 -18 17 C-18 16.01 -18 15.02 -18 14 C-20.97 14 -23.94 14 -27 14 C-27 9.38 -27 4.76 -27 0 C-17.88651147 -1.30192693 -9.13466832 -0.6888091 0 0 Z " fill="#47D6D3" transform="translate(110,91)"/>
<path d="M0 0 C1.4540625 0.0309375 1.4540625 0.0309375 2.9375 0.0625 C5.95297683 4.76664385 6.0967436 7.71738192 5.1640625 13.01171875 C4.77088279 15.26012936 4.77088279 15.26012936 5.9375 18.0625 C9.8975 16.5775 9.8975 16.5775 13.9375 15.0625 C13.6075 16.3825 13.2775 17.7025 12.9375 19.0625 C9.6875 19.8125 9.6875 19.8125 5.9375 20.0625 C3.5625 18.5625 3.5625 18.5625 1.9375 16.0625 C0.54464286 9.84821429 0.54464286 9.84821429 1.9375 7.0625 C2.5975 7.0625 3.2575 7.0625 3.9375 7.0625 C3.4425 6.60875 2.9475 6.155 2.4375 5.6875 C0.9375 4.0625 0.9375 4.0625 0.9375 2.0625 C0.2775 2.0625 -0.3825 2.0625 -1.0625 2.0625 C-1.0625 2.7225 -1.0625 3.3825 -1.0625 4.0625 C-1.7225 4.0625 -2.3825 4.0625 -3.0625 4.0625 C-2.794375 5.114375 -2.52625 6.16625 -2.25 7.25 C-2.0625 11.0625 -2.0625 11.0625 -4.1875 14 C-7.0625 16.0625 -7.0625 16.0625 -9.5 16.8125 C-13.65600738 15.5961076 -15.85929722 12.69708292 -18.0625 9.0625 C-18.79057803 6.61351026 -18.95721837 4.64189993 -19.0625 2.0625 C-18.0725 2.3925 -17.0825 2.7225 -16.0625 3.0625 C-15.959375 4.17625 -15.85625 5.29 -15.75 6.4375 C-15.523125 7.63375 -15.29625 8.83 -15.0625 10.0625 C-11.84036243 12.21059171 -10.78474599 12.35636153 -7.0625 12.0625 C-5.4214118 10.4214118 -5.46981882 8.30275352 -5.0625 6.0625 C-3.97497672 0.08112197 -3.97497672 0.08112197 0 0 Z " fill="#213D4B" transform="translate(89.0625,20.9375)"/>
<path d="M0 0 C4.58240198 -0.69430333 6.95488235 0.98561278 10.546875 3.515625 C12.2758363 5.28176826 12.60888843 6.59157615 13 9 C12.01 9.495 12.01 9.495 11 10 C10.34 9.67 9.68 9.34 9 9 C9 9.66 9 10.32 9 11 C9.66 11 10.32 11 11 11 C11 11.99 11 12.98 11 14 C7.37 14 3.74 14 0 14 C0.33 13.34 0.66 12.68 1 12 C3.0625 11.375 3.0625 11.375 5 11 C4.34 10.67 3.68 10.34 3 10 C3 9.34 3 8.68 3 8 C-1.62 8.33 -6.24 8.66 -11 9 C-10.67 8.34 -10.34 7.68 -10 7 C-7.36 7 -4.72 7 -2 7 C-2 6.34 -2 5.68 -2 5 C-2.66 5 -3.32 5 -4 5 C-3.67 4.01 -3.34 3.02 -3 2 C-2.01 2 -1.02 2 0 2 C0 1.34 0 0.68 0 0 Z " fill="#097E93" transform="translate(82,77)"/>
<path d="M0 0 C1.32 0.33 2.64 0.66 4 1 C4 1.99 4 2.98 4 4 C5.65 4 7.3 4 9 4 C9.33 2.68 9.66 1.36 10 0 C10.66 0.33 11.32 0.66 12 1 C12 1.66 12 2.32 12 3 C14.64 3 17.28 3 20 3 C20.33 5.64 20.66 8.28 21 11 C20.814375 10.360625 20.62875 9.72125 20.4375 9.0625 C19.05753944 6.57873787 19.05753944 6.57873787 15.375 6.25 C14.26125 6.1675 13.1475 6.085 12 6 C11.690625 6.94875 11.38125 7.8975 11.0625 8.875 C10 12 10 12 9 14 C8.34 14 7.68 14 7 14 C7 14.66 7 15.32 7 16 C5.33388095 16.042721 3.66617115 16.04063832 2 16 C1.67 15.67 1.34 15.34 1 15 C1.14408476 13.41212712 1.34061571 11.8288819 1.5625 10.25 C2.02062053 6.25289837 2.04199511 3.60352079 0 0 Z " fill="#085091" transform="translate(92,21)"/>
<path d="M0 0 C1.95979427 0.28168297 3.91782378 0.57566717 5.875 0.875 C7.51082031 1.11863281 7.51082031 1.11863281 9.1796875 1.3671875 C12 2 12 2 14 4 C14.35290099 8.05836135 13.89856415 10.45601359 12 14 C12.33 14.66 12.66 15.32 13 16 C15.02463255 16.65213292 15.02463255 16.65213292 17 17 C16.67 15.02 16.34 13.04 16 11 C16.66 11 17.32 11 18 11 C18.33 9.35 18.66 7.7 19 6 C21.64 5.34 24.28 4.68 27 4 C27.33 4.99 27.66 5.98 28 7 C26.02 7.33 24.04 7.66 22 8 C21.87882812 8.69867188 21.75765625 9.39734375 21.6328125 10.1171875 C21.46523437 11.02726562 21.29765625 11.93734375 21.125 12.875 C20.96257812 13.77992187 20.80015625 14.68484375 20.6328125 15.6171875 C20 18 20 18 18 20 C11.78098634 19.77385405 11.78098634 19.77385405 9.2890625 17.3046875 C7.67723986 14.422944 7.69537641 12.52946065 7.8125 9.25 C7.83957031 8.26515625 7.86664063 7.2803125 7.89453125 6.265625 C7.94673828 5.14414062 7.94673828 5.14414062 8 4 C5.36 3.01 2.72 2.02 0 1 C0 0.67 0 0.34 0 0 Z " fill="#10497A" transform="translate(64,14)"/>
<path d="M0 0 C4.58900349 1.21473622 6.90414423 3.73024996 9.9609375 7.1484375 C11 9 11 9 10.7890625 11.1015625 C10 13 10 13 8 15 C6.68 15 5.36 15 4 15 C4 15.99 4 16.98 4 18 C3.34 18 2.68 18 2 18 C2 18.66 2 19.32 2 20 C0.35 20.66 -1.3 21.32 -3 22 C-5.21713508 18.74820188 -7.34832443 15.5786304 -9 12 C-4.125 14.75 -4.125 14.75 -3 17 C-2.01 17.33 -1.02 17.66 0 18 C-0.33 15.69 -0.66 13.38 -1 11 C0.32 10.67 1.64 10.34 3 10 C2.05066101 6.64566891 1.10251165 3.30753495 0 0 Z " fill="#55E0DA" transform="translate(100,66)"/>
<path d="M0 0 C0.33 0 0.66 0 1 0 C1.495 3.96 1.495 3.96 2 8 C3.65 8 5.3 8 7 8 C7.2475 8.721875 7.495 9.44375 7.75 10.1875 C8.86296357 13.11215847 8.86296357 13.11215847 11.1875 15.3125 C13.20576898 18.30510573 13.18852632 18.90040478 12.75 22.3125 C12.5025 23.529375 12.255 24.74625 12 26 C11.34 26 10.68 26 10 26 C10.185625 24.4840625 10.185625 24.4840625 10.375 22.9375 C9.77040645 16.58926777 6.10741377 13.75512968 1.3828125 9.8203125 C-3.07230547 7.42298574 -6.52455575 7.43390623 -11.5 7.5625 C-12.37624023 7.5728125 -13.25248047 7.583125 -14.15527344 7.59375 C-21.70026279 7.78120315 -28.71771065 8.97446256 -36 11 C-35.67 10.01 -35.34 9.02 -35 8 C-25.35473679 3.44893406 -13.25457782 4.04674708 -3 6 C-3 5.34 -3 4.68 -3 4 C-2.34 4 -1.68 4 -1 4 C-0.67 2.68 -0.34 1.36 0 0 Z " fill="#136F84" transform="translate(100,56)"/>
<path d="M0 0 C0.7425 0.350625 1.485 0.70125 2.25 1.0625 C5.22700644 2.07738856 6.12367895 2.02063005 9 1 C10.33333333 0.66666667 11.66666667 0.33333333 13 0 C12.01 0.495 12.01 0.495 11 1 C11 1.66 11 2.32 11 3 C7.91190305 4.76462683 6.76687864 5 3 5 C2.731875 5.53625 2.46375 6.0725 2.1875 6.625 C1.32483898 8.35032203 0.42369076 10.05656694 -0.5 11.75 C-2.22634697 15.49041844 -3.10031089 18.98600245 -4 23 C-2.68 23.33 -1.36 23.66 0 24 C-1.65 24.33 -3.3 24.66 -5 25 C-4.67 28.63 -4.34 32.26 -4 36 C-4.66 36 -5.32 36 -6 36 C-7.34882775 33.30234449 -7 30.98421978 -7 28 C-7.33 27.67 -7.66 27.34 -8 27 C-7.84550243 21.46185633 -6.67670682 16.25368138 -5 11 C-4.34 11 -3.68 11 -3 11 C-2.71125 10.21625 -2.4225 9.4325 -2.125 8.625 C-1 6 -1 6 1 4 C0.6814823 1.89179203 0.6814823 1.89179203 0 0 Z " fill="#035E7B" transform="translate(51,67)"/>
<path d="M0 0 C1.051875 0.8971875 1.051875 0.8971875 2.125 1.8125 C4.97030977 3.97740961 7.76632767 5.49596636 11 7 C10.67 5.68 10.34 4.36 10 3 C11.32 3 12.64 3 14 3 C14.79953138 6.28696233 15.09658936 7.71023192 14 11 C11.69 10.67 9.38 10.34 7 10 C7 9.01 7 8.02 7 7 C4.03 6.67 1.06 6.34 -2 6 C-2 8.64 -2 11.28 -2 14 C-0.68 14.33 0.64 14.66 2 15 C2.36272727 21.40818182 2.36272727 21.40818182 0.8125 23.9375 C-1.56041618 25.32851983 -3.29686424 25.21917317 -6 25 C-6.33 24.01 -6.66 23.02 -7 22 C-4.69 22.33 -2.38 22.66 0 23 C0 20.69 0 18.38 0 16 C-1.32 15.34 -2.64 14.68 -4 14 C-4 10.37 -4 6.74 -4 3 C-2.68 2.67 -1.36 2.34 0 2 C0 1.34 0 0.68 0 0 Z " fill="#164D7A" transform="translate(46,26)"/>
<path d="M0 0 C1 3 1 3 0.1875 4.875 C-0.204375 5.57625 -0.59625 6.2775 -1 7 C-3.33469603 11.9568733 -3.36489362 16.53654782 -3.55859375 21.94140625 C-4.02957754 25.20494878 -4.8015184 26.6021894 -7 29 C-9.15550707 24.48068057 -9.62249591 20.101331 -10.125 15.1875 C-10.21136719 14.39923828 -10.29773437 13.61097656 -10.38671875 12.79882812 C-10.59751064 10.86656916 -10.79962896 8.93336737 -11 7 C-10.34 6.67 -9.68 6.34 -9 6 C-8.01 6.66 -7.02 7.32 -6 8 C-5.7525 7.236875 -5.505 6.47375 -5.25 5.6875 C-3.89004442 2.7635955 -2.68414174 1.69995644 0 0 Z " fill="#0BCCC2" transform="translate(63,77)"/>
<path d="M0 0 C0.556875 0.28875 1.11375 0.5775 1.6875 0.875 C4.08494645 2.0413253 6.51596939 3.0339881 9 4 C9 4.66 9 5.32 9 6 C8.01 6 7.02 6 6 6 C7.88176591 13.5632808 7.88176591 13.5632808 13 19 C16.62649951 19.08916154 16.62649951 19.08916154 20 18 C20.66 17.01 21.32 16.02 22 15 C22.99 15 23.98 15 25 15 C25 15.99 25 16.98 25 18 C18.96936822 21.98021698 18.96936822 21.98021698 14.9375 22.0625 C8.59129201 19.76706307 5.33116096 15.44108956 1.78515625 9.96484375 C0.82483162 7.5616433 1.14116891 6.39512522 2 4 C1.34 4 0.68 4 0 4 C0 2.68 0 1.36 0 0 Z " fill="#AE924D" transform="translate(64,17)"/>
<path d="M0 0 C7.42857143 -0.28571429 7.42857143 -0.28571429 11 2 C10.75769653 3.0664978 10.75769653 3.0664978 10.51049805 4.15454102 C9.63176203 9.05251724 9.81547406 13.97379034 9.8125 18.9375 C9.80025391 20.00935547 9.78800781 21.08121094 9.77539062 22.18554688 C9.76550628 27.50661707 9.81645401 32.03739548 12 37 C12.66 37 13.32 37 14 37 C14.1875 39.375 14.1875 39.375 14 42 C13.01 42.66 12.02 43.32 11 44 C11.66 42.02 12.32 40.04 13 38 C11.515 38.495 11.515 38.495 10 39 C6.15581108 25.97437772 5.4565146 16.42142743 8 3 C7.34 3 6.68 3 6 3 C6 2.34 6 1.68 6 1 C4.02 1.33 2.04 1.66 0 2 C0 1.34 0 0.68 0 0 Z " fill="#0FB5D7" transform="translate(32,81)"/>
<path d="M0 0 C2.4294516 3.6441774 2.16179575 5.71241272 2 10 C3.32 10.66 4.64 11.32 6 12 C5.67 14.31 5.34 16.62 5 19 C5.66 19 6.32 19 7 19 C7 19.66 7 20.32 7 21 C6.21625 21.7425 5.4325 22.485 4.625 23.25 C1.85847277 26.14826662 0.97988742 28.169531 0 32 C-0.33 32 -0.66 32 -1 32 C-0.67 21.44 -0.34 10.88 0 0 Z " fill="#0BBCDA" transform="translate(113,90)"/>
<path d="M0 0 C3.3 0.33 6.6 0.66 10 1 C9.01 1.99 8.02 2.98 7 4 C5.68 4 4.36 4 3 4 C2.83052421 5.41633336 2.66454493 6.83308533 2.5 8.25 C2.4071875 9.03890625 2.314375 9.8278125 2.21875 10.640625 C1.93845381 13.26890397 1.93845381 13.26890397 2 17 C0.35 17.66 -1.3 18.32 -3 19 C-3.33 18.01 -3.66 17.02 -4 16 C-3.34 16 -2.68 16 -2 16 C-2 15.01 -2 14.02 -2 13 C-2.99 13 -3.98 13 -5 13 C-5 13.66 -5 14.32 -5 15 C-6.32 14.34 -7.64 13.68 -9 13 C-5.25 11 -5.25 11 -3 11 C-0.87953208 7.46588679 -0.46800711 4.05606165 0 0 Z " fill="#6F2C04" transform="translate(51,43)"/>
<path d="M0 0 C0.33 0.99 0.66 1.98 1 3 C1.66 3 2.32 3 3 3 C3 3.66 3 4.32 3 5 C2.34 5 1.68 5 1 5 C1 6.32 1 7.64 1 9 C1.66 9 2.32 9 3 9 C2.67 9.66 2.34 10.32 2 11 C0.68 10.67 -0.64 10.34 -2 10 C-1.67 8.68 -1.34 7.36 -1 6 C-3.99332739 6.9977758 -4.94766315 7.7522025 -7 10 C-6.34 10.66 -5.68 11.32 -5 12 C-8.63 11.67 -12.26 11.34 -16 11 C-16 10.34 -16 9.68 -16 9 C-16.66 9 -17.32 9 -18 9 C-18 8.34 -18 7.68 -18 7 C-17.01 6.67 -16.02 6.34 -15 6 C-14.67 5.34 -14.34 4.68 -14 4 C-13.34 5.65 -12.68 7.3 -12 9 C-10.35 8.34 -8.7 7.68 -7 7 C-7 6.34 -7 5.68 -7 5 C-6.34 5 -5.68 5 -5 5 C-5 4.01 -5 3.02 -5 2 C-3.35 1.34 -1.7 0.68 0 0 Z " fill="#24A5AE" transform="translate(109,79)"/>
<path d="M0 0 C1.63001953 0.01353516 1.63001953 0.01353516 3.29296875 0.02734375 C4.12441406 0.03894531 4.95585938 0.05054687 5.8125 0.0625 C5.8125 0.7225 5.8125 1.3825 5.8125 2.0625 C6.8025 2.3925 7.7925 2.7225 8.8125 3.0625 C7.8125 4.0625 7.8125 4.0625 4.75 4.125 C3.780625 4.104375 2.81125 4.08375 1.8125 4.0625 C1.8125 3.0725 1.8125 2.0825 1.8125 1.0625 C-4.2973548 2.05190998 -4.2973548 2.05190998 -9.75 4.8125 C-11.65543681 7.79492284 -11.70511806 9.58706448 -11.1875 13.0625 C-9.85416667 14.72916667 -9.85416667 14.72916667 -8.1875 16.0625 C-7.754375 17.114375 -7.754375 17.114375 -7.3125 18.1875 C-6.30381339 20.35254732 -6.30381339 20.35254732 -3.5625 20.8125 C-2.77875 20.895 -1.995 20.9775 -1.1875 21.0625 C-1.1875 21.7225 -1.1875 22.3825 -1.1875 23.0625 C-2.8125 23.875 -2.8125 23.875 -5.1875 24.0625 C-8.95420516 21.42580639 -11.50022401 19.40567338 -13.1875 15.0625 C-13.5234375 12.37109375 -13.5234375 12.37109375 -13.5625 9.5 C-13.59085937 8.54996094 -13.61921875 7.59992188 -13.6484375 6.62109375 C-13.1875 4.0625 -13.1875 4.0625 -11.3515625 2.28515625 C-7.45439519 0.08332706 -4.39962173 -0.04730776 0 0 Z " fill="#17B1C3" transform="translate(79.1875,84.9375)"/>
<path d="M0 0 C0 0.66 0 1.32 0 2 C-0.99 2.33 -1.98 2.66 -3 3 C-3.33 3.66 -3.66 4.32 -4 5 C-3.34 5 -2.68 5 -2 5 C-2 5.66 -2 6.32 -2 7 C-3.175625 7.061875 -4.35125 7.12375 -5.5625 7.1875 C-10.48611746 7.76674911 -13.20179821 9.91396105 -17 13 C-16.49233162 8.55790165 -15.11355548 6.19549115 -12 3 C-8.05669508 0.03081316 -4.91366992 -1.78678906 0 0 Z " fill="#054F6B" transform="translate(82,77)"/>
<path d="M0 0 C0 0.66 0 1.32 0 2 C-0.57854736 1.98428955 -1.15709473 1.9685791 -1.75317383 1.95239258 C-17.23750256 1.12863795 -17.23750256 1.12863795 -32 5 C-32.33 5.66 -32.66 6.32 -33 7 C-35.93704456 9.0095568 -37.39222485 10 -41 10 C-41 9.34 -41 8.68 -41 8 C-38.5859375 6.34375 -38.5859375 6.34375 -35.375 4.5 C-33.80878906 3.58734375 -33.80878906 3.58734375 -32.2109375 2.65625 C-21.98794333 -2.61692461 -11.11888419 -1.5336392 0 0 Z " fill="#2F442E" transform="translate(97,60)"/>
<path d="M0 0 C0.33 0 0.66 0 1 0 C1.63415519 3.83311584 1.80163439 7.18221623 1 11 C-2.36577755 15.44563118 -6.45549119 18.37418837 -11.890625 19.7109375 C-14.29160968 19.96475588 -16.58891405 20.08207952 -19 20 C-16.58088973 18.12731157 -14.20200589 16.49333494 -11.5 15.0625 C-4.99053999 11.34280857 -2.73276703 6.80284558 0 0 Z " fill="#0DB5CD" transform="translate(111,114)"/>
<path d="M0 0 C3.37498158 -0.02922646 6.74993021 -0.04687468 10.125 -0.0625 C11.55199219 -0.07506836 11.55199219 -0.07506836 13.0078125 -0.08789062 C17.79018487 -0.10449608 22.29771569 -0.00537055 27 1 C27 1.99 27 2.98 27 4 C25.96875 3.835 24.9375 3.67 23.875 3.5 C14.41961948 2.37675444 5.71551183 1.90072705 -3.01171875 6.125 C-5 7 -5 7 -8 7 C-8 6.34 -8 5.68 -8 5 C-7.34 5 -6.68 5 -6 5 C-6 4.34 -6 3.68 -6 3 C-4.02 2.34 -2.04 1.68 0 1 C0 0.67 0 0.34 0 0 Z " fill="#C58136" transform="translate(69,57)"/>
<path d="M0 0 C-0.875 6.875 -0.875 6.875 -2 8 C-2.23427778 10.01594582 -2.41336124 12.038474 -2.5625 14.0625 C-2.64628906 15.16722656 -2.73007813 16.27195312 -2.81640625 17.41015625 C-2.87699219 18.26480469 -2.93757813 19.11945313 -3 20 C-3.99 20 -4.98 20 -6 20 C-5.88521587 17.93690624 -5.75773802 15.87451646 -5.625 13.8125 C-5.55539063 12.66394531 -5.48578125 11.51539062 -5.4140625 10.33203125 C-5.02490426 7.20040883 -4.3190149 4.84714191 -3 2 C-7.41522109 3.26974972 -7.41522109 3.26974972 -11 6 C-11.45811675 7.97235333 -11.45811675 7.97235333 -11.625 10.125 C-11.74875 11.40375 -11.8725 12.6825 -12 14 C-14 12 -14 12 -14.5625 9.25 C-13.83830116 5.06574002 -12.29290332 3.68719362 -9.0234375 1.125 C-5.98149375 -0.56627374 -3.38528126 -0.41452424 0 0 Z " fill="#13BDD5" transform="translate(81,86)"/>
<path d="M0 0 C0.33 0.66 0.66 1.32 1 2 C0.41992188 1.95359375 -0.16015625 1.9071875 -0.7578125 1.859375 C-6.43727747 1.59695748 -9.53876553 2.14711568 -14 6 C-19.23098044 11.71758327 -22.29171516 15.97596021 -22.6875 23.8125 C-22.75324219 24.97394531 -22.81898437 26.13539062 -22.88671875 27.33203125 C-22.92410156 28.21246094 -22.96148437 29.09289062 -23 30 C-23.33 30 -23.66 30 -24 30 C-24.05428973 27.77110504 -24.09292338 25.54182529 -24.125 23.3125 C-24.15980469 21.45044922 -24.15980469 21.45044922 -24.1953125 19.55078125 C-24.00807502 16.14680389 -23.45519834 14.03879653 -22 11 C-21.62875 10.071875 -21.2575 9.14375 -20.875 8.1875 C-20.58625 7.465625 -20.2975 6.74375 -20 6 C-19.34 6 -18.68 6 -18 6 C-18 5.34 -18 4.68 -18 4 C-11.71546794 0.67202085 -7.11341265 -0.45164525 0 0 Z " fill="#21D6CE" transform="translate(84,72)"/>
<path d="M0 0 C3.07943151 2.05295434 3.79293121 2.65734795 5 6 C5.125 9.25 5.125 9.25 5 12 C4.01 12.33 3.02 12.66 2 13 C2 15.31 2 17.62 2 20 C-1.78611227 19.45912682 -3.55400767 17.88277668 -6 15 C-6 14.34 -6 13.68 -6 13 C-8.97 12.505 -8.97 12.505 -12 12 C-12 11.34 -12 10.68 -12 10 C-8.31253672 10.5028359 -5.17890804 10.99846531 -2 13 C-1.67 13.66 -1.34 14.32 -1 15 C0.73361924 12.28441679 0.73361924 12.28441679 2 9 C1.26145768 6.36186139 1.26145768 6.36186139 0 4 C0 2.68 0 1.36 0 0 Z " fill="#2CD9D6" transform="translate(98,64)"/>
<path d="M0 0 C0.33 0 0.66 0 1 0 C2.28571429 8.42857143 2.28571429 8.42857143 1 13 C1.66 13 2.32 13 3 13 C3.33 11.68 3.66 10.36 4 9 C6.97 9 9.94 9 13 9 C13 12 13 12 11.5625 13.625 C7.91288304 15.58333105 4.13678582 16.15998619 0 16 C-0.99 15.34 -1.98 14.68 -3 14 C-2.34 13.67 -1.68 13.34 -1 13 C-0.53045739 9.95418731 -0.53045739 9.95418731 -0.375 6.4375 C-0.30023438 5.23996094 -0.22546875 4.04242188 -0.1484375 2.80859375 C-0.09945312 1.88175781 -0.05046875 0.95492187 0 0 Z " fill="#05717F" transform="translate(79,96)"/>
<path d="M0 0 C0.33 0.66 0.66 1.32 1 2 C1.66 2 2.32 2 3 2 C3.07347656 3.17369141 3.07347656 3.17369141 3.1484375 4.37109375 C3.22320312 5.38300781 3.29796875 6.39492187 3.375 7.4375 C3.44460937 8.44683594 3.51421875 9.45617187 3.5859375 10.49609375 C3.72257812 11.32238281 3.85921875 12.14867188 4 13 C4.66 13.33 5.32 13.66 6 14 C6.2475 14.86625 6.495 15.7325 6.75 16.625 C8.75058912 22.02659062 12.23511464 25.82340976 17 29 C16.67 29.66 16.34 30.32 16 31 C8.60797322 26.47426932 3.81555026 20.49940716 0.5625 12.4375 C-0.12316055 8.24735222 -0.17280415 4.23370172 0 0 Z " fill="#36AEB3" transform="translate(47,93)"/>
<path d="M0 0 C2.475 0.99 2.475 0.99 5 2 C5 3.98 5 5.96 5 8 C5.99 8.33 6.98 8.66 8 9 C8.99 10.485 8.99 10.485 10 12 C8.35 11.67 6.7 11.34 5 11 C5.061875 12.0725 5.12375 13.145 5.1875 14.25 C4.99456691 18.10866187 4.60334924 19.28817788 2 22 C1.01 21.67 0.02 21.34 -1 21 C-0.505 20.525625 -0.01 20.05125 0.5 19.5625 C2.70453669 15.79641649 2.24608113 12.26540621 2 8 C1.01 7.67 0.02 7.34 -1 7 C-0.67 4.69 -0.34 2.38 0 0 Z " fill="#8F5530" transform="translate(46,32)"/>
<path d="M0 0 C2.9375 2 2.9375 2 3.5859375 3.98046875 C3.875 6.1875 3.875 6.1875 3.9375 10 C2.9475 10.495 2.9475 10.495 1.9375 11 C1.9375 8.36 1.9375 5.72 1.9375 3 C1.195 3.020625 0.4525 3.04125 -0.3125 3.0625 C-3.0625 3 -3.0625 3 -4.9375 2.5 C-8.13635865 1.74732738 -10.79295326 1.64332217 -14.0625 2 C-16.07114359 4.3726974 -16.07114359 4.3726974 -17.0625 7 C-15.7425 7.33 -14.4225 7.66 -13.0625 8 C-14.72861905 8.042721 -16.39632885 8.04063832 -18.0625 8 C-19.0625 7 -19.0625 7 -19.125 3.9375 C-19.104375 2.968125 -19.08375 1.99875 -19.0625 1 C-13.28759417 -2.07994978 -6.1592541 -1.96842141 0 0 Z " fill="#28D9CF" transform="translate(106.0625,94)"/>
<path d="M0 0 C5.4611399 0.35233161 5.4611399 0.35233161 8 1 C9.5 3.0625 9.5 3.0625 10 5 C6.85375007 5.26218749 5.38162983 5.24754367 2.6875 3.5 C1.8521875 2.7575 1.8521875 2.7575 1 2 C1 3.32 1 4.64 1 6 C-0.32 6 -1.64 6 -3 6 C-3 7.32 -3 8.64 -3 10 C-1.68 10 -0.36 10 1 10 C2.26026798 12.52053595 1.91874445 13.8542098 1.5625 16.625 C1.46066406 17.44226563 1.35882813 18.25953125 1.25390625 19.1015625 C1.17011719 19.72804688 1.08632812 20.35453125 1 21 C0.67 21 0.34 21 0 21 C-0.16276042 18.98177083 -0.32552083 16.96354167 -0.48828125 14.9453125 C-0.87393036 12.60480784 -0.87393036 12.60480784 -4 11 C-4.43132515 6.94554358 -4.30019361 5.45029042 -2 2 C-1.34 2 -0.68 2 0 2 C0 1.34 0 0.68 0 0 Z " fill="#2D2D2B" transform="translate(63,15)"/>
<path d="M0 0 C0.33 0.66 0.66 1.32 1 2 C1.86625 2.268125 2.7325 2.53625 3.625 2.8125 C6.58490443 3.85394785 7.85361281 4.5591426 10.1875 6.4375 C14.60721982 9.80206149 19.65769526 10.81174777 25 12 C25 12.33 25 12.66 25 13 C13.22145699 13.56587306 13.22145699 13.56587306 8 10 C6.66666667 8.66666667 5.33333333 7.33333333 4 6 C1.8618034 5.2127322 1.8618034 5.2127322 0 5 C0 3.35 0 1.7 0 0 Z " fill="#13A9C1" transform="translate(47,123)"/>
<path d="M0 0 C0.556875 0.226875 1.11375 0.45375 1.6875 0.6875 C0.4809375 1.05875 0.4809375 1.05875 -0.75 1.4375 C-1.595625 1.85 -2.44125 2.2625 -3.3125 2.6875 C-3.43625 3.3371875 -3.56 3.986875 -3.6875 4.65625 C-3.89375 5.3265625 -4.1 5.996875 -4.3125 6.6875 C-6.37890625 7.734375 -6.37890625 7.734375 -8.875 8.4375 C-9.70128906 8.67984375 -10.52757812 8.9221875 -11.37890625 9.171875 C-12.33603516 9.42710938 -12.33603516 9.42710938 -13.3125 9.6875 C-13.3125 10.3475 -13.3125 11.0075 -13.3125 11.6875 C-15.6875 13.375 -15.6875 13.375 -18.3125 14.6875 C-18.9725 14.3575 -19.6325 14.0275 -20.3125 13.6875 C-16.45626321 7.18010042 -16.45626321 7.18010042 -13.19921875 5.77734375 C-11.25864391 5.31201941 -9.28526418 4.98843013 -7.3125 4.6875 C-7.3125 4.0275 -7.3125 3.3675 -7.3125 2.6875 C-3.15982824 -0.42700382 -3.15982824 -0.42700382 0 0 Z " fill="#1296A0" transform="translate(69.3125,65.3125)"/>
<path d="M0 0 C4.58900349 1.21473622 6.90414423 3.73024996 9.9609375 7.1484375 C11 9 11 9 10.7890625 11.1015625 C10 13 10 13 8 15 C5.875 14.625 5.875 14.625 4 14 C4.268125 13.13375 4.53625 12.2675 4.8125 11.375 C5.01873837 7.66270931 4.8563686 7.36604116 2.5625 4.75 C1.716875 3.8425 0.87125 2.935 0 2 C0 1.34 0 0.68 0 0 Z " fill="#76DBE2" transform="translate(100,66)"/>
<path d="M0 0 C1.46119404 4.6358746 0.53818168 8.47450758 -1 13 C-3.0625 15.875 -3.0625 15.875 -5 18 C-5.33 18.99 -5.66 19.98 -6 21 C-8.0625 22.1875 -8.0625 22.1875 -10 23 C-9.71125 22.484375 -9.4225 21.96875 -9.125 21.4375 C-7.89254054 18.96612115 -7.89254054 18.96612115 -7.25 16 C-5.73356505 10.31958385 -2.7070025 5.18416516 0 0 Z " fill="#0C528D" transform="translate(111,33)"/>
<path d="M0 0 C0 0.66 0 1.32 0 2 C0.66 2 1.32 2 2 2 C3.125 6.75 3.125 6.75 2 9 C-0.64 9 -3.28 9 -6 9 C-6.1875 5.625 -6.1875 5.625 -6 2 C-3 0 -3 0 0 0 Z " fill="#ACA431" transform="translate(88,39)"/>
<path d="M0 0 C0.33 0 0.66 0 1 0 C0.67 2.97 0.34 5.94 0 9 C1.32 9.33 2.64 9.66 4 10 C2.35 10.33 0.7 10.66 -1 11 C-0.67 14.63 -0.34 18.26 0 22 C-0.66 22 -1.32 22 -2 22 C-3.34882775 19.30234449 -3 16.98421978 -3 14 C-3.33 13.67 -3.66 13.34 -4 13 C-3.91062197 11.47480724 -3.75462854 9.95318071 -3.5625 8.4375 C-3.46066406 7.61121094 -3.35882813 6.78492187 -3.25390625 5.93359375 C-3.17011719 5.29550781 -3.08632813 4.65742187 -3 4 C-2.34 4 -1.68 4 -1 4 C-0.67 2.68 -0.34 1.36 0 0 Z " fill="#035468" transform="translate(47,81)"/>
<path d="M0 0 C0.66 0 1.32 0 2 0 C1.67 2.31 1.34 4.62 1 7 C2.32 7.33 3.64 7.66 5 8 C5.61741425 16.02638522 5.61741425 16.02638522 3.375 19.5625 C0.16147937 21.50752564 -1.29128535 21.72719895 -5 21 C-7.55908624 19.21842286 -9.7911324 17.19579737 -12 15 C-9 14 -9 14 -6.3125 15.3125 C-5.549375 15.869375 -4.78625 16.42625 -4 17 C-4 17.66 -4 18.32 -4 19 C-0.535 18.505 -0.535 18.505 3 18 C3.33 15.03 3.66 12.06 4 9 C2.68 8.67 1.36 8.34 0 8 C0 5.36 0 2.72 0 0 Z " fill="#2D2F2D" transform="translate(44,32)"/>
<path d="M0 0 C0.99 0.33 1.98 0.66 3 1 C3.103125 2.11375 3.20625 3.2275 3.3125 4.375 C3.539375 5.57125 3.76625 6.7675 4 8 C7.26281174 10.17520782 8.2340908 10.28244319 12 10 C12.99 9.67 13.98 9.34 15 9 C15 7.68 15 6.36 15 5 C15.66 5 16.32 5 17 5 C16.65544802 8.10096781 16.15182706 9.79937138 14.25 12.3125 C12 14 12 14 9.625 14.6875 C5.39527995 13.57971618 3.22000466 10.66230068 1 7 C0.27192197 4.55101026 0.10528163 2.57939993 0 0 Z " fill="#393A25" transform="translate(70,23)"/>
<path d="M0 0 C0.66 0 1.32 0 2 0 C2 0.99 2 1.98 2 3 C1.01 3.33 0.02 3.66 -1 4 C-0.67 4.99 -0.34 5.98 0 7 C-4.92984325 9.03993514 -8.57960425 10.40652968 -14 10 C-14 9.01 -14 8.02 -14 7 C-12.98679687 6.74476562 -12.98679687 6.74476562 -11.953125 6.484375 C-6.89989885 5.11153321 -3.44314891 4.1604716 0 0 Z " fill="#32CFCE" transform="translate(98,118)"/>
<path d="M0 0 C2.64 0.33 5.28 0.66 8 1 C8 1.99 8 2.98 8 4 C9.06541016 4.09087891 9.06541016 4.09087891 10.15234375 4.18359375 C11.07144531 4.26738281 11.99054688 4.35117188 12.9375 4.4375 C14.31228516 4.55931641 14.31228516 4.55931641 15.71484375 4.68359375 C18 5 18 5 19 6 C21.32817964 6.36760731 23.6618385 6.70241581 26 7 C26 7.33 26 7.66 26 8 C18.3829072 8.4461204 9.61671469 8.35761068 3.1953125 3.6875 C1.8125 2.3125 1.8125 2.3125 0 0 Z " fill="#037187" transform="translate(56,128)"/>
<path d="M0 0 C0.6875 2.3125 0.6875 2.3125 1 5 C-0.97394178 7.96091267 -3.72433516 8.84909073 -7 10 C-7 9.01 -7 8.02 -7 7 C-7.99 6.67 -8.98 6.34 -10 6 C-8.71283353 4.99421411 -7.42011342 3.99553202 -6.125 3 C-5.40570313 2.443125 -4.68640625 1.88625 -3.9453125 1.3125 C-2 0 -2 0 0 0 Z " fill="#7F3608" transform="translate(61,57)"/>
<path d="M0 0 C5.71428571 0.71428571 5.71428571 0.71428571 7 2 C7.04063832 3.66617115 7.042721 5.33388095 7 7 C4.6739143 7.38063221 2.33944736 7.71269945 0 8 C-1 7 -1 7 -1.125 4 C-1 1 -1 1 0 0 Z " fill="#909B40" transform="translate(69,40)"/>
<path d="M0 0 C0.33 0.99 0.66 1.98 1 3 C1.99 3.33 2.98 3.66 4 4 C4.33 6.31 4.66 8.62 5 11 C5.66 11 6.32 11 7 11 C7 11.99 7 12.98 7 14 C1.06 13.01 1.06 13.01 -5 12 C-5 11.67 -5 11.34 -5 11 C-3.02 11 -1.04 11 1 11 C1 8.69 1 6.38 1 4 C0.34 4 -0.32 4 -1 4 C-0.67 2.68 -0.34 1.36 0 0 Z " fill="#CA961A" transform="translate(89,37)"/>
<path d="M0 0 C1.32 0 2.64 0 4 0 C4 1.65 4 3.3 4 5 C-3.92 4.67 -11.84 4.34 -20 4 C-20 3.34 -20 2.68 -20 2 C-17.525 2.495 -17.525 2.495 -15 3 C-15 2.34 -15 1.68 -15 1 C-14.01 1 -13.02 1 -12 1 C-12 1.66 -12 2.32 -12 3 C-11.13375 2.814375 -10.2675 2.62875 -9.375 2.4375 C-5.94847372 1.99332067 -3.35787629 2.28045508 0 3 C0 2.01 0 1.02 0 0 Z " fill="#C6680C" transform="translate(92,53)"/>
<path d="M0 0 C3.875 0.875 3.875 0.875 5 2 C5.26994254 6.04913807 4.89725693 8.45845373 3 12 C3.33 12.66 3.66 13.32 4 14 C6.02463255 14.65213292 6.02463255 14.65213292 8 15 C7.67 13.02 7.34 11.04 7 9 C7.66 9 8.32 9 9 9 C9 11.31 9 13.62 9 16 C7.25 16.75 7.25 16.75 5 17 C2.75 15.75 2.75 15.75 1 13 C0.76628988 10.11899158 0.81388484 7.34707868 0.95703125 4.4609375 C1.18996149 1.99428962 1.18996149 1.99428962 0 0 Z " fill="#0C5492" transform="translate(73,16)"/>
<path d="M0 0 C3.00653015 0.42950431 4.883221 0.92214734 7.4375 2.625 C10.79084068 4.42435354 12.37825401 3.98088954 16 3 C17.68375165 2.37774395 19.35767228 1.72455635 21 1 C21 2.32 21 3.64 21 5 C13.97568387 6.76560568 9.40924506 7.70311937 3 4 C3 3.34 3 2.68 3 2 C2.34 2 1.68 2 1 2 C1 2.66 1 3.32 1 4 C0.34 3.67 -0.32 3.34 -1 3 C-0.67 2.01 -0.34 1.02 0 0 Z " fill="#C28410" transform="translate(68,34)"/>
<path d="M0 0 C1.65 0 3.3 0 5 0 C4.01773438 1.04027344 4.01773438 1.04027344 3.015625 2.1015625 C-0.53684785 7.43027177 0.59030456 14.25129402 0.75 20.375 C0.76804687 21.68339844 0.78609375 22.99179688 0.8046875 24.33984375 C0.85170652 27.56064689 0.91741819 30.77994474 1 34 C0.67 34 0.34 34 0 34 C0 25.42 0 16.84 0 8 C-0.66 8 -1.32 8 -2 8 C-2 6.68 -2 5.36 -2 4 C-1.34 4 -0.68 4 0 4 C0 2.68 0 1.36 0 0 Z " fill="#0AA0C4" transform="translate(112,80)"/>
<path d="M0 0 C0.90105469 0.11085938 1.80210938 0.22171875 2.73046875 0.3359375 C3.76107422 0.47902344 3.76107422 0.47902344 4.8125 0.625 C4.8125 1.285 4.8125 1.945 4.8125 2.625 C7.7825 3.12 7.7825 3.12 10.8125 3.625 C9.8225 5.11 9.8225 5.11 8.8125 6.625 C7.8225 5.965 6.8325 5.305 5.8125 4.625 C3.37299177 4.13101828 3.37299177 4.13101828 0.75 3.9375 C-0.12785156 3.85113281 -1.00570312 3.76476562 -1.91015625 3.67578125 C-4.22051463 3.44690655 -4.22051463 3.44690655 -6.1875 4.625 C-6.1875 3.965 -6.1875 3.305 -6.1875 2.625 C-6.8475 2.295 -7.5075 1.965 -8.1875 1.625 C-4.73535147 -0.67643236 -3.95270676 -0.51333854 0 0 Z " fill="#3FCDD3" transform="translate(81.1875,73.375)"/>
<path d="M0 0 C2.64 0 5.28 0 8 0 C7.67515625 0.81404297 7.67515625 0.81404297 7.34375 1.64453125 C7.0653125 2.35996094 6.786875 3.07539062 6.5 3.8125 C6.2215625 4.52019531 5.943125 5.22789063 5.65625 5.95703125 C4.8470838 8.11841216 4.8470838 8.11841216 5 11 C4.01 11 3.02 11 2 11 C2 9.02 2 7.04 2 5 C1.34 5 0.68 5 0 5 C0 3.35 0 1.7 0 0 Z " fill="#B47F2B" transform="translate(94,43)"/>
<path d="M0 0 C0.66 0.33 1.32 0.66 2 1 C2 2.98 2 4.96 2 7 C3.98 7 5.96 7 8 7 C8 8.66666667 8 10.33333333 8 12 C1.6166552 12.48176187 1.6166552 12.48176187 -1 10.4375 C-2.40663962 7.00881592 -1.80537401 4.55706853 -1 1 C-0.67 0.67 -0.34 0.34 0 0 Z " fill="#C38122" transform="translate(67,40)"/>
<path d="M0 0 C1.98 0 3.96 0 6 0 C5.01 1.485 5.01 1.485 4 3 C4.86625 3.72316406 4.86625 3.72316406 5.75 4.4609375 C6.86375 5.40839844 6.86375 5.40839844 8 6.375 C9.11375 7.31472656 9.11375 7.31472656 10.25 8.2734375 C10.8275 8.84320313 11.405 9.41296875 12 10 C12 10.66 12 11.32 12 12 C12.8971875 12.433125 12.8971875 12.433125 13.8125 12.875 C16 14 16 14 19 16 C19 16.66 19 17.32 19 18 C15.28570797 16.37278635 12.38358949 14.05329514 9.25 11.5 C8.26515625 10.7059375 7.2803125 9.911875 6.265625 9.09375 C5.51796875 8.4028125 4.7703125 7.711875 4 7 C4 6.34 4 5.68 4 5 C3.01 5 2.02 5 1 5 C0.67 3.35 0.34 1.7 0 0 Z " fill="#134458" transform="translate(28,45)"/>
<path d="M0 0 C0.66 0 1.32 0 2 0 C2 0.66 2 1.32 2 2 C2.99 2.33 3.98 2.66 5 3 C5 3.66 5 4.32 5 5 C4.34 5 3.68 5 3 5 C3.14107747 6.45880109 3.28802415 7.91703551 3.4375 9.375 C3.55931641 10.59316406 3.55931641 10.59316406 3.68359375 11.8359375 C3.89090114 14.04272805 3.89090114 14.04272805 5 16 C3.68 15.34 2.36 14.68 1 14 C1 12.35 1 10.7 1 9 C0.34 9 -0.32 9 -1 9 C-1.33 6.69 -1.66 4.38 -2 2 C-1.34 2 -0.68 2 0 2 C0 1.34 0 0.68 0 0 Z " fill="#B4A966" transform="translate(88,23)"/>
<path d="M0 0 C0.99 0 1.98 0 3 0 C3 0.66 3 1.32 3 2 C3.99 2.33 4.98 2.66 6 3 C6.0825 3.94875 6.165 4.8975 6.25 5.875 C6.65074923 9.10461791 6.65074923 9.10461791 9.0625 10.375 C9.701875 10.58125 10.34125 10.7875 11 11 C11 11.99 11 12.98 11 14 C6.89789238 12.48070088 4.36869943 9.5656041 2 6 C0.6875 2.625 0.6875 2.625 0 0 Z " fill="#056E8A" transform="translate(45,114)"/>
<path d="M0 0 C2.47330257 2.47330257 2.29746708 3.46232023 2.5 6.875 C2.71124261 10.41331372 3.06799612 12.98450745 5 16 C5.99 16.66 6.98 17.32 8 18 C8 18.66 8 19.32 8 20 C9.98 20.33 11.96 20.66 14 21 C13.01 21.66 12.02 22.32 11 23 C6.18685447 20.04647888 2.55817686 17.11635371 0 12 C-0.07065617 9.95944995 -0.08421976 7.91665743 -0.0625 5.875 C-0.05347656 4.77929688 -0.04445312 3.68359375 -0.03515625 2.5546875 C-0.02355469 1.71164063 -0.01195312 0.86859375 0 0 Z " fill="#05838E" transform="translate(64,88)"/>
<path d="M0 0 C-0.99 0.66 -1.98 1.32 -3 2 C-2.01 2.99 -1.02 3.98 0 5 C-3.07617188 5.29296875 -3.07617188 5.29296875 -6.15234375 5.5859375 C-6.76207031 5.72257812 -7.37179688 5.85921875 -8 6 C-8.33 6.66 -8.66 7.32 -9 8 C-9.66 6.02 -10.32 4.04 -11 2 C-3.57142857 -1.57142857 -3.57142857 -1.57142857 0 0 Z " fill="#C65E0B" transform="translate(71,54)"/>
<path d="M0 0 C0.66 0.33 1.32 0.66 2 1 C1.34 2.32 0.68 3.64 0 5 C1.65 5.33 3.3 5.66 5 6 C5 10.62 5 15.24 5 20 C4.67 20 4.34 20 4 20 C4 15.71 4 11.42 4 7 C2.3603125 7.061875 2.3603125 7.061875 0.6875 7.125 C-3 7 -3 7 -6 5 C-5.01 4.67 -4.02 4.34 -3 4 C-2.67 3.01 -2.34 2.02 -2 1 C-1.34 0.67 -0.68 0.34 0 0 Z " fill="#077485" transform="translate(107,84)"/>
<path d="M0 0 C-1.1446875 0.4021875 -1.1446875 0.4021875 -2.3125 0.8125 C-4.90881123 1.95970729 -6.1250348 2.94646668 -8 5 C-10.70879335 6.35439668 -13.00933268 6.06501451 -16 6 C-16 5.34 -16 4.68 -16 4 C-11.00780396 0.07756025 -6.25693852 -2.16586333 0 0 Z " fill="#0FAFB6" transform="translate(82,64)"/>
<path d="M0 0 C0.33 0 0.66 0 1 0 C2.96904441 22.43304172 2.96904441 22.43304172 0 28 C-1.32 27.67 -2.64 27.34 -4 27 C-3.5155542 26.61932373 -3.0311084 26.23864746 -2.53198242 25.84643555 C-0.45601345 23.34435534 -0.57359732 21.68197877 -0.48828125 18.45703125 C-0.45283203 17.38388672 -0.41738281 16.31074219 -0.38085938 15.20507812 C-0.35830078 14.08552734 -0.33574219 12.96597656 -0.3125 11.8125 C-0.27833984 10.68134766 -0.24417969 9.55019531 -0.20898438 8.38476562 C-0.12643686 5.5899426 -0.05730818 2.79543602 0 0 Z " fill="#098A93" transform="translate(110,91)"/>
<path d="M0 0 C0.75410156 0.00451172 1.50820312 0.00902344 2.28515625 0.01367188 C4.14847127 0.02546501 6.01174555 0.04340058 7.875 0.0625 C8.205 2.0425 8.535 4.0225 8.875 6.0625 C8.215 6.0625 7.555 6.0625 6.875 6.0625 C6.545 4.7425 6.215 3.4225 5.875 2.0625 C4.2704444 2.20398989 2.66636233 2.35085686 1.0625 2.5 C0.16917969 2.58121094 -0.72414063 2.66242188 -1.64453125 2.74609375 C-4.25243559 2.99739767 -4.25243559 2.99739767 -7.125 4.0625 C-7.125 3.4025 -7.125 2.7425 -7.125 2.0625 C-8.115 1.7325 -9.105 1.4025 -10.125 1.0625 C-6.93675432 -0.53162284 -3.49603338 -0.03924735 0 0 Z " fill="#1FCACA" transform="translate(90.125,62.9375)"/>
<path d="M0 0 C3.63 0 7.26 0 11 0 C11 0.66 11 1.32 11 2 C16.61 2 22.22 2 28 2 C21.20286198 6.53142535 10.97561348 3.88706524 3.30078125 2.6328125 C2.16189453 2.31957031 2.16189453 2.31957031 1 2 C0.67 1.34 0.34 0.68 0 0 Z " fill="#0ED6E6" transform="translate(61,136)"/>
<path d="M0 0 C3 0 3 0 5.32421875 2.19921875 C6.20722656 3.12347656 7.09023438 4.04773437 8 5 C9.91767024 6.62781995 11.85522043 8.23252733 13.8125 9.8125 C14.78832031 10.60269531 15.76414062 11.39289062 16.76953125 12.20703125 C17.50558594 12.79871094 18.24164063 13.39039063 19 14 C18.67 14.66 18.34 15.32 18 16 C13.38233375 13.07172384 8.81415654 9.94957039 5 6 C5 5.34 5 4.68 5 4 C2.525 3.01 2.525 3.01 0 2 C0 1.34 0 0.68 0 0 Z " fill="#156E99" transform="translate(29,50)"/>
<path d="M0 0 C7.43003083 0.60901892 7.43003083 0.60901892 9.75390625 2.203125 C11.48663208 4.70172651 11.26376095 6.42965231 11.125 9.4375 C10.98513234 12.86425762 10.98849145 15.70870678 12 19 C10 17.6875 10 17.6875 8 15 C7.63910552 11.31144615 7.77066541 7.6948351 8 4 C5.36 3.01 2.72 2.02 0 1 C0 0.67 0 0.34 0 0 Z " fill="#134267" transform="translate(64,14)"/>
<path d="M0 0 C3.93673644 1.31224548 6.22719294 2.91910327 9 6 C6.42786866 7.61949011 5.32330841 8.04408751 2.25 7.625 C1.5075 7.41875 0.765 7.2125 0 7 C0 4.69 0 2.38 0 0 Z " fill="#0A8890" transform="translate(85,77)"/>
<path d="M0 0 C5.66008328 -0.35062463 9.50543992 1.68727643 14 5 C15.5625 7.8125 15.5625 7.8125 16 10 C14.35 11.32 12.7 12.64 11 14 C11.33 11.36 11.66 8.72 12 6 C10.68 5.67 9.36 5.34 8 5 C8 4.34 8 3.68 8 3 C6.865625 2.87625 5.73125 2.7525 4.5625 2.625 C3.386875 2.41875 2.21125 2.2125 1 2 C0.67 1.34 0.34 0.68 0 0 Z " fill="#0D8DCA" transform="translate(37,62)"/>
<path d="M0 0 C2.97 0.495 2.97 0.495 6 1 C6.66 2.98 7.32 4.96 8 7 C11.71736641 7.34900558 11.71736641 7.34900558 14.8125 5.5 C15.204375 5.005 15.59625 4.51 16 4 C15.3125 6.4375 15.3125 6.4375 14 9 C10.87327877 10.26758969 9.39198948 10.13066316 6.1875 9.0625 C5.465625 8.711875 4.74375 8.36125 4 8 C4 6.02 4 4.04 4 2 C2.68 1.67 1.36 1.34 0 1 C0 0.67 0 0.34 0 0 Z " fill="#363027" transform="translate(47,32)"/>
<path d="M0 0 C0.33 0 0.66 0 1 0 C1.20625 1.093125 1.4125 2.18625 1.625 3.3125 C3.41619892 10.54172731 7.43768991 17.17113815 12 23 C9.525 22.01 9.525 22.01 7 21 C7 20.34 7 19.68 7 19 C6.34 19 5.68 19 5 19 C5 17.35 5 15.7 5 14 C4.34 14 3.68 14 3 14 C-0.00559652 8.99067246 -0.29341888 5.67276511 0 0 Z " fill="#0FA3BE" transform="translate(41,104)"/>
<path d="M0 0 C1.06863281 0.01804687 2.13726562 0.03609375 3.23828125 0.0546875 C4.04652344 0.07789062 4.85476562 0.10109375 5.6875 0.125 C5.6875 0.785 5.6875 1.445 5.6875 2.125 C6.6775 2.455 7.6675 2.785 8.6875 3.125 C7.6875 4.125 7.6875 4.125 4.625 4.1875 C3.655625 4.166875 2.68625 4.14625 1.6875 4.125 C1.6875 3.135 1.6875 2.145 1.6875 1.125 C-3.75817686 2.15362785 -8.43067117 3.37114784 -13.3125 6.125 C-12.32377542 3.42847841 -11.72037547 2.33476453 -9.125 1 C-5.93308108 0.00695856 -3.33523597 -0.07330189 0 0 Z " fill="#189AB5" transform="translate(79.3125,84.875)"/>
<path d="M0 0 C0.66 0 1.32 0 2 0 C2 0.66 2 1.32 2 2 C2.5775 2.226875 3.155 2.45375 3.75 2.6875 C6.77090989 4.44969744 8.22116957 5.96940001 10 9 C10.03677157 11.83141109 9.57011307 14.19694407 9 17 C8.34 17 7.68 17 7 17 C7.2165625 15.515 7.2165625 15.515 7.4375 14 C7.49213171 10.16797553 6.03095168 8.47307459 3.5 5.6875 C2.8503125 5.03136719 2.200625 4.37523438 1.53125 3.69921875 C0 2 0 2 0 0 Z " fill="#09698A" transform="translate(103,65)"/>
<path d="M0 0 C0.66 0.33 1.32 0.66 2 1 C1.67 2.98 1.34 4.96 1 7 C1.99 7.33 2.98 7.66 4 8 C4 8.66 4 9.32 4 10 C6.64 9.01 9.28 8.02 12 7 C11.67 8.32 11.34 9.64 11 11 C7.75 11.75 7.75 11.75 4 12 C1.625 10.5 1.625 10.5 0 8 C-0.8125 4.3125 -0.8125 4.3125 -1 1 C-0.67 0.67 -0.34 0.34 0 0 Z " fill="#353920" transform="translate(91,29)"/>
<path d="M0 0 C0.66 0 1.32 0 2 0 C1.49396008 2.16874252 1.00016187 3.99967627 0 6 C-0.66 6 -1.32 6 -2 6 C-2 6.66 -2 7.32 -2 8 C-3.65 8.33 -5.3 8.66 -7 9 C-7.33 8.01 -7.66 7.02 -8 6 C-6.68 5.67 -5.36 5.34 -4 5 C-4 4.34 -4 3.68 -4 3 C-4.66 2.67 -5.32 2.34 -6 2 C-4.02 2 -2.04 2 0 2 C0 1.34 0 0.68 0 0 Z " fill="#0F8C99" transform="translate(102,120)"/>
<path d="M0 0 C0.33 0 0.66 0 1 0 C1 1.98 1 3.96 1 6 C3.31 6 5.62 6 8 6 C8.33 7.65 8.66 9.3 9 11 C8.34 11 7.68 11 7 11 C7 10.01 7 9.02 7 8 C4.03 8 1.06 8 -2 8 C-1.125 1.125 -1.125 1.125 0 0 Z " fill="#55D4DE" transform="translate(85,97)"/>
<path d="M0 0 C0 3.63 0 7.26 0 11 C-1.32 10.67 -2.64 10.34 -4 10 C-4.75 7.25 -4.75 7.25 -5 4 C-1.84210526 0 -1.84210526 0 0 0 Z " fill="#06D2F0" transform="translate(75,93)"/>
<path d="M0 0 C3.57104439 1.87949705 5.54744301 3.17053157 7 7 C7.66 7 8.32 7 9 7 C10.7143618 8.95927063 12.38405168 10.95880212 14 13 C7.8831016 12.00132271 5.26478709 9.6520024 1.28515625 4.97265625 C0 3 0 3 0 0 Z " fill="#1AB2AE" transform="translate(53,109)"/>
<path d="M0 0 C0 3 0 3 -1 5 C-6.49532691 7.60304959 -12.06598307 7.19005748 -18 7 C-18 6.34 -18 5.68 -18 5 C-16.948125 5.04125 -15.89625 5.0825 -14.8125 5.125 C-9.08565015 4.93723443 -5.04379853 2.58054809 0 0 Z " fill="#31CCC9" transform="translate(95,106)"/>
<path d="M0 0 C0 0.99 0 1.98 0 3 C-2.31 3 -4.62 3 -7 3 C-7 4.65 -7 6.3 -7 8 C-6.34 8 -5.68 8 -5 8 C-5 9.32 -5 10.64 -5 12 C-5.99 11.67 -6.98 11.34 -8 11 C-8 10.34 -8 9.68 -8 9 C-8.66 8.67 -9.32 8.34 -10 8 C-9.9375 5.6875 -9.9375 5.6875 -9 3 C-3.31034483 0 -3.31034483 0 0 0 Z " fill="#0B69AA" transform="translate(34,40)"/>
<path d="M0 0 C0 6.60090487 -3.67116837 12.49020971 -7 18 C-7.66 18 -8.32 18 -9 18 C-8.52309796 16.37433394 -8.04340334 14.74948689 -7.5625 13.125 C-7.16224609 11.76761719 -7.16224609 11.76761719 -6.75390625 10.3828125 C-6 8 -6 8 -5 6 C-4.34 6 -3.68 6 -3 6 C-2.814375 5.071875 -2.814375 5.071875 -2.625 4.125 C-2 2 -2 2 0 0 Z " fill="#1B3F52" transform="translate(106,42)"/>
<path d="M0 0 C0.33 0.66 0.66 1.32 1 2 C1.66 2.33 2.32 2.66 3 3 C2.67 3.33 2.34 3.66 2 4 C1.81473233 8.53705332 1.81473233 8.53705332 2.5 13 C3.24860828 15.9944331 3.05904028 18.92990521 3 22 C1.07136286 20.15741754 0.07990406 18.65121023 -0.24755859 15.98242188 C-0.29505495 13.56572541 -0.26111304 11.16601788 -0.1875 8.75 C-0.17396484 7.90953125 -0.16042969 7.0690625 -0.14648438 6.203125 C-0.11123464 4.13514062 -0.0574302 2.06748729 0 0 Z " fill="#01687F" transform="translate(42,92)"/>
<path d="M0 0 C0 0.66 0 1.32 0 2 C-0.99 2.33 -1.98 2.66 -3 3 C-3.33 3.66 -3.66 4.32 -4 5 C-3.34 5 -2.68 5 -2 5 C-2 5.66 -2 6.32 -2 7 C-3.65 7 -5.3 7 -7 7 C-6.67 5.68 -6.34 4.36 -6 3 C-6.99 3 -7.98 3 -9 3 C-9 2.34 -9 1.68 -9 1 C-5.64919071 -1.10976881 -3.77897651 -1.0497157 0 0 Z " fill="#055C75" transform="translate(82,77)"/>
<path d="M0 0 C2.97 0 5.94 0 9 0 C9 0.99 9 1.98 9 3 C9.66 3.33 10.32 3.66 11 4 C9.54176788 4.0270043 8.08339325 4.04639787 6.625 4.0625 C5.81289062 4.07410156 5.00078125 4.08570313 4.1640625 4.09765625 C2 4 2 4 0 3 C0 2.01 0 1.02 0 0 Z " fill="#29AEB1" transform="translate(75,125)"/>
<path d="M0 0 C1.5 1.375 1.5 1.375 3 3 C3 3.66 3 4.32 3 5 C3.66 5 4.32 5 5 5 C4.67 5.99 4.34 6.98 4 8 C1.9375 8.6875 1.9375 8.6875 0 9 C-0.33 8.01 -0.66 7.02 -1 6 C-0.34 6 0.32 6 1 6 C1 5.01 1 4.02 1 3 C0.01 3 -0.98 3 -2 3 C-2 3.66 -2 4.32 -2 5 C-3.32 4.34 -4.64 3.68 -6 3 C-4 2 -2 1 0 0 Z " fill="#4A330D" transform="translate(48,53)"/>
<path d="M0 0 C1.32 0 2.64 0 4 0 C4.79953138 3.28696233 5.09658936 4.71023192 4 8 C2.35 8 0.7 8 -1 8 C-1 6.68 -1 5.36 -1 4 C-0.34 4 0.32 4 1 4 C0.67 2.68 0.34 1.36 0 0 Z " fill="#095AA5" transform="translate(56,29)"/>
<path d="M0 0 C1.98 0 3.96 0 6 0 C6 0.99 6 1.98 6 3 C6.763125 2.484375 7.52625 1.96875 8.3125 1.4375 C9.199375 0.963125 10.08625 0.48875 11 0 C11.99 0.33 12.98 0.66 14 1 C11.375 3.125 11.375 3.125 8 5 C4.97929999 4.36100577 2.73672501 3.3683625 0 2 C0 1.34 0 0.68 0 0 Z " fill="#2C4335" transform="translate(48,64)"/>
<path d="M0 0 C2.64 0 5.28 0 8 0 C8 0.99 8 1.98 8 3 C5.03 3.66 2.06 4.32 -1 5 C-0.67 3.35 -0.34 1.7 0 0 Z " fill="#026379" transform="translate(84,105)"/>
<path d="M0 0 C3.07943151 2.05295434 3.79293121 2.65734795 5 6 C5.125 9.25 5.125 9.25 5 12 C4.01 12.33 3.02 12.66 2 13 C1.34 13.66 0.68 14.32 0 15 C0.50603992 12.83125748 0.99983813 11.00032373 2 9 C1.3409159 7.33032028 0.67349161 5.66392045 0 4 C0 2.68 0 1.36 0 0 Z " fill="#3BDDD7" transform="translate(98,64)"/>
<path d="M0 0 C0.66 0 1.32 0 2 0 C1.67 2.31 1.34 4.62 1 7 C1.66 7 2.32 7 3 7 C3 7.66 3 8.32 3 9 C1 10.625 1 10.625 -1 12 C-2.24834144 9.50331711 -1.95155125 8.18670849 -1.625 5.4375 C-1.53476563 4.63183594 -1.44453125 3.82617188 -1.3515625 2.99609375 C-1 1 -1 1 0 0 Z " fill="#05CCE7" transform="translate(117,102)"/>
<path d="M0 0 C0.66 0 1.32 0 2 0 C2 0.66 2 1.32 2 2 C3.32 2.33 4.64 2.66 6 3 C7.0326802 5.78823655 7.04509293 6.8677274 6.0625 9.75 C5.711875 10.4925 5.36125 11.235 5 12 C3.35 12 1.7 12 0 12 C0 11.01 0 10.02 0 9 C0.99 9 1.98 9 3 9 C3.66 7.35 4.32 5.7 5 4 C4.0409375 3.8453125 4.0409375 3.8453125 3.0625 3.6875 C2.381875 3.460625 1.70125 3.23375 1 3 C0.67 2.01 0.34 1.02 0 0 Z " fill="#0C9ACF" transform="translate(43,65)"/>
<path d="M0 0 C0.99 0 1.98 0 3 0 C3 0.99 3 1.98 3 3 C-3.11141157 7.03353164 -3.11141157 7.03353164 -7.3125 6.875 C-10 6 -10 6 -12 4 C-10.7625 4.0825 -9.525 4.165 -8.25 4.25 C-4.93566007 4.27338159 -4.30437477 4.26324304 -1.6875 2 C-1.130625 1.34 -0.57375 0.68 0 0 Z " fill="#D09F46" transform="translate(86,32)"/>
<path d="M0 0 C5.4611399 0.35233161 5.4611399 0.35233161 8 1 C9.5 3.0625 9.5 3.0625 10 5 C7.1906341 5.15607588 5.44167672 5.24091457 2.9375 3.875 C2.298125 3.58625 1.65875 3.2975 1 3 C-1.23470405 3.78309467 -1.23470405 3.78309467 -3 5 C-2.67 4.01 -2.34 3.02 -2 2 C-1.34 2 -0.68 2 0 2 C0 1.34 0 0.68 0 0 Z " fill="#2A4048" transform="translate(63,15)"/>
<path d="M0 0 C0 0.99 0 1.98 0 3 C-2.88834003 5.10770759 -4.38462395 6 -8 6 C-8 5.34 -8 4.68 -8 4 C-7.34 4 -6.68 4 -6 4 C-6 3.34 -6 2.68 -6 2 C-7.32 1.67 -8.64 1.34 -10 1 C-6.61981469 -0.04005702 -3.5219721 -0.08004482 0 0 Z " fill="#0C7281" transform="translate(96,127)"/>
<path d="M0 0 C2.64 0 5.28 0 8 0 C8 3.3 8 6.6 8 10 C7.67 10 7.34 10 7 10 C6.9175 9.21625 6.835 8.4325 6.75 7.625 C6.27193661 4.85250896 6.27193661 4.85250896 3.9375 3.6875 C3.298125 3.460625 2.65875 3.23375 2 3 C2 2.34 2 1.68 2 1 C1.34 0.67 0.68 0.34 0 0 Z " fill="#6DE2E7" transform="translate(102,91)"/>
<path d="M0 0 C2.475 0.99 2.475 0.99 5 2 C5 2.99 5 3.98 5 5 C1.37 5 -2.26 5 -6 5 C-5.67 4.34 -5.34 3.68 -5 3 C-3.66666667 2.66666667 -2.33333333 2.33333333 -1 2 C-0.67 1.34 -0.34 0.68 0 0 Z " fill="#107080" transform="translate(88,86)"/>
<path d="M0 0 C1.70840281 1.63412443 2.93453047 2.86906094 4 5 C5.97888961 5.72693904 7.97954558 6.39816251 10 7 C6.18243176 8.37432457 2.92744671 7.67975039 -1 7 C-1 6.34 -1 5.68 -1 5 C-1.66 5 -2.32 5 -3 5 C-3 4.34 -3 3.68 -3 3 C-2.01 2.67 -1.02 2.34 0 2 C0 1.34 0 0.68 0 0 Z " fill="#16909A" transform="translate(94,83)"/>
<path d="M0 0 C0.33 0.99 0.66 1.98 1 3 C0.01 3.33 -0.98 3.66 -2 4 C-2 4.66 -2 5.32 -2 6 C-4.375 7.6875 -4.375 7.6875 -7 9 C-7.66 8.67 -8.32 8.34 -9 8 C-8.26418258 6.8450079 -7.51069961 5.70125815 -6.75 4.5625 C-6.33234375 3.92441406 -5.9146875 3.28632812 -5.484375 2.62890625 C-3.72751123 0.70097943 -2.53910197 0.38520564 0 0 Z " fill="#138E96" transform="translate(58,71)"/>
<path d="M0 0 C0 0.99 0 1.98 0 3 C-0.33 3.33 -0.66 3.66 -1 4 C-1.28221172 6.58022142 -1.44820197 9.16030185 -1.62109375 11.75 C-1.74613281 12.4925 -1.87117188 13.235 -2 14 C-2.99 14.495 -2.99 14.495 -4 15 C-4 12.69 -4 10.38 -4 8 C-4.66 8 -5.32 8 -6 8 C-6 6 -6 6 -4 4 C-2.66666667 2.66666667 -1.33333333 1.33333333 0 0 Z " fill="#A64D08" transform="translate(64,40)"/>
<path d="M0 0 C0 0.66 0 1.32 0 2 C-1.42578125 3.1484375 -1.42578125 3.1484375 -3.3125 4.375 C-6.13573111 6.3009694 -8.15419546 8.06842808 -10 11 C-10.33 10.01 -10.66 9.02 -11 8 C-9.6875 5.8125 -9.6875 5.8125 -8 4 C-7.34 4 -6.68 4 -6 4 C-5.67 3.01 -5.34 2.02 -5 1 C-3 0 -3 0 0 0 Z " fill="#53CED7" transform="translate(75,76)"/>
<path d="M0 0 C0.7425 0.350625 1.485 0.70125 2.25 1.0625 C5.22700644 2.07738856 6.12367895 2.02063005 9 1 C11 0.5 11 0.5 13 0 C12.01 0.495 12.01 0.495 11 1 C11 1.66 11 2.32 11 3 C6.545 4.485 6.545 4.485 2 6 C1.34 4.02 0.68 2.04 0 0 Z " fill="#0F5962" transform="translate(51,67)"/>
<path d="M0 0 C0.66 0 1.32 0 2 0 C2 0.66 2 1.32 2 2 C1.34 2 0.68 2 0 2 C-0.33 3.32 -0.66 4.64 -1 6 C-4.96 6 -8.92 6 -13 6 C-13 5.67 -13 5.34 -13 5 C-11.96939453 4.83564453 -11.96939453 4.83564453 -10.91796875 4.66796875 C-10.01691406 4.50941406 -9.11585937 4.35085937 -8.1875 4.1875 C-6.84751953 3.96126953 -6.84751953 3.96126953 -5.48046875 3.73046875 C-2.78321371 2.936159 -1.85439811 2.03259853 0 0 Z " fill="#015E6E" transform="translate(88,129)"/>
<path d="M0 0 C0.66 0.33 1.32 0.66 2 1 C0.25 3.5 0.25 3.5 -2 6 C-3.32 6 -4.64 6 -6 6 C-6 6.66 -6 7.32 -6 8 C-7.65 8 -9.3 8 -11 8 C-10.01 7.67 -9.02 7.34 -8 7 C-8 6.01 -8 5.02 -8 4 C-6.865625 3.525625 -5.73125 3.05125 -4.5625 2.5625 C-1.24259834 1.36377917 -1.24259834 1.36377917 0 0 Z " fill="#24C5C6" transform="translate(108,114)"/>
<path d="M0 0 C4.875 2.75 4.875 2.75 6 5 C8.02463255 5.65213292 8.02463255 5.65213292 10 6 C9.34 7.32 8.68 8.64 8 10 C7.34 10 6.68 10 6 10 C3.67980703 6.80973467 1.65356922 3.58273331 0 0 Z " fill="#54DEE3" transform="translate(91,78)"/>
<path d="M0 0 C0.66 0.33 1.32 0.66 2 1 C-0.21928194 3.90802461 -1.92969143 5.95312762 -5 8 C-6.32 8 -7.64 8 -9 8 C-9 7.34 -9 6.68 -9 6 C-7.68 6 -6.36 6 -5 6 C-5 5.34 -5 4.68 -5 4 C-4.34 4 -3.68 4 -3 4 C-2.67 3.01 -2.34 2.02 -2 1 C-1.34 0.67 -0.68 0.34 0 0 Z " fill="#223E50" transform="translate(104,31)"/>
<path d="M0 0 C0.33 0.99 0.66 1.98 1 3 C3.01508358 3.73323796 3.01508358 3.73323796 5 4 C5.33 2.68 5.66 1.36 6 0 C6.99 0.66 7.98 1.32 9 2 C8.67 2.66 8.34 3.32 8 4 C7.34 4 6.68 4 6 4 C6 4.66 6 5.32 6 6 C4.33388095 6.042721 2.66617115 6.04063832 1 6 C0 5 0 5 -0.0625 2.4375 C-0.041875 1.633125 -0.02125 0.82875 0 0 Z " fill="#104F85" transform="translate(93,31)"/>
<path d="M0 0 C0.33 0.66 0.66 1.32 1 2 C6.1584415 4.24855142 11.45577718 4.58363544 17 5 C17 5.33 17 5.66 17 6 C11.68760353 7.36215294 7.12950324 6.75429011 2 5 C1.34 4.34 0.68 3.68 0 3 C0 2.01 0 1.02 0 0 Z " fill="#20D5CB" transform="translate(67,108)"/>
<path d="M0 0 C1.67180274 0.94934513 3.33733936 1.90973313 5 2.875 C5.928125 3.40867187 6.85625 3.94234375 7.8125 4.4921875 C8.8953125 5.23855469 8.8953125 5.23855469 10 6 C10 6.66 10 7.32 10 8 C6.83869257 7.29748724 3.90280067 6.45140033 1 5 C-0.3125 2.875 -0.3125 2.875 -1 1 C-0.67 0.67 -0.34 0.34 0 0 Z " fill="#3ED2D0" transform="translate(67,105)"/>
<path d="M0 0 C0.99 0 1.98 0 3 0 C2.67 1.32 2.34 2.64 2 4 C1.34 4 0.68 4 0 4 C0.33 4.99 0.66 5.98 1 7 C0.01 7 -0.98 7 -2 7 C-2 6.34 -2 5.68 -2 5 C-2.66 5 -3.32 5 -4 5 C-3.67 4.01 -3.34 3.02 -3 2 C-2.01 2 -1.02 2 0 2 C0 1.34 0 0.68 0 0 Z " fill="#096D83" transform="translate(82,77)"/>
<path d="M0 0 C0.33 0.99 0.66 1.98 1 3 C3.01508358 3.73323796 3.01508358 3.73323796 5 4 C1.25 7 1.25 7 -1 7 C-1 6.01 -1 5.02 -1 4 C-1.99 3.67 -2.98 3.34 -4 3 C-2.68 2.01 -1.36 1.02 0 0 Z " fill="#532808" transform="translate(55,60)"/>
<path d="M0 0 C1.32 0 2.64 0 4 0 C5.125 4.75 5.125 4.75 4 7 C3.34 7 2.68 7 2 7 C2 6.01 2 5.02 2 4 C1.01 3.67 0.02 3.34 -1 3 C-0.67 2.01 -0.34 1.02 0 0 Z " fill="#B0B946" transform="translate(86,41)"/>
<path d="M0 0 C0.66 0 1.32 0 2 0 C0.81819916 5.02265357 -0.44992282 8.0949151 -4 12 C-4 10.02 -4 8.04 -4 6 C-3.34 6 -2.68 6 -2 6 C-1.34 4.02 -0.68 2.04 0 0 Z " fill="#403F2E" transform="translate(106,36)"/>
<path d="M0 0 C0.99 0.33 1.98 0.66 3 1 C3.125 7.75 3.125 7.75 2 10 C1.34 10 0.68 10 0 10 C0 6.7 0 3.4 0 0 Z " fill="#0F7F92" transform="translate(80,99)"/>
<path d="M0 0 C5.28 0 10.56 0 16 0 C16 0.99 16 1.98 16 3 C10.72 2.34 5.44 1.68 0 1 C0 0.67 0 0.34 0 0 Z " fill="#9A7741" transform="translate(80,58)"/>
<path d="M0 0 C1.32 0 2.64 0 4 0 C4 1.65 4 3.3 4 5 C1.125 5.125 1.125 5.125 -2 5 C-2.66 4.34 -3.32 3.68 -4 3 C-2.68 3 -1.36 3 0 3 C0 2.01 0 1.02 0 0 Z " fill="#B7600C" transform="translate(92,53)"/>
<path d="M0 0 C0 4.02147098 -1.68383605 6.82309945 -4 10 C-6.25 11.4375 -6.25 11.4375 -8 12 C-7.33333333 10.66666667 -6.66666667 9.33333333 -6 8 C-5.525625 6.96875 -5.05125 5.9375 -4.5625 4.875 C-3 2 -3 2 0 0 Z " fill="#085C9C" transform="translate(109,44)"/>
<path d="M0 0 C0.99 0.33 1.98 0.66 3 1 C3.6875 3.0625 3.6875 3.0625 4 5 C3.34 5 2.68 5 2 5 C0.3553326 7.46326712 0.3553326 7.46326712 -1 10 C-2.31223496 6.06329512 -1.24296256 3.87511856 0 0 Z " fill="#A04B05" transform="translate(67,30)"/>
<path d="M0 0 C0.69480469 0.14308594 1.38960937 0.28617188 2.10546875 0.43359375 C5.16693345 1.03266579 8.23455833 1.55514698 11.3125 2.0625 C12.38113281 2.23910156 13.44976562 2.41570312 14.55078125 2.59765625 C15.35902344 2.73042969 16.16726562 2.86320313 17 3 C17 3.33 17 3.66 17 4 C5.47835991 4.55353075 5.47835991 4.55353075 0 1 C0 0.67 0 0.34 0 0 Z " fill="#13C1D5" transform="translate(55,132)"/>
<path d="M0 0 C0.91058531 3.07322544 1.08886184 5.80097361 1 9 C1.99 9.33 2.98 9.66 4 10 C2.35 10 0.7 10 -1 10 C-2.38125018 7.23749964 -2.19079306 5.05268901 -2 2 C-1.34 1.34 -0.68 0.68 0 0 Z " fill="#0978B8" transform="translate(103,54)"/>
<path d="M0 0 C2.97 0 5.94 0 9 0 C9.33 1.32 9.66 2.64 10 4 C5.545 3.01 5.545 3.01 1 2 C0.67 2.99 0.34 3.98 0 5 C0 3.35 0 1.7 0 0 Z " fill="#135988" transform="translate(27,43)"/>
<path d="M0 0 C0.99 0.33 1.98 0.66 3 1 C3 1.66 3 2.32 3 3 C2.34 3 1.68 3 1 3 C1 4.32 1 5.64 1 7 C1.66 7 2.32 7 3 7 C2.67 7.66 2.34 8.32 2 9 C0.68 8.67 -0.64 8.34 -2 8 C-1.814375 7.38125 -1.62875 6.7625 -1.4375 6.125 C-0.76313824 3.95839822 -0.76313824 3.95839822 -2 2 C-1.34 2 -0.68 2 0 2 C0 1.34 0 0.68 0 0 Z " fill="#0F8EA7" transform="translate(109,81)"/>
<path d="M0 0 C1.98 0 3.96 0 6 0 C6 1.65 6 3.3 6 5 C3.03 4.505 3.03 4.505 0 4 C0 2.68 0 1.36 0 0 Z " fill="#9A7639" transform="translate(60,21)"/>
<path d="M0 0 C0.66 0 1.32 0 2 0 C2.33 3.63 2.66 7.26 3 11 C2.01 10.67 1.02 10.34 0 10 C0 6.7 0 3.4 0 0 Z " fill="#13B4AE" transform="translate(50,96)"/>
<path d="M0 0 C2.475 0.495 2.475 0.495 5 1 C4.67 2.32 4.34 3.64 4 5 C3.34 5 2.68 5 2 5 C1.67 5.66 1.34 6.32 1 7 C0.67 4.69 0.34 2.38 0 0 Z " fill="#49D7D4" transform="translate(100,79)"/>
<path d="M0 0 C1.98 0.66 3.96 1.32 6 2 C6 2.66 6 3.32 6 4 C7.65 4 9.3 4 11 4 C11 4.33 11 4.66 11 5 C6.45194365 5.17835515 3.1205746 4.99785435 -1 3 C-0.67 2.01 -0.34 1.02 0 0 Z " fill="#0BC2B6" transform="translate(71,120)"/>
<path d="M0 0 C2.97 0 5.94 0 9 0 C7.02 0.99 7.02 0.99 5 2 C4.319375 2.37125 3.63875 2.7425 2.9375 3.125 C1 4 1 4 -2 4 C-2 3.34 -2 2.68 -2 2 C-1.34 2 -0.68 2 0 2 C0 1.34 0 0.68 0 0 Z " fill="#9A6C37" transform="translate(63,60)"/>
<path d="M0 0 C2.50298434 2.93828597 3.46930939 5.17902761 4 9 C1 8 1 8 -0.6875 4.9375 C-1.120625 3.968125 -1.55375 2.99875 -2 2 C-1.34 1.34 -0.68 0.68 0 0 Z " fill="#71350F" transform="translate(50,50)"/>
<path d="M0 0 C2.475 0.99 2.475 0.99 5 2 C4.34 3.32 3.68 4.64 3 6 C1.68 6 0.36 6 -1 6 C-0.67 4.02 -0.34 2.04 0 0 Z " fill="#8E7543" transform="translate(46,32)"/>
<path d="M0 0 C0.99 0 1.98 0 3 0 C3.66 1.32 4.32 2.64 5 4 C4.34 4 3.68 4 3 4 C2.67 6.31 2.34 8.62 2 11 C1.67 11 1.34 11 1 11 C0.67 7.37 0.34 3.74 0 0 Z " fill="#AF6E2B" transform="translate(64,26)"/>
<path d="M0 0 C0.99 0.33 1.98 0.66 3 1 C2.525625 1.37125 2.05125 1.7425 1.5625 2.125 C-0.52205802 4.62646962 -0.64621491 6.81593418 -1 10 C-3 8 -3 8 -3.3125 5 C-3.209375 4.01 -3.10625 3.02 -3 2 C-2.01 1.34 -1.02 0.68 0 0 Z " fill="#0A416C" transform="translate(60,16)"/>
<path d="M0 0 C0.99 0.33 1.98 0.66 3 1 C4.1875 3.5625 4.1875 3.5625 5 6 C3.35 7.32 1.7 8.64 0 10 C0.185625 9.0925 0.37125 8.185 0.5625 7.25 C0.95734621 4.31685676 0.94691572 2.7355343 0 0 Z " fill="#1984A6" transform="translate(48,66)"/>
<path d="M0 0 C3.65316671 1.24976756 4.78065836 1.67098753 7 5 C6.34 5 5.68 5 5 5 C4.67 5.66 4.34 6.32 4 7 C0 2.25 0 2.25 0 0 Z " fill="#69DCE6" transform="translate(100,66)"/>
<path d="M0 0 C4.31392226 0.4793247 6.16569547 1.7457985 9 5 C8.67 5.99 8.34 6.98 8 8 C6.66372225 6.85760183 5.33104612 5.71098945 4 4.5625 C3.2575 3.92441406 2.515 3.28632812 1.75 2.62890625 C1.1725 2.09136719 0.595 1.55382813 0 1 C0 0.67 0 0.34 0 0 Z " fill="#49524D" transform="translate(30,47)"/>
<path d="M0 0 C1.34173403 0.92543709 2.67320159 1.86577405 4 2.8125 C5.11375 3.59560547 5.11375 3.59560547 6.25 4.39453125 C6.8275 4.92433594 7.405 5.45414062 8 6 C8 6.99 8 7.98 8 9 C6.8450079 8.26418258 5.70125815 7.51069961 4.5625 6.75 C3.60537109 6.12351562 3.60537109 6.12351562 2.62890625 5.484375 C0.70097943 3.72751123 0.38520564 2.53910197 0 0 Z " fill="#37A2AA" transform="translate(55,115)"/>
<path d="M0 0 C0.99 0.33 1.98 0.66 3 1 C1.5998884 3.8002232 -0.26572551 4.56776098 -3 6 C-3.99 6 -4.98 6 -6 6 C-6 5.34 -6 4.68 -6 4 C-3.1875 1.8125 -3.1875 1.8125 0 0 Z " fill="#12403F" transform="translate(62,64)"/>
<path d="M0 0 C1.98 0 3.96 0 6 0 C6 0.66 6 1.32 6 2 C3.03 2.66 0.06 3.32 -3 4 C-2.34 3.67 -1.68 3.34 -1 3 C-0.67 2.01 -0.34 1.02 0 0 Z " fill="#05CAC6" transform="translate(77,65)"/>
<path d="M0 0 C1.65 0 3.3 0 5 0 C5 1.32 5 2.64 5 4 C3.35 4 1.7 4 0 4 C0 2.68 0 1.36 0 0 Z " fill="#728E4F" transform="translate(53,49)"/>
<path d="M0 0 C1.32 0 2.64 0 4 0 C4 0.66 4 1.32 4 2 C4.66 2.33 5.32 2.66 6 3 C3.36 3.33 0.72 3.66 -2 4 C-2 3.34 -2 2.68 -2 2 C-1.34 2 -0.68 2 0 2 C0 1.34 0 0.68 0 0 Z " fill="#DB830B" transform="translate(78,46)"/>
<path d="M0 0 C1.32 0 2.64 0 4 0 C4 1.32 4 2.64 4 4 C2.68 4 1.36 4 0 4 C0 2.68 0 1.36 0 0 Z M-2 4 C-1.34 4 -0.68 4 0 4 C0 4.66 0 5.32 0 6 C-0.66 6 -1.32 6 -2 6 C-2 5.34 -2 4.68 -2 4 Z " fill="#DD9312" transform="translate(78,42)"/>
<path d="M0 0 C2.31 0.33 4.62 0.66 7 1 C6.67 1.99 6.34 2.98 6 4 C4.35 4 2.7 4 1 4 C0.67 2.68 0.34 1.36 0 0 Z " fill="#26466B" transform="translate(54,36)"/>
<path d="M0 0 C0.33 0.66 0.66 1.32 1 2 C1.825 2.309375 2.65 2.61875 3.5 2.9375 C4.325 3.288125 5.15 3.63875 6 4 C6.33 4.99 6.66 5.98 7 7 C4.69 6.34 2.38 5.68 0 5 C0 3.35 0 1.7 0 0 Z " fill="#0EBBD7" transform="translate(47,123)"/>
<path d="M0 0 C0.33 0 0.66 0 1 0 C1.36923077 5.41538462 1.36923077 5.41538462 -0.5 8.375 C-0.995 8.91125 -1.49 9.4475 -2 10 C-2.66 9.67 -3.32 9.34 -4 9 C-2.68 6.03 -1.36 3.06 0 0 Z " fill="#14A6B9" transform="translate(111,114)"/>
<path d="M0 0 C1.65 0 3.3 0 5 0 C3.52307692 4.67692308 3.52307692 4.67692308 0.875 6.3125 C-0.053125 6.6528125 -0.053125 6.6528125 -1 7 C-1.66 6.34 -2.32 5.68 -3 5 C-2.360625 4.71125 -1.72125 4.4225 -1.0625 4.125 C1.15206079 3.17176549 1.15206079 3.17176549 2 1 C1.34 0.67 0.68 0.34 0 0 Z " fill="#78451F" transform="translate(52,56)"/>
<path d="M0 0 C1.98 0 3.96 0 6 0 C5.67 1.65 5.34 3.3 5 5 C4.01 4.67 3.02 4.34 2 4 C2 3.34 2 2.68 2 2 C1.34 2 0.68 2 0 2 C0 1.34 0 0.68 0 0 Z " fill="#83BF70" transform="translate(68,42)"/>
<path d="M0 0 C2.375 0.25 2.375 0.25 5 1 C6.3125 3.0625 6.3125 3.0625 7 5 C5.68 4.67 4.36 4.34 3 4 C3 3.34 3 2.68 3 2 C2.34 2 1.68 2 1 2 C1 2.66 1 3.32 1 4 C0.34 3.67 -0.32 3.34 -1 3 C-0.67 2.01 -0.34 1.02 0 0 Z " fill="#BE660E" transform="translate(68,34)"/>
<path d="M0 0 C2.97 0 5.94 0 9 0 C9.33 1.65 9.66 3.3 10 5 C9.34 5 8.68 5 8 5 C8 4.01 8 3.02 8 2 C5.36 1.67 2.72 1.34 0 1 C0 0.67 0 0.34 0 0 Z " fill="#0F4C78" transform="translate(45,31)"/>
<path d="M0 0 C1 2 1 2 0.1875 5.5625 C-1 9 -1 9 -3 10 C-3.36923077 4.58461538 -3.36923077 4.58461538 -1.5 1.625 C-1.005 1.08875 -0.51 0.5525 0 0 Z " fill="#1D3D4D" transform="translate(110,30)"/>
<path d="M0 0 C1.32 0.33 2.64 0.66 4 1 C5 4 5 4 4.0625 6.1875 C3.5365625 7.0846875 3.5365625 7.0846875 3 8 C2.67 8 2.34 8 2 8 C1.34 5.36 0.68 2.72 0 0 Z " fill="#074E83" transform="translate(73,16)"/>
<path d="M0 0 C2.64 0 5.28 0 8 0 C7.67 0.66 7.34 1.32 7 2 C4.67843403 2.40729228 2.3431213 2.74438677 0 3 C0 2.01 0 1.02 0 0 Z " fill="#91EDED" transform="translate(83,91)"/>
<path d="M0 0 C1.4370809 -0.05422947 2.87475462 -0.09289723 4.3125 -0.125 C5.11300781 -0.14820312 5.91351563 -0.17140625 6.73828125 -0.1953125 C9 0 9 0 12 2 C11.34 2.66 10.68 3.32 10 4 C9.01 3.34 8.02 2.68 7 2 C4.67612053 1.60612212 2.34206251 1.26513915 0 1 C0 0.67 0 0.34 0 0 Z " fill="#34C3CB" transform="translate(80,76)"/>
<path d="M0 0 C0.33 0.66 0.66 1.32 1 2 C-0.98 4.97 -0.98 4.97 -3 8 C-3.75 6.25 -3.75 6.25 -4 4 C-2.0625 1.75 -2.0625 1.75 0 0 Z " fill="#ACA791" transform="translate(108,30)"/>
<path d="M0 0 C2.12038635 2.61514317 4.13091744 5.19637616 6 8 C3.13275314 7.42655063 2.1385485 7.1385485 0 5 C-0.125 2.375 -0.125 2.375 0 0 Z " fill="#B7915C" transform="translate(70,28)"/>
<path d="M0 0 C1.32 0.66 2.64 1.32 4 2 C3.67 4.31 3.34 6.62 3 9 C2 6 2 6 2 4 C1.01 3.67 0.02 3.34 -1 3 C-0.67 2.01 -0.34 1.02 0 0 Z " fill="#0D3B68" transform="translate(108,26)"/>
<path d="M0 0 C0.86625 0.4640625 0.86625 0.4640625 1.75 0.9375 C3.84294184 1.92583364 5.74535275 2.5168613 8 3 C8 3.66 8 4.32 8 5 C5.36 4.67 2.72 4.34 0 4 C0 2.68 0 1.36 0 0 Z " fill="#C0A974" transform="translate(64,17)"/>
<path d="M0 0 C0.66 0 1.32 0 2 0 C2 1.32 2 2.64 2 4 C0.02 4.33 -1.96 4.66 -4 5 C-3.34 4.01 -2.68 3.02 -2 2 C-1.34 2 -0.68 2 0 2 C0 1.34 0 0.68 0 0 Z " fill="#28AFB1" transform="translate(102,84)"/>
<path d="M0 0 C-5.75 4 -5.75 4 -8 4 C-8 3.34 -8 2.68 -8 2 C-3.61016949 -1.20338983 -3.61016949 -1.20338983 0 0 Z " fill="#595A4C" transform="translate(62,65)"/>
<path d="M0 0 C0.66 0.33 1.32 0.66 2 1 C1.34 2.98 0.68 4.96 0 7 C-2.1385485 4.8614515 -2.42655063 3.86724686 -3 1 C-2.01 0.67 -1.02 0.34 0 0 Z " fill="#AF490B" transform="translate(63,55)"/>
<path d="M0 0 C0.99 0.495 0.99 0.495 2 1 C2 1.66 2 2.32 2 3 C2.99 3.33 3.98 3.66 5 4 C5 4.66 5 5.32 5 6 C3.68 6 2.36 6 1 6 C0.67 4.02 0.34 2.04 0 0 Z " fill="#12649E" transform="translate(36,42)"/>
<path d="M0 0 C1.32 0.33 2.64 0.66 4 1 C4 2.98 4 4.96 4 7 C3.01 7.495 3.01 7.495 2 8 C1.855625 7.236875 1.71125 6.47375 1.5625 5.6875 C1.0367406 2.91827092 1.0367406 2.91827092 0 0 Z " fill="#0C4978" transform="translate(92,21)"/>
<path d="M0 0 C1.32 0.33 2.64 0.66 4 1 C3.67 2.65 3.34 4.3 3 6 C2.01 5.67 1.02 5.34 0 5 C0 3.35 0 1.7 0 0 Z " fill="#D9A42B" transform="translate(65,20)"/>
</svg>
